<?xml version="1.0" encoding="UTF-8"?>
<!DOCTYPE svg PUBLIC "-//W3C//DTD SVG 1.1//EN" "http://www.w3.org/Graphics/SVG/1.1/DTD/svg11.dtd">
<svg version="1.1" xmlns="http://www.w3.org/2000/svg" xmlns:xlink="http://www.w3.org/1999/xlink" x="0" y="0" width="1800" height="1012.5" viewBox="0, 0, 1800, 1012.5">
  <defs>
    <clipPath id="Clip_1">
      <path d="M0,0 L1800,0 L1800,1012.5 L0,1012.5 L0,0 z"/>
    </clipPath>
  </defs>
  <g id="Layer_1">
    <g clip-path="url(#Clip_1)">
      <path d="M0,0 L1800,0 L1800,1012.5 L0,1012.5 z" fill="#2A3990"/>
      <path d="M1600.158,0.003 L1800,0.003 L1800,199.846 L1600.158,199.846 z" fill="#212D74"/>
      <path d="M1600.13,199.843 L1600.13,0.001 L1400.288,199.843 z" fill="#3949AB"/>
      <path d="M1400.313,0.021 L1400.313,199.864 L1600.155,0.021 z" fill="#7890CD"/>
      <path d="M1400.311,0.019 L1400.311,199.862 L1200.468,0.019 z" fill="#212D74"/>
      <path d="M1799.998,199.877 L1799.998,399.72 L1600.155,199.877 z" fill="#7890CD"/>
      <path d="M428.199,277.327 Q427.144,286.292 421.578,291.155 Q416.011,296.019 406.753,296.019 Q396.763,296.019 390.728,288.841 Q384.693,281.663 384.693,269.651 L384.693,264.202 Q384.693,256.321 387.505,250.345 Q390.318,244.368 395.474,241.175 Q400.63,237.982 407.427,237.982 Q416.421,237.982 421.841,243.021 Q427.291,248.03 428.199,256.907 L420.699,256.907 Q419.732,250.169 416.48,247.151 Q413.257,244.105 407.427,244.105 Q400.279,244.105 396.207,249.378 Q392.164,254.651 392.164,264.407 L392.164,269.886 Q392.164,279.085 396.001,284.534 Q399.869,289.954 406.753,289.954 Q412.964,289.954 416.275,287.142 Q419.615,284.3 420.699,277.327 L428.199,277.327 z M444.424,258.343 Q449.17,252.484 456.817,252.484 Q470.147,252.484 470.264,267.513 L470.264,295.257 L463.086,295.257 L463.086,267.483 Q463.028,262.942 460.977,260.775 Q458.956,258.577 454.649,258.577 Q451.163,258.577 448.526,260.452 Q445.889,262.298 444.424,265.345 L444.424,295.257 L437.217,295.257 L437.217,235.638 L444.424,235.638 L444.424,258.343 z M479.12,273.87 Q479.12,267.689 481.522,262.767 Q483.954,257.845 488.29,255.179 Q492.626,252.484 498.163,252.484 Q506.747,252.484 512.02,258.431 Q517.323,264.378 517.323,274.222 L517.323,274.72 Q517.323,280.872 514.979,285.735 Q512.635,290.599 508.27,293.323 Q503.905,296.019 498.251,296.019 Q489.696,296.019 484.393,290.101 Q479.12,284.153 479.12,274.368 L479.12,273.87 z M486.327,274.72 Q486.327,281.722 489.549,285.941 Q492.801,290.159 498.251,290.159 Q503.7,290.159 506.922,285.882 Q510.145,281.605 510.145,273.87 Q510.145,266.956 506.864,262.679 Q503.583,258.401 498.163,258.401 Q492.831,258.401 489.579,262.62 Q486.327,266.839 486.327,274.72 z M524.45,273.87 Q524.45,267.689 526.852,262.767 Q529.284,257.845 533.62,255.179 Q537.955,252.484 543.493,252.484 Q552.077,252.484 557.35,258.431 Q562.653,264.378 562.653,274.222 L562.653,274.72 Q562.653,280.872 560.309,285.735 Q557.965,290.599 553.6,293.323 Q549.235,296.019 543.58,296.019 Q535.026,296.019 529.723,290.101 Q524.45,284.153 524.45,274.368 L524.45,273.87 z M531.657,274.72 Q531.657,281.722 534.879,285.941 Q538.131,290.159 543.58,290.159 Q549.03,290.159 552.252,285.882 Q555.475,281.605 555.475,273.87 Q555.475,266.956 552.194,262.679 Q548.912,258.401 543.493,258.401 Q538.161,258.401 534.909,262.62 Q531.657,266.839 531.657,274.72 z M596.117,284.124 Q596.117,281.194 593.92,279.612 Q591.723,278.001 586.274,276.829 Q580.824,275.657 577.631,274.046 Q574.438,272.405 572.885,270.15 Q571.361,267.894 571.361,264.788 Q571.361,259.632 575.727,256.058 Q580.092,252.484 586.889,252.484 Q594.008,252.484 598.461,256.175 Q602.914,259.866 602.914,265.608 L595.678,265.608 Q595.678,262.65 593.188,260.54 Q590.697,258.401 586.889,258.401 Q582.963,258.401 580.736,260.101 Q578.539,261.8 578.539,264.554 Q578.539,267.161 580.59,268.48 Q582.641,269.798 588.002,270.999 Q593.393,272.2 596.733,273.87 Q600.072,275.54 601.684,277.884 Q603.295,280.228 603.295,283.626 Q603.295,289.251 598.783,292.65 Q594.301,296.019 587.123,296.019 Q582.055,296.019 578.188,294.261 Q574.32,292.474 572.123,289.28 Q569.926,286.058 569.926,282.337 L577.104,282.337 Q577.309,285.941 580.004,288.05 Q582.699,290.159 587.123,290.159 Q591.195,290.159 593.656,288.519 Q596.117,286.878 596.117,284.124 z M620.46,295.257 L613.282,295.257 L613.282,253.275 L620.46,253.275 L620.46,295.257 z M612.696,242.112 Q612.696,240.384 613.751,239.183 Q614.835,237.982 616.915,237.982 Q619.024,237.982 620.108,239.183 Q621.192,240.384 621.192,242.142 Q621.192,243.87 620.108,245.042 Q619.024,246.214 616.915,246.214 Q614.835,246.214 613.751,245.042 Q612.696,243.87 612.696,242.112 z M638.723,253.275 L638.957,258.548 Q643.762,252.484 651.526,252.484 Q664.856,252.484 664.973,267.513 L664.973,295.257 L657.795,295.257 L657.795,267.483 Q657.737,262.942 655.686,260.775 Q653.664,258.577 649.358,258.577 Q645.871,258.577 643.235,260.452 Q640.598,262.298 639.133,265.345 L639.133,295.257 L631.926,295.257 L631.926,253.275 L638.723,253.275 z M674.082,273.9 Q674.082,264.085 678.623,258.284 Q683.164,252.484 690.664,252.484 Q698.34,252.484 702.646,257.933 L702.998,253.275 L709.56,253.275 L709.56,294.261 Q709.56,302.405 704.726,307.093 Q699.892,311.78 691.748,311.78 Q687.207,311.78 682.842,309.847 Q678.506,307.913 676.22,304.544 L679.941,300.237 Q684.57,305.921 691.25,305.921 Q696.494,305.921 699.424,302.962 Q702.353,300.032 702.353,294.671 L702.353,291.067 Q698.047,296.019 690.576,296.019 Q683.193,296.019 678.623,290.101 Q674.082,284.153 674.082,273.9 z M681.318,274.72 Q681.318,281.839 684.219,285.911 Q687.119,289.954 692.363,289.954 Q699.16,289.954 702.353,283.773 L702.353,264.583 Q699.043,258.577 692.451,258.577 Q687.207,258.577 684.248,262.65 Q681.318,266.722 681.318,274.72 z M765.978,295.257 Q765.363,294.026 764.982,290.833 Q759.972,296.019 753.029,296.019 Q746.818,296.019 742.833,292.532 Q738.849,289.017 738.849,283.626 Q738.849,277.064 743.829,273.431 Q748.839,269.798 757.863,269.798 L764.865,269.798 L764.865,266.487 Q764.865,262.737 762.609,260.511 Q760.353,258.284 755.988,258.284 Q752.12,258.284 749.513,260.218 Q746.935,262.151 746.935,264.905 L739.728,264.905 Q739.728,261.771 741.954,258.841 Q744.181,255.911 747.99,254.212 Q751.827,252.484 756.398,252.484 Q763.663,252.484 767.765,256.116 Q771.896,259.749 772.042,266.107 L772.042,285.442 Q772.042,291.214 773.507,294.642 L773.507,295.257 L765.978,295.257 z M754.083,289.778 Q757.452,289.778 760.47,288.05 Q763.517,286.292 764.865,283.509 L764.865,274.896 L759.24,274.896 Q746.027,274.896 746.027,282.601 Q746.027,285.97 748.282,287.874 Q750.538,289.778 754.083,289.778 z M790.081,253.275 L790.315,258.548 Q795.12,252.484 802.884,252.484 Q816.214,252.484 816.331,267.513 L816.331,295.257 L809.153,295.257 L809.153,267.483 Q809.095,262.942 807.044,260.775 Q805.022,258.577 800.716,258.577 Q797.229,258.577 794.593,260.452 Q791.956,262.298 790.491,265.345 L790.491,295.257 L783.284,295.257 L783.284,253.275 L790.081,253.275 z M825.411,273.9 Q825.411,264.261 829.981,258.372 Q834.551,252.484 841.963,252.484 Q849.346,252.484 853.653,257.523 L853.653,235.638 L860.831,235.638 L860.831,295.257 L854.239,295.257 L853.887,290.745 Q849.581,296.019 841.905,296.019 Q834.61,296.019 830.01,290.042 Q825.411,284.066 825.411,274.456 L825.411,273.9 z M832.588,274.72 Q832.588,281.868 835.518,285.911 Q838.477,289.954 843.692,289.954 Q850.518,289.954 853.653,283.802 L853.653,264.525 Q850.43,258.577 843.75,258.577 Q838.477,258.577 835.518,262.65 Q832.588,266.722 832.588,274.72 z M924.717,269.124 L900.225,269.124 L900.225,289.163 L928.672,289.163 L928.672,295.257 L892.784,295.257 L892.784,238.743 L928.291,238.743 L928.291,244.896 L900.225,244.896 L900.225,263.03 L924.717,263.03 L924.717,269.124 z M949.664,285.501 L960.064,253.275 L967.418,253.275 L952.359,295.257 L946.881,295.257 L931.675,253.275 L939,253.275 L949.664,285.501 z M999.651,295.257 Q999.036,294.026 998.655,290.833 Q993.645,296.019 986.702,296.019 Q980.491,296.019 976.507,292.532 Q972.522,289.017 972.522,283.626 Q972.522,277.064 977.503,273.431 Q982.512,269.798 991.536,269.798 L998.538,269.798 L998.538,266.487 Q998.538,262.737 996.282,260.511 Q994.026,258.284 989.661,258.284 Q985.794,258.284 983.186,260.218 Q980.608,262.151 980.608,264.905 L973.401,264.905 Q973.401,261.771 975.628,258.841 Q977.854,255.911 981.663,254.212 Q985.501,252.484 990.071,252.484 Q997.337,252.484 1001.438,256.116 Q1005.569,259.749 1005.716,266.107 L1005.716,285.442 Q1005.716,291.214 1007.18,294.642 L1007.18,295.257 L999.651,295.257 z M987.757,289.778 Q991.126,289.778 994.143,288.05 Q997.19,286.292 998.538,283.509 L998.538,274.896 L992.913,274.896 Q979.7,274.896 979.7,282.601 Q979.7,285.97 981.956,287.874 Q984.212,289.778 987.757,289.778 z M1024.78,295.257 L1017.602,295.257 L1017.602,235.638 L1024.78,235.638 L1024.78,295.257 z M1062.174,291.097 Q1057.984,296.019 1049.869,296.019 Q1043.16,296.019 1039.644,292.122 Q1036.129,288.226 1036.099,280.579 L1036.099,253.275 L1043.277,253.275 L1043.277,280.403 Q1043.277,289.954 1051.041,289.954 Q1059.273,289.954 1061.998,283.802 L1061.998,253.275 L1069.176,253.275 L1069.176,295.257 L1062.349,295.257 L1062.174,291.097 z M1105.99,295.257 Q1105.375,294.026 1104.994,290.833 Q1099.984,296.019 1093.041,296.019 Q1086.83,296.019 1082.845,292.532 Q1078.861,289.017 1078.861,283.626 Q1078.861,277.064 1083.841,273.431 Q1088.851,269.798 1097.875,269.798 L1104.877,269.798 L1104.877,266.487 Q1104.877,262.737 1102.621,260.511 Q1100.365,258.284 1096,258.284 Q1092.132,258.284 1089.525,260.218 Q1086.947,262.151 1086.947,264.905 L1079.74,264.905 Q1079.74,261.771 1081.966,258.841 Q1084.193,255.911 1088.002,254.212 Q1091.839,252.484 1096.41,252.484 Q1103.675,252.484 1107.777,256.116 Q1111.908,259.749 1112.054,266.107 L1112.054,285.442 Q1112.054,291.214 1113.519,294.642 L1113.519,295.257 L1105.99,295.257 z M1094.095,289.778 Q1097.464,289.778 1100.482,288.05 Q1103.529,286.292 1104.877,283.509 L1104.877,274.896 L1099.252,274.896 Q1086.039,274.896 1086.039,282.601 Q1086.039,285.97 1088.295,287.874 Q1090.55,289.778 1094.095,289.778 z M1133.052,243.109 L1133.052,253.275 L1140.904,253.275 L1140.904,258.812 L1133.052,258.812 L1133.052,284.857 Q1133.052,287.376 1134.077,288.636 Q1135.132,289.896 1137.681,289.896 Q1138.911,289.896 1141.079,289.427 L1141.079,295.257 Q1138.238,296.019 1135.572,296.019 Q1130.767,296.019 1128.306,293.118 Q1125.874,290.218 1125.874,284.857 L1125.874,258.812 L1118.228,258.812 L1118.228,253.275 L1125.874,253.275 L1125.874,243.109 L1133.052,243.109 z M1157.082,295.257 L1149.905,295.257 L1149.905,253.275 L1157.082,253.275 L1157.082,295.257 z M1149.319,242.112 Q1149.319,240.384 1150.373,239.183 Q1151.457,237.982 1153.537,237.982 Q1155.647,237.982 1156.731,239.183 Q1157.815,240.384 1157.815,242.142 Q1157.815,243.87 1156.731,245.042 Q1155.647,246.214 1153.537,246.214 Q1151.457,246.214 1150.373,245.042 Q1149.319,243.87 1149.319,242.112 z M1175.345,253.275 L1175.58,258.548 Q1180.384,252.484 1188.148,252.484 Q1201.478,252.484 1201.595,267.513 L1201.595,295.257 L1194.418,295.257 L1194.418,267.483 Q1194.359,262.942 1192.308,260.775 Q1190.287,258.577 1185.98,258.577 Q1182.494,258.577 1179.857,260.452 Q1177.22,262.298 1175.755,265.345 L1175.755,295.257 L1168.548,295.257 L1168.548,253.275 L1175.345,253.275 z M1210.704,273.9 Q1210.704,264.085 1215.245,258.284 Q1219.786,252.484 1227.286,252.484 Q1234.962,252.484 1239.269,257.933 L1239.62,253.275 L1246.183,253.275 L1246.183,294.261 Q1246.183,302.405 1241.349,307.093 Q1236.515,311.78 1228.37,311.78 Q1223.829,311.78 1219.464,309.847 Q1215.128,307.913 1212.843,304.544 L1216.564,300.237 Q1221.193,305.921 1227.872,305.921 Q1233.116,305.921 1236.046,302.962 Q1238.976,300.032 1238.976,294.671 L1238.976,291.067 Q1234.669,296.019 1227.198,296.019 Q1219.816,296.019 1215.245,290.101 Q1210.704,284.153 1210.704,273.9 z M1217.941,274.72 Q1217.941,281.839 1220.841,285.911 Q1223.741,289.954 1228.985,289.954 Q1235.782,289.954 1238.976,283.773 L1238.976,264.583 Q1235.665,258.577 1229.073,258.577 Q1223.829,258.577 1220.87,262.65 Q1217.941,266.722 1217.941,274.72 z M1287.424,238.743 L1305.911,284.857 L1324.397,238.743 L1334.036,238.743 L1334.036,295.257 L1326.594,295.257 L1326.594,273.255 L1327.297,249.495 L1308.752,295.257 L1303.04,295.257 L1284.524,249.612 L1285.256,273.255 L1285.256,295.257 L1277.815,295.257 L1277.815,238.743 L1287.424,238.743 z M1371.992,295.257 Q1371.377,294.026 1370.996,290.833 Q1365.986,296.019 1359.043,296.019 Q1352.832,296.019 1348.848,292.532 Q1344.863,289.017 1344.863,283.626 Q1344.863,277.064 1349.844,273.431 Q1354.853,269.798 1363.877,269.798 L1370.879,269.798 L1370.879,266.487 Q1370.879,262.737 1368.623,260.511 Q1366.367,258.284 1362.002,258.284 Q1358.135,258.284 1355.527,260.218 Q1352.949,262.151 1352.949,264.905 L1345.742,264.905 Q1345.742,261.771 1347.969,258.841 Q1350.195,255.911 1354.004,254.212 Q1357.842,252.484 1362.412,252.484 Q1369.678,252.484 1373.779,256.116 Q1377.91,259.749 1378.057,266.107 L1378.057,285.442 Q1378.057,291.214 1379.521,294.642 L1379.521,295.257 L1371.992,295.257 z M1360.098,289.778 Q1363.467,289.778 1366.484,288.05 Q1369.531,286.292 1370.879,283.509 L1370.879,274.896 L1365.254,274.896 Q1352.041,274.896 1352.041,282.601 Q1352.041,285.97 1354.297,287.874 Q1356.553,289.778 1360.098,289.778 z M1406.144,290.159 Q1410.011,290.159 1412.882,287.845 Q1415.754,285.501 1416.047,282.015 L1422.843,282.015 Q1422.638,285.618 1420.353,288.9 Q1418.068,292.151 1414.23,294.085 Q1410.422,296.019 1406.144,296.019 Q1397.589,296.019 1392.521,290.306 Q1387.453,284.593 1387.453,274.661 L1387.453,273.46 Q1387.453,267.308 1389.709,262.532 Q1391.964,257.757 1396.154,255.12 Q1400.373,252.484 1406.115,252.484 Q1413.175,252.484 1417.834,256.732 Q1422.521,260.95 1422.843,267.689 L1416.047,267.689 Q1415.754,263.616 1412.97,261.009 Q1410.187,258.401 1406.115,258.401 Q1400.636,258.401 1397.619,262.327 Q1394.63,266.253 1394.63,273.724 L1394.63,275.071 Q1394.63,282.337 1397.619,286.263 Q1400.607,290.159 1406.144,290.159 z M1438.109,258.343 Q1442.856,252.484 1450.502,252.484 Q1463.832,252.484 1463.949,267.513 L1463.949,295.257 L1456.772,295.257 L1456.772,267.483 Q1456.713,262.942 1454.662,260.775 Q1452.641,258.577 1448.334,258.577 Q1444.848,258.577 1442.211,260.452 Q1439.574,262.298 1438.109,265.345 L1438.109,295.257 L1430.902,295.257 L1430.902,235.638 L1438.109,235.638 L1438.109,258.343 z M1482.502,295.257 L1475.324,295.257 L1475.324,253.275 L1482.502,253.275 L1482.502,295.257 z M1474.739,242.112 Q1474.739,240.384 1475.793,239.183 Q1476.877,237.982 1478.957,237.982 Q1481.067,237.982 1482.151,239.183 Q1483.235,240.384 1483.235,242.142 Q1483.235,243.87 1482.151,245.042 Q1481.067,246.214 1478.957,246.214 Q1476.877,246.214 1475.793,245.042 Q1474.739,243.87 1474.739,242.112 z M1500.765,253.275 L1501,258.548 Q1505.804,252.484 1513.568,252.484 Q1526.898,252.484 1527.015,267.513 L1527.015,295.257 L1519.838,295.257 L1519.838,267.483 Q1519.779,262.942 1517.728,260.775 Q1515.707,258.577 1511.4,258.577 Q1507.914,258.577 1505.277,260.452 Q1502.64,262.298 1501.175,265.345 L1501.175,295.257 L1493.968,295.257 L1493.968,253.275 L1500.765,253.275 z M1555.255,296.019 Q1546.73,296.019 1541.368,290.423 Q1536.007,284.827 1536.007,275.423 L1536.007,274.105 Q1536.007,267.864 1538.38,262.972 Q1540.782,258.05 1545.06,255.267 Q1549.366,252.484 1554.376,252.484 Q1562.55,252.484 1567.091,257.874 Q1571.632,263.265 1571.632,273.343 L1571.632,276.331 L1543.185,276.331 Q1543.36,282.513 1546.818,286.351 Q1550.304,290.159 1555.636,290.159 Q1559.444,290.159 1562.081,288.607 Q1564.718,287.054 1566.71,284.505 L1571.105,287.933 Q1565.831,296.019 1555.255,296.019 z M1554.376,258.401 Q1550.011,258.401 1547.052,261.566 Q1544.122,264.7 1543.419,270.413 L1564.454,270.413 L1564.454,269.886 Q1564.161,264.407 1561.495,261.419 Q1558.859,258.401 1554.376,258.401 z" fill="#FFFFFF"/>
      <path d="M394.126,384.563 L420.904,384.563 L420.904,390.657 L386.626,390.657 L386.626,334.143 L394.126,334.143 L394.126,384.563 z M445.684,391.419 Q437.159,391.419 431.797,385.823 Q426.436,380.227 426.436,370.823 L426.436,369.504 Q426.436,363.264 428.809,358.372 Q431.211,353.45 435.489,350.667 Q439.795,347.883 444.805,347.883 Q452.979,347.883 457.52,353.274 Q462.061,358.665 462.061,368.743 L462.061,371.731 L433.614,371.731 Q433.789,377.913 437.246,381.751 Q440.733,385.559 446.065,385.559 Q449.873,385.559 452.51,384.006 Q455.147,382.454 457.139,379.905 L461.534,383.333 Q456.26,391.419 445.684,391.419 z M444.805,353.801 Q440.44,353.801 437.481,356.965 Q434.551,360.1 433.848,365.813 L454.883,365.813 L454.883,365.286 Q454.59,359.807 451.924,356.819 Q449.287,353.801 444.805,353.801 z M496.289,390.657 Q495.673,389.426 495.293,386.233 Q490.283,391.419 483.339,391.419 Q477.128,391.419 473.144,387.932 Q469.16,384.417 469.16,379.026 Q469.16,372.463 474.14,368.831 Q479.15,365.198 488.173,365.198 L495.175,365.198 L495.175,361.887 Q495.175,358.137 492.919,355.911 Q490.664,353.684 486.298,353.684 Q482.431,353.684 479.824,355.618 Q477.246,357.551 477.246,360.305 L470.039,360.305 Q470.039,357.171 472.265,354.241 Q474.492,351.311 478.3,349.612 Q482.138,347.883 486.709,347.883 Q493.974,347.883 498.076,351.516 Q502.207,355.149 502.353,361.506 L502.353,380.842 Q502.353,386.614 503.818,390.042 L503.818,390.657 L496.289,390.657 z M484.394,385.178 Q487.763,385.178 490.781,383.45 Q493.828,381.692 495.175,378.909 L495.175,370.296 L489.55,370.296 Q476.337,370.296 476.337,378.001 Q476.337,381.37 478.593,383.274 Q480.849,385.178 484.394,385.178 z M533.898,355.12 Q532.286,354.827 530.382,354.827 Q523.322,354.827 520.802,360.862 L520.802,390.657 L513.595,390.657 L513.595,348.674 L520.597,348.674 L520.714,353.508 Q524.23,347.883 530.734,347.883 Q532.814,347.883 533.898,348.44 L533.898,355.12 z M547.287,348.674 L547.521,353.948 Q552.326,347.883 560.09,347.883 Q573.42,347.883 573.537,362.913 L573.537,390.657 L566.359,390.657 L566.359,362.883 Q566.301,358.342 564.25,356.174 Q562.228,353.977 557.922,353.977 Q554.435,353.977 551.799,355.852 Q549.162,357.698 547.697,360.745 L547.697,390.657 L540.49,390.657 L540.49,348.674 L547.287,348.674 z M592.167,390.657 L584.99,390.657 L584.99,348.674 L592.167,348.674 L592.167,390.657 z M584.404,337.512 Q584.404,335.784 585.458,334.583 Q586.542,333.381 588.623,333.381 Q590.732,333.381 591.816,334.583 Q592.9,335.784 592.9,337.542 Q592.9,339.27 591.816,340.442 Q590.732,341.614 588.623,341.614 Q586.542,341.614 585.458,340.442 Q584.404,339.27 584.404,337.512 z M610.431,348.674 L610.665,353.948 Q615.47,347.883 623.233,347.883 Q636.563,347.883 636.681,362.913 L636.681,390.657 L629.503,390.657 L629.503,362.883 Q629.444,358.342 627.393,356.174 Q625.372,353.977 621.065,353.977 Q617.579,353.977 614.942,355.852 Q612.306,357.698 610.841,360.745 L610.841,390.657 L603.634,390.657 L603.634,348.674 L610.431,348.674 z M645.79,369.299 Q645.79,359.485 650.331,353.684 Q654.872,347.883 662.372,347.883 Q670.047,347.883 674.354,353.333 L674.706,348.674 L681.268,348.674 L681.268,389.661 Q681.268,397.805 676.434,402.493 Q671.6,407.18 663.456,407.18 Q658.915,407.18 654.549,405.247 Q650.213,403.313 647.928,399.944 L651.649,395.637 Q656.278,401.321 662.958,401.321 Q668.202,401.321 671.131,398.362 Q674.061,395.432 674.061,390.071 L674.061,386.467 Q669.754,391.419 662.284,391.419 Q654.901,391.419 650.331,385.501 Q645.79,379.553 645.79,369.299 z M653.026,370.12 Q653.026,377.239 655.926,381.311 Q658.827,385.354 664.071,385.354 Q670.868,385.354 674.061,379.172 L674.061,359.983 Q670.75,353.977 664.159,353.977 Q658.915,353.977 655.956,358.049 Q653.026,362.122 653.026,370.12 z M722.51,334.143 L740.996,380.256 L759.482,334.143 L769.121,334.143 L769.121,390.657 L761.68,390.657 L761.68,368.655 L762.383,344.895 L743.838,390.657 L738.125,390.657 L719.609,345.012 L720.342,368.655 L720.342,390.657 L712.9,390.657 L712.9,334.143 L722.51,334.143 z M779.275,369.27 Q779.275,363.088 781.677,358.167 Q784.109,353.245 788.445,350.579 Q792.781,347.883 798.318,347.883 Q806.902,347.883 812.175,353.831 Q817.478,359.778 817.478,369.622 L817.478,370.12 Q817.478,376.272 815.134,381.135 Q812.79,385.999 808.425,388.723 Q804.06,391.419 798.406,391.419 Q789.851,391.419 784.548,385.501 Q779.275,379.553 779.275,369.768 L779.275,369.27 z M786.482,370.12 Q786.482,377.122 789.704,381.34 Q792.956,385.559 798.406,385.559 Q803.855,385.559 807.077,381.282 Q810.3,377.004 810.3,369.27 Q810.3,362.356 807.019,358.079 Q803.738,353.801 798.318,353.801 Q792.986,353.801 789.734,358.02 Q786.482,362.239 786.482,370.12 z M824.751,369.299 Q824.751,359.661 829.321,353.772 Q833.892,347.883 841.304,347.883 Q848.686,347.883 852.993,352.922 L852.993,331.038 L860.171,331.038 L860.171,390.657 L853.579,390.657 L853.227,386.145 Q848.921,391.419 841.245,391.419 Q833.95,391.419 829.351,385.442 Q824.751,379.465 824.751,369.856 L824.751,369.299 z M831.929,370.12 Q831.929,377.268 834.858,381.311 Q837.817,385.354 843.032,385.354 Q849.858,385.354 852.993,379.202 L852.993,359.924 Q849.77,353.977 843.091,353.977 Q837.817,353.977 834.858,358.049 Q831.929,362.122 831.929,370.12 z M888.736,391.419 Q880.211,391.419 874.85,385.823 Q869.488,380.227 869.488,370.823 L869.488,369.504 Q869.488,363.264 871.861,358.372 Q874.264,353.45 878.541,350.667 Q882.848,347.883 887.857,347.883 Q896.031,347.883 900.572,353.274 Q905.113,358.665 905.113,368.743 L905.113,371.731 L876.666,371.731 Q876.842,377.913 880.299,381.751 Q883.785,385.559 889.117,385.559 Q892.926,385.559 895.563,384.006 Q898.199,382.454 900.191,379.905 L904.586,383.333 Q899.313,391.419 888.736,391.419 z M887.857,353.801 Q883.492,353.801 880.533,356.965 Q877.604,360.1 876.9,365.813 L897.936,365.813 L897.936,365.286 Q897.643,359.807 894.977,356.819 Q892.34,353.801 887.857,353.801 z M921.236,390.657 L914.058,390.657 L914.058,331.038 L921.236,331.038 L921.236,390.657 z M957.165,379.524 Q957.165,376.594 954.967,375.012 Q952.77,373.401 947.321,372.229 Q941.872,371.057 938.678,369.446 Q935.485,367.805 933.932,365.549 Q932.409,363.294 932.409,360.188 Q932.409,355.032 936.774,351.458 Q941.139,347.883 947.936,347.883 Q955.055,347.883 959.508,351.575 Q963.962,355.266 963.962,361.008 L956.725,361.008 Q956.725,358.049 954.235,355.94 Q951.745,353.801 947.936,353.801 Q944.01,353.801 941.784,355.501 Q939.587,357.2 939.587,359.954 Q939.587,362.561 941.637,363.879 Q943.688,365.198 949.049,366.399 Q954.44,367.6 957.78,369.27 Q961.12,370.94 962.731,373.284 Q964.342,375.628 964.342,379.026 Q964.342,384.651 959.831,388.049 Q955.348,391.419 948.171,391.419 Q943.102,391.419 939.235,389.661 Q935.368,387.874 933.171,384.68 Q930.973,381.458 930.973,377.737 L938.151,377.737 Q938.356,381.34 941.051,383.45 Q943.747,385.559 948.171,385.559 Q952.243,385.559 954.704,383.919 Q957.165,382.278 957.165,379.524 z M1001.184,390.657 L994.006,390.657 L994.006,348.674 L1001.184,348.674 L1001.184,390.657 z M993.42,337.512 Q993.42,335.784 994.475,334.583 Q995.559,333.381 997.639,333.381 Q999.748,333.381 1000.832,334.583 Q1001.916,335.784 1001.916,337.542 Q1001.916,339.27 1000.832,340.442 Q999.748,341.614 997.639,341.614 Q995.559,341.614 994.475,340.442 Q993.42,339.27 993.42,337.512 z M1019.447,348.674 L1019.681,353.948 Q1024.486,347.883 1032.25,347.883 Q1045.58,347.883 1045.697,362.913 L1045.697,390.657 L1038.519,390.657 L1038.519,362.883 Q1038.461,358.342 1036.41,356.174 Q1034.388,353.977 1030.082,353.977 Q1026.595,353.977 1023.959,355.852 Q1021.322,357.698 1019.857,360.745 L1019.857,390.657 L1012.65,390.657 L1012.65,348.674 L1019.447,348.674 z M1084.766,368.538 L1084.766,390.657 L1077.324,390.657 L1077.324,334.143 L1098.154,334.143 Q1107.441,334.143 1112.685,338.889 Q1117.959,343.606 1117.959,351.428 Q1117.959,359.661 1112.803,364.114 Q1107.676,368.538 1098.096,368.538 L1084.766,368.538 z M1084.766,362.444 L1098.154,362.444 Q1104.131,362.444 1107.324,359.631 Q1110.517,356.819 1110.517,351.487 Q1110.517,346.448 1107.324,343.43 Q1104.131,340.413 1098.594,340.296 L1084.766,340.296 L1084.766,362.444 z M1140.646,380.139 L1150.432,348.674 L1158.137,348.674 L1141.232,397.131 Q1137.307,407.62 1128.781,407.62 L1127.433,407.503 L1124.738,407.004 L1124.738,401.174 L1126.701,401.321 Q1130.334,401.321 1132.355,399.856 Q1134.406,398.391 1135.724,394.465 L1137.307,390.188 L1122.336,348.674 L1130.187,348.674 L1140.646,380.139 z M1174.269,338.508 L1174.269,348.674 L1182.12,348.674 L1182.12,354.212 L1174.269,354.212 L1174.269,380.256 Q1174.269,382.776 1175.294,384.036 Q1176.349,385.296 1178.898,385.296 Q1180.128,385.296 1182.296,384.827 L1182.296,390.657 Q1179.454,391.419 1176.788,391.419 Q1171.984,391.419 1169.523,388.518 Q1167.091,385.618 1167.091,380.256 L1167.091,354.212 L1159.444,354.212 L1159.444,348.674 L1167.091,348.674 L1167.091,338.508 L1174.269,338.508 z M1197.684,353.743 Q1202.43,347.883 1210.076,347.883 Q1223.406,347.883 1223.523,362.913 L1223.523,390.657 L1216.346,390.657 L1216.346,362.883 Q1216.287,358.342 1214.236,356.174 Q1212.215,353.977 1207.908,353.977 Q1204.422,353.977 1201.785,355.852 Q1199.148,357.698 1197.684,360.745 L1197.684,390.657 L1190.477,390.657 L1190.477,331.038 L1197.684,331.038 L1197.684,353.743 z M1232.379,369.27 Q1232.379,363.088 1234.781,358.167 Q1237.213,353.245 1241.549,350.579 Q1245.885,347.883 1251.422,347.883 Q1260.006,347.883 1265.279,353.831 Q1270.582,359.778 1270.582,369.622 L1270.582,370.12 Q1270.582,376.272 1268.238,381.135 Q1265.895,385.999 1261.529,388.723 Q1257.164,391.419 1251.51,391.419 Q1242.955,391.419 1237.652,385.501 Q1232.379,379.553 1232.379,369.768 L1232.379,369.27 z M1239.586,370.12 Q1239.586,377.122 1242.809,381.34 Q1246.061,385.559 1251.51,385.559 Q1256.959,385.559 1260.182,381.282 Q1263.404,377.004 1263.404,369.27 Q1263.404,362.356 1260.123,358.079 Q1256.842,353.801 1251.422,353.801 Q1246.09,353.801 1242.838,358.02 Q1239.586,362.239 1239.586,370.12 z M1286.381,348.674 L1286.615,353.948 Q1291.42,347.883 1299.183,347.883 Q1312.514,347.883 1312.631,362.913 L1312.631,390.657 L1305.453,390.657 L1305.453,362.883 Q1305.394,358.342 1303.344,356.174 Q1301.322,353.977 1297.016,353.977 Q1293.529,353.977 1290.892,355.852 Q1288.256,357.698 1286.791,360.745 L1286.791,390.657 L1279.584,390.657 L1279.584,348.674 L1286.381,348.674 z" fill="#FFFFFF"/>
      <path d="M384.4,454.721 Q384.4,447.338 386.392,440.541 Q388.384,433.744 392.281,428.178 Q396.207,422.612 400.425,420.326 L401.685,424.311 Q396.91,427.973 393.834,435.502 Q390.787,443.031 390.494,452.348 L390.464,455.131 Q390.464,467.758 395.064,477.045 Q397.847,482.582 401.685,485.717 L400.425,489.438 Q396.089,487.006 392.134,481.322 Q384.4,470.19 384.4,454.721 z M408.492,474.057 L408.492,426.449 L424.049,426.449 Q431.783,426.449 435.68,429.672 Q439.605,432.865 439.605,439.135 Q439.605,442.475 437.701,445.053 Q435.826,447.602 432.545,449.008 Q436.412,450.092 438.639,453.11 Q440.894,456.127 440.894,460.317 Q440.894,466.733 436.734,470.395 Q432.574,474.057 424.986,474.057 L408.492,474.057 z M414.762,451.791 L414.762,468.93 L425.133,468.93 Q429.498,468.93 432.018,466.674 Q434.566,464.389 434.566,460.375 Q434.566,451.791 425.221,451.791 L414.762,451.791 z M414.762,446.752 L424.254,446.752 Q428.355,446.752 430.816,444.701 Q433.307,442.621 433.307,439.106 Q433.307,435.18 431.021,433.393 Q428.736,431.606 424.049,431.606 L414.762,431.606 L414.762,446.752 z M463.897,474.701 Q456.72,474.701 452.208,469.985 Q447.696,465.268 447.696,457.358 L447.696,456.244 Q447.696,450.971 449.689,446.84 Q451.71,442.709 455.314,440.365 Q458.946,438.022 463.165,438.022 Q470.05,438.022 473.858,442.563 Q477.696,447.104 477.696,455.57 L477.696,458.09 L453.731,458.09 Q453.878,463.334 456.808,466.557 Q459.737,469.779 464.249,469.779 Q467.442,469.779 469.669,468.461 Q471.896,467.143 473.565,465.004 L477.257,467.875 Q472.804,474.701 463.897,474.701 z M463.165,443.002 Q459.503,443.002 457.013,445.668 Q454.522,448.334 453.937,453.139 L471.661,453.139 L471.661,452.67 Q471.397,448.07 469.171,445.551 Q466.944,443.002 463.165,443.002 z M483.265,456.069 Q483.265,447.807 487.074,442.914 Q490.912,438.022 497.24,438.022 Q503.715,438.022 507.347,442.592 L507.64,438.666 L513.148,438.666 L513.148,473.207 Q513.148,480.063 509.076,484.018 Q505.004,488.002 498.148,488.002 Q494.31,488.002 490.648,486.362 Q486.986,484.721 485.082,481.879 L488.216,478.246 Q492.113,483.051 497.738,483.051 Q502.132,483.051 504.593,480.561 Q507.084,478.07 507.084,473.559 L507.084,470.512 Q503.451,474.701 497.181,474.701 Q490.941,474.701 487.103,469.721 Q483.265,464.711 483.265,456.069 z M489.359,456.772 Q489.359,462.748 491.791,466.176 Q494.252,469.574 498.675,469.574 Q504.388,469.574 507.084,464.389 L507.084,448.217 Q504.3,443.149 498.734,443.149 Q494.31,443.149 491.82,446.606 Q489.359,450.033 489.359,456.772 z M528.867,474.057 L522.802,474.057 L522.802,438.666 L528.867,438.666 L528.867,474.057 z M522.304,429.291 Q522.304,427.826 523.212,426.801 Q524.121,425.776 525.878,425.776 Q527.636,425.776 528.544,426.801 Q529.482,427.826 529.482,429.291 Q529.482,430.756 528.544,431.752 Q527.636,432.719 525.878,432.719 Q524.121,432.719 523.212,431.752 Q522.304,430.756 522.304,429.291 z M544.27,438.666 L544.445,443.119 Q548.518,438.022 555.051,438.022 Q566.272,438.022 566.359,450.678 L566.359,474.057 L560.324,474.057 L560.324,450.649 Q560.295,446.811 558.567,444.994 Q556.838,443.149 553.205,443.149 Q550.276,443.149 548.049,444.731 Q545.822,446.283 544.592,448.832 L544.592,474.057 L538.527,474.057 L538.527,438.666 L544.27,438.666 z M581.222,438.666 L581.398,443.119 Q585.47,438.022 592.004,438.022 Q603.224,438.022 603.312,450.678 L603.312,474.057 L597.277,474.057 L597.277,450.649 Q597.248,446.811 595.519,444.994 Q593.791,443.149 590.158,443.149 Q587.228,443.149 585.002,444.731 Q582.775,446.283 581.545,448.832 L581.545,474.057 L575.48,474.057 L575.48,438.666 L581.222,438.666 z M627.111,474.701 Q619.933,474.701 615.421,469.985 Q610.909,465.268 610.909,457.358 L610.909,456.244 Q610.909,450.971 612.902,446.84 Q614.923,442.709 618.527,440.365 Q622.159,438.022 626.378,438.022 Q633.263,438.022 637.072,442.563 Q640.909,447.104 640.909,455.57 L640.909,458.09 L616.945,458.09 Q617.091,463.334 620.021,466.557 Q622.95,469.779 627.462,469.779 Q630.656,469.779 632.882,468.461 Q635.109,467.143 636.779,465.004 L640.47,467.875 Q636.017,474.701 627.111,474.701 z M626.378,443.002 Q622.716,443.002 620.226,445.668 Q617.736,448.334 617.15,453.139 L634.874,453.139 L634.874,452.67 Q634.611,448.07 632.384,445.551 Q630.157,443.002 626.378,443.002 z M665.023,444.115 Q663.646,443.881 662.035,443.881 Q656.088,443.881 653.978,448.949 L653.978,474.057 L647.914,474.057 L647.914,438.666 L653.803,438.666 L653.92,442.768 Q656.879,438.022 662.357,438.022 Q664.115,438.022 665.023,438.49 L665.023,444.115 z M684.551,455.043 Q684.551,462.338 682.617,469.047 Q680.713,475.727 676.758,481.381 Q672.832,487.035 668.525,489.438 L667.236,485.717 Q672.275,481.879 675.322,473.764 Q678.398,465.619 678.457,455.717 L678.457,454.662 Q678.457,447.807 677.021,441.918 Q675.586,436 673.008,431.313 Q670.459,426.625 667.236,424.018 L668.525,420.326 Q672.832,422.729 676.728,428.324 Q680.654,433.891 682.588,440.629 Q684.551,447.367 684.551,455.043 z" fill="#7891CD"/>
      <path d="M406.46,551.153 L413.023,551.153 L413.023,586.104 Q413.023,593.194 408.746,597.207 Q404.498,601.192 397.437,601.192 Q390.054,601.192 385.953,597.442 Q381.851,593.662 381.851,586.895 L388.384,586.895 Q388.384,591.114 390.699,593.487 Q393.013,595.86 397.437,595.86 Q401.451,595.86 403.941,593.34 Q406.431,590.791 406.46,586.221 L406.46,551.153 z M445.767,600.518 Q445.24,599.434 444.888,596.651 Q440.523,601.192 434.458,601.192 Q429.009,601.192 425.523,598.145 Q422.066,595.069 422.066,590.352 Q422.066,584.61 426.431,581.446 Q430.796,578.282 438.677,578.282 L444.771,578.282 L444.771,575.381 Q444.771,572.1 442.808,570.166 Q440.845,568.203 437.007,568.203 Q433.667,568.203 431.382,569.903 Q429.126,571.602 429.126,574.004 L422.828,574.004 Q422.828,571.25 424.761,568.702 Q426.724,566.153 430.064,564.659 Q433.404,563.164 437.388,563.164 Q443.746,563.164 447.32,566.328 Q450.923,569.493 451.07,575.059 L451.07,591.934 Q451.07,597.002 452.359,599.961 L452.359,600.518 L445.767,600.518 z M435.367,595.743 Q438.296,595.743 440.933,594.219 Q443.599,592.696 444.771,590.235 L444.771,582.705 L439.878,582.705 Q428.335,582.705 428.335,589.473 Q428.335,592.403 430.298,594.073 Q432.261,595.743 435.367,595.743 z M482.246,590.791 Q482.246,588.243 480.312,586.836 Q478.408,585.43 473.633,584.434 Q468.887,583.409 466.074,581.973 Q463.291,580.537 461.943,578.575 Q460.625,576.612 460.625,573.916 Q460.625,569.405 464.434,566.299 Q468.242,563.164 474.189,563.164 Q480.43,563.164 484.297,566.387 Q488.193,569.61 488.193,574.62 L481.865,574.62 Q481.865,572.041 479.668,570.196 Q477.5,568.321 474.189,568.321 Q470.762,568.321 468.828,569.815 Q466.895,571.28 466.895,573.711 Q466.895,575.967 468.682,577.139 Q470.498,578.282 475.186,579.336 Q479.873,580.391 482.773,581.856 Q485.703,583.291 487.109,585.342 Q488.516,587.393 488.516,590.352 Q488.516,595.274 484.59,598.233 Q480.664,601.192 474.395,601.192 Q469.971,601.192 466.572,599.639 Q463.203,598.086 461.27,595.303 Q459.365,592.491 459.365,589.239 L465.635,589.239 Q465.811,592.373 468.154,594.219 Q470.527,596.065 474.395,596.065 Q477.939,596.065 480.078,594.629 Q482.246,593.194 482.246,590.791 z M495.02,581.827 Q495.02,576.436 497.13,572.129 Q499.268,567.823 503.048,565.508 Q506.827,563.164 511.69,563.164 Q519.161,563.164 523.79,568.35 Q528.419,573.536 528.419,582.149 L528.419,582.588 Q528.419,587.95 526.368,592.198 Q524.317,596.446 520.509,598.819 Q516.7,601.192 511.749,601.192 Q504.278,601.192 499.649,596.006 Q495.02,590.821 495.02,582.266 L495.02,581.827 z M501.349,582.588 Q501.349,588.682 504.161,592.373 Q507.003,596.065 511.749,596.065 Q516.524,596.065 519.337,592.344 Q522.149,588.594 522.149,581.827 Q522.149,575.791 519.278,572.071 Q516.436,568.321 511.69,568.321 Q507.032,568.321 504.19,572.012 Q501.349,575.703 501.349,582.588 z M542.236,563.838 L542.412,568.438 Q546.631,563.164 553.399,563.164 Q565.029,563.164 565.147,576.289 L565.147,600.518 L558.877,600.518 L558.877,576.231 Q558.848,572.276 557.061,570.371 Q555.274,568.467 551.524,568.467 Q548.447,568.467 546.133,570.108 Q543.848,571.748 542.559,574.385 L542.559,600.518 L536.289,600.518 L536.289,563.838 L542.236,563.838 z M599.318,595.186 L622.697,595.186 L622.697,600.518 L592.785,600.518 L592.785,551.153 L599.318,551.153 L599.318,595.186 z M629.296,597.237 Q629.296,595.596 630.263,594.512 Q631.23,593.428 633.164,593.428 Q635.097,593.428 636.093,594.512 Q637.089,595.596 637.089,597.237 Q637.089,598.789 636.093,599.844 Q635.097,600.899 633.164,600.899 Q631.23,600.899 630.263,599.844 Q629.296,598.789 629.296,597.237 z M701.907,584.844 Q700.999,592.696 696.136,596.944 Q691.273,601.192 683.187,601.192 Q674.456,601.192 669.183,594.922 Q663.909,588.653 663.909,578.135 L663.909,573.389 Q663.909,566.504 666.37,561.289 Q668.831,556.075 673.314,553.291 Q677.825,550.479 683.773,550.479 Q691.624,550.479 696.37,554.873 Q701.116,559.268 701.907,567.032 L695.374,567.032 Q694.525,561.114 691.683,558.477 Q688.841,555.84 683.773,555.84 Q677.532,555.84 673.988,560.469 Q670.443,565.069 670.443,573.565 L670.443,578.34 Q670.443,586.368 673.782,591.114 Q677.152,595.86 683.187,595.86 Q688.607,595.86 691.507,593.428 Q694.407,590.967 695.374,584.844 L701.907,584.844 z M732.452,600.518 Q731.924,599.434 731.573,596.651 Q727.208,601.192 721.143,601.192 Q715.694,601.192 712.208,598.145 Q708.751,595.069 708.751,590.352 Q708.751,584.61 713.116,581.446 Q717.481,578.282 725.362,578.282 L731.456,578.282 L731.456,575.381 Q731.456,572.1 729.493,570.166 Q727.53,568.203 723.692,568.203 Q720.352,568.203 718.067,569.903 Q715.811,571.602 715.811,574.004 L709.512,574.004 Q709.512,571.25 711.446,568.702 Q713.409,566.153 716.749,564.659 Q720.089,563.164 724.073,563.164 Q730.43,563.164 734.005,566.328 Q737.608,569.493 737.755,575.059 L737.755,591.934 Q737.755,597.002 739.044,599.961 L739.044,600.518 L732.452,600.518 z M722.051,595.743 Q724.981,595.743 727.618,594.219 Q730.284,592.696 731.456,590.235 L731.456,582.705 L726.563,582.705 Q715.02,582.705 715.02,589.473 Q715.02,592.403 716.983,594.073 Q718.946,595.743 722.051,595.743 z M770.22,596.885 Q766.558,601.192 759.468,601.192 Q753.609,601.192 750.532,597.793 Q747.486,594.395 747.427,587.715 L747.427,563.838 L753.696,563.838 L753.696,587.539 Q753.696,595.86 760.493,595.86 Q767.671,595.86 770.044,590.528 L770.044,563.838 L776.314,563.838 L776.314,600.518 L770.366,600.518 L770.22,596.885 z M807.208,590.791 Q807.208,588.243 805.274,586.836 Q803.37,585.43 798.594,584.434 Q793.848,583.409 791.036,581.973 Q788.252,580.537 786.905,578.575 Q785.586,576.612 785.586,573.916 Q785.586,569.405 789.395,566.299 Q793.204,563.164 799.151,563.164 Q805.391,563.164 809.258,566.387 Q813.155,569.61 813.155,574.62 L806.827,574.62 Q806.827,572.041 804.629,570.196 Q802.461,568.321 799.151,568.321 Q795.723,568.321 793.79,569.815 Q791.856,571.28 791.856,573.711 Q791.856,575.967 793.643,577.139 Q795.459,578.282 800.147,579.336 Q804.834,580.391 807.735,581.856 Q810.665,583.291 812.071,585.342 Q813.477,587.393 813.477,590.352 Q813.477,595.274 809.551,598.233 Q805.625,601.192 799.356,601.192 Q794.932,601.192 791.534,599.639 Q788.165,598.086 786.231,595.303 Q784.327,592.491 784.327,589.239 L790.596,589.239 Q790.772,592.373 793.116,594.219 Q795.489,596.065 799.356,596.065 Q802.901,596.065 805.04,594.629 Q807.208,593.194 807.208,590.791 z M836.886,601.192 Q829.415,601.192 824.728,596.299 Q820.07,591.407 820.07,583.203 L820.07,582.032 Q820.07,576.582 822.15,572.305 Q824.23,567.998 827.98,565.596 Q831.73,563.164 836.095,563.164 Q843.244,563.164 847.199,567.881 Q851.183,572.569 851.183,581.358 L851.183,583.965 L826.339,583.965 Q826.456,589.385 829.474,592.725 Q832.521,596.065 837.208,596.065 Q840.548,596.065 842.833,594.717 Q845.148,593.37 846.876,591.114 L850.714,594.102 Q846.085,601.192 836.886,601.192 z M836.095,568.321 Q832.287,568.321 829.708,571.075 Q827.13,573.828 826.544,578.809 L844.913,578.809 L844.913,578.34 Q844.65,573.565 842.335,570.957 Q840.021,568.321 836.095,568.321 z M870.008,591.319 L878.533,563.838 L885.242,563.838 L870.506,606.172 Q867.078,615.342 859.637,615.342 L858.435,615.225 L856.092,614.786 L856.092,609.717 L857.791,609.834 Q860.984,609.834 862.742,608.545 Q864.529,607.256 865.701,603.828 L867.078,600.108 L853.982,563.838 L860.838,563.838 L870.008,591.319 z M887.015,610.362 L883.47,607.901 Q886.634,603.477 886.781,598.76 L886.781,593.106 L892.904,593.106 L892.904,597.998 Q892.904,601.426 891.234,604.854 Q889.564,608.282 887.015,610.362 z M925.538,581.182 L925.538,600.518 L919.034,600.518 L919.034,551.153 L937.228,551.153 Q945.343,551.153 949.913,555.284 Q954.513,559.414 954.513,566.241 Q954.513,573.418 950.03,577.315 Q945.548,581.182 937.169,581.182 L925.538,581.182 z M925.538,575.879 L937.228,575.879 Q942.442,575.879 945.226,573.418 Q948.009,570.957 948.009,566.299 Q948.009,561.905 945.226,559.268 Q942.442,556.602 937.608,556.514 L925.538,556.514 L925.538,575.879 z M968.111,568.262 Q972.271,563.164 978.95,563.164 Q990.581,563.164 990.698,576.289 L990.698,600.518 L984.429,600.518 L984.429,576.231 Q984.4,572.276 982.612,570.371 Q980.825,568.467 977.075,568.467 Q973.999,568.467 971.685,570.108 Q969.4,571.748 968.111,574.385 L968.111,600.518 L961.841,600.518 L961.841,548.428 L968.111,548.428 L968.111,568.262 z M1001.08,600.518 L1001.08,551.153 L1014.996,551.153 Q1021.441,551.153 1026.392,553.995 Q1031.344,556.836 1034.039,562.11 Q1036.734,567.354 1036.763,574.18 L1036.763,577.315 Q1036.763,584.317 1034.068,589.59 Q1031.373,594.834 1026.363,597.647 Q1021.383,600.459 1014.732,600.518 L1001.08,600.518 z M1007.584,556.514 L1007.584,595.186 L1014.439,595.186 Q1021.939,595.186 1026.129,590.528 Q1030.318,585.84 1030.318,577.198 L1030.318,574.297 Q1030.318,565.889 1026.363,561.231 Q1022.437,556.573 1015.172,556.514 L1007.584,556.514 z" fill="#FFFFFF"/>
      <path d="M400.953,639.468 L387.857,639.468 L384.927,647.642 L380.679,647.642 L392.603,616.382 L396.207,616.382 L408.16,647.642 L403.941,647.642 L400.953,639.468 z M389.117,636.099 L399.722,636.099 L394.419,621.48 L389.117,636.099 z M425.274,641.49 Q425.274,639.878 424.073,638.999 Q422.872,638.091 419.854,637.447 Q416.837,636.802 415.049,635.894 Q413.292,634.986 412.442,633.755 Q411.592,632.495 411.592,630.796 Q411.592,627.925 413.995,625.962 Q416.426,623.97 420.176,623.97 Q424.131,623.97 426.592,626.021 Q429.053,628.072 429.053,631.236 L425.04,631.236 Q425.04,629.595 423.663,628.423 Q422.286,627.251 420.176,627.251 Q418.008,627.251 416.778,628.189 Q415.547,629.126 415.547,630.65 Q415.547,632.085 416.69,632.818 Q417.833,633.55 420.792,634.224 Q423.78,634.898 425.626,635.835 Q427.471,636.744 428.35,638.033 Q429.258,639.322 429.258,641.197 Q429.258,644.302 426.768,646.206 Q424.278,648.081 420.294,648.081 Q417.51,648.081 415.342,647.085 Q413.204,646.089 412.003,644.331 Q410.801,642.544 410.801,640.494 L414.756,640.494 Q414.874,642.486 416.368,643.658 Q417.862,644.829 420.294,644.829 Q422.549,644.829 423.897,643.921 Q425.274,643.013 425.274,641.49 z M447.948,641.49 Q447.948,639.878 446.747,638.999 Q445.546,638.091 442.529,637.447 Q439.511,636.802 437.724,635.894 Q435.966,634.986 435.116,633.755 Q434.267,632.495 434.267,630.796 Q434.267,627.925 436.669,625.962 Q439.101,623.97 442.851,623.97 Q446.806,623.97 449.267,626.021 Q451.728,628.072 451.728,631.236 L447.714,631.236 Q447.714,629.595 446.337,628.423 Q444.96,627.251 442.851,627.251 Q440.683,627.251 439.452,628.189 Q438.222,629.126 438.222,630.65 Q438.222,632.085 439.364,632.818 Q440.507,633.55 443.466,634.224 Q446.454,634.898 448.3,635.835 Q450.146,636.744 451.025,638.033 Q451.933,639.322 451.933,641.197 Q451.933,644.302 449.443,646.206 Q446.952,648.081 442.968,648.081 Q440.185,648.081 438.017,647.085 Q435.878,646.089 434.677,644.331 Q433.476,642.544 433.476,640.494 L437.431,640.494 Q437.548,642.486 439.042,643.658 Q440.536,644.829 442.968,644.829 Q445.224,644.829 446.571,643.921 Q447.948,643.013 447.948,641.49 z M456.062,635.806 Q456.062,632.408 457.381,629.683 Q458.728,626.929 461.131,625.464 Q463.533,623.97 466.609,623.97 Q471.355,623.97 474.285,627.281 Q477.215,630.562 477.215,636.011 L477.215,636.275 Q477.215,639.673 475.896,642.369 Q474.607,645.064 472.176,646.587 Q469.773,648.081 466.638,648.081 Q461.922,648.081 458.992,644.8 Q456.062,641.49 456.062,636.099 L456.062,635.806 z M460.047,636.275 Q460.047,640.142 461.834,642.486 Q463.621,644.829 466.638,644.829 Q469.656,644.829 471.443,642.456 Q473.23,640.083 473.23,635.806 Q473.23,631.997 471.414,629.624 Q469.597,627.251 466.609,627.251 Q463.65,627.251 461.834,629.595 Q460.047,631.939 460.047,636.275 z M491.513,644.829 Q493.622,644.829 495.204,643.54 Q496.815,642.251 496.991,640.318 L500.741,640.318 Q500.624,642.31 499.364,644.126 Q498.104,645.913 495.966,646.997 Q493.856,648.081 491.513,648.081 Q486.767,648.081 483.954,644.917 Q481.142,641.724 481.142,636.245 L481.142,635.572 Q481.142,632.173 482.372,629.536 Q483.632,626.9 485.946,625.435 Q488.29,623.97 491.483,623.97 Q495.38,623.97 497.958,626.314 Q500.565,628.658 500.741,632.408 L496.991,632.408 Q496.815,630.152 495.263,628.716 Q493.739,627.251 491.483,627.251 Q488.466,627.251 486.796,629.449 Q485.126,631.617 485.126,635.718 L485.126,636.48 Q485.126,640.494 486.767,642.661 Q488.436,644.829 491.513,644.829 z M509.521,647.642 L505.536,647.642 L505.536,624.41 L509.521,624.41 L509.521,647.642 z M505.214,618.257 Q505.214,617.29 505.8,616.617 Q506.415,615.943 507.558,615.943 Q508.73,615.943 509.316,616.617 Q509.931,617.29 509.931,618.257 Q509.931,619.224 509.316,619.869 Q508.73,620.513 507.558,620.513 Q506.415,620.513 505.8,619.869 Q505.214,619.224 505.214,618.257 z M530.212,647.642 Q529.86,646.968 529.655,645.181 Q526.901,648.081 523.034,648.081 Q519.607,648.081 517.409,646.148 Q515.212,644.185 515.212,641.197 Q515.212,637.564 517.966,635.572 Q520.72,633.55 525.73,633.55 L529.597,633.55 L529.597,631.734 Q529.597,629.654 528.337,628.423 Q527.107,627.193 524.675,627.193 Q522.565,627.193 521.101,628.277 Q519.665,629.331 519.665,630.855 L515.681,630.855 Q515.681,629.097 516.911,627.486 Q518.142,625.874 520.251,624.937 Q522.39,623.97 524.909,623.97 Q528.923,623.97 531.208,625.992 Q533.493,627.984 533.581,631.529 L533.581,642.222 Q533.581,645.415 534.372,647.29 L534.372,647.642 L530.212,647.642 z M523.62,644.624 Q525.495,644.624 527.165,643.658 Q528.835,642.691 529.597,641.138 L529.597,636.363 L526.491,636.363 Q519.167,636.363 519.167,640.64 Q519.167,642.515 520.398,643.57 Q521.657,644.624 523.62,644.624 z M545.196,618.785 L545.196,624.41 L549.532,624.41 L549.532,627.486 L545.196,627.486 L545.196,641.9 Q545.196,643.277 545.753,643.98 Q546.339,644.683 547.745,644.683 Q548.419,644.683 549.62,644.419 L549.62,647.642 Q548.067,648.081 546.573,648.081 Q543.907,648.081 542.559,646.47 Q541.212,644.859 541.212,641.9 L541.212,627.486 L536.993,627.486 L536.993,624.41 L541.212,624.41 L541.212,618.785 L545.196,618.785 z M563.809,648.081 Q559.063,648.081 556.104,644.976 Q553.145,641.87 553.145,636.656 L553.145,635.953 Q553.145,632.495 554.463,629.771 Q555.782,627.046 558.155,625.523 Q560.528,623.97 563.311,623.97 Q567.823,623.97 570.342,626.958 Q572.862,629.947 572.862,635.513 L572.862,637.154 L557.129,637.154 Q557.217,640.611 559.122,642.72 Q561.055,644.829 564.014,644.829 Q566.123,644.829 567.588,643.98 Q569.053,643.101 570.137,641.695 L572.569,643.57 Q569.639,648.081 563.809,648.081 z M563.311,627.251 Q560.909,627.251 559.268,629.009 Q557.627,630.738 557.247,633.902 L568.877,633.902 L568.877,633.609 Q568.731,630.562 567.266,628.921 Q565.801,627.251 563.311,627.251 z M593.1,635.396 L593.1,647.642 L588.969,647.642 L588.969,616.382 L600.483,616.382 Q605.639,616.382 608.539,619.019 Q611.44,621.626 611.44,625.933 Q611.44,630.474 608.598,632.935 Q605.756,635.396 600.453,635.396 L593.1,635.396 z M593.1,632.027 L600.483,632.027 Q603.793,632.027 605.551,630.474 Q607.338,628.921 607.338,625.962 Q607.338,623.179 605.551,621.509 Q603.793,619.839 600.717,619.781 L593.1,619.781 L593.1,632.027 z M627.316,627.984 Q626.408,627.837 625.353,627.837 Q621.457,627.837 620.051,631.148 L620.051,647.642 L616.096,647.642 L616.096,624.41 L619.963,624.41 L620.021,627.105 Q621.955,623.97 625.558,623.97 Q626.701,623.97 627.316,624.292 L627.316,627.984 z M629.491,635.806 Q629.491,632.408 630.81,629.683 Q632.157,626.929 634.56,625.464 Q636.962,623.97 640.038,623.97 Q644.784,623.97 647.714,627.281 Q650.644,630.562 650.644,636.011 L650.644,636.275 Q650.644,639.673 649.325,642.369 Q648.036,645.064 645.604,646.587 Q643.202,648.081 640.067,648.081 Q635.351,648.081 632.421,644.8 Q629.491,641.49 629.491,636.099 L629.491,635.806 z M633.476,636.275 Q633.476,640.142 635.263,642.486 Q637.05,644.829 640.067,644.829 Q643.085,644.829 644.872,642.456 Q646.659,640.083 646.659,635.806 Q646.659,631.997 644.843,629.624 Q643.026,627.251 640.038,627.251 Q637.079,627.251 635.263,629.595 Q633.476,631.939 633.476,636.275 z M657.559,647.642 L657.559,627.486 L653.897,627.486 L653.897,624.41 L657.559,624.41 L657.559,622.036 Q657.559,618.286 659.551,616.265 Q661.572,614.214 665.205,614.214 Q666.582,614.214 667.93,614.566 L667.725,617.788 Q666.729,617.613 665.586,617.613 Q663.653,617.613 662.598,618.755 Q661.543,619.869 661.543,621.949 L661.543,624.41 L666.494,624.41 L666.494,627.486 L661.543,627.486 L661.543,647.642 L657.559,647.642 z M680.015,648.081 Q675.269,648.081 672.31,644.976 Q669.351,641.87 669.351,636.656 L669.351,635.953 Q669.351,632.495 670.669,629.771 Q671.987,627.046 674.361,625.523 Q676.734,623.97 679.517,623.97 Q684.029,623.97 686.548,626.958 Q689.068,629.947 689.068,635.513 L689.068,637.154 L673.335,637.154 Q673.423,640.611 675.327,642.72 Q677.261,644.829 680.22,644.829 Q682.329,644.829 683.794,643.98 Q685.259,643.101 686.343,641.695 L688.775,643.57 Q685.845,648.081 680.015,648.081 z M679.517,627.251 Q677.114,627.251 675.474,629.009 Q673.833,630.738 673.452,633.902 L685.083,633.902 L685.083,633.609 Q684.937,630.562 683.472,628.921 Q682.007,627.251 679.517,627.251 z M707.179,641.49 Q707.179,639.878 705.978,638.999 Q704.777,638.091 701.759,637.447 Q698.742,636.802 696.955,635.894 Q695.197,634.986 694.347,633.755 Q693.497,632.495 693.497,630.796 Q693.497,627.925 695.9,625.962 Q698.331,623.97 702.081,623.97 Q706.037,623.97 708.497,626.021 Q710.958,628.072 710.958,631.236 L706.945,631.236 Q706.945,629.595 705.568,628.423 Q704.191,627.251 702.081,627.251 Q699.914,627.251 698.683,628.189 Q697.453,629.126 697.453,630.65 Q697.453,632.085 698.595,632.818 Q699.738,633.55 702.697,634.224 Q705.685,634.898 707.531,635.835 Q709.376,636.744 710.255,638.033 Q711.164,639.322 711.164,641.197 Q711.164,644.302 708.673,646.206 Q706.183,648.081 702.199,648.081 Q699.415,648.081 697.247,647.085 Q695.109,646.089 693.908,644.331 Q692.706,642.544 692.706,640.494 L696.662,640.494 Q696.779,642.486 698.273,643.658 Q699.767,644.829 702.199,644.829 Q704.455,644.829 705.802,643.921 Q707.179,643.013 707.179,641.49 z M729.854,641.49 Q729.854,639.878 728.652,638.999 Q727.451,638.091 724.434,637.447 Q721.416,636.802 719.629,635.894 Q717.871,634.986 717.022,633.755 Q716.172,632.495 716.172,630.796 Q716.172,627.925 718.574,625.962 Q721.006,623.97 724.756,623.97 Q728.711,623.97 731.172,626.021 Q733.633,628.072 733.633,631.236 L729.619,631.236 Q729.619,629.595 728.242,628.423 Q726.865,627.251 724.756,627.251 Q722.588,627.251 721.357,628.189 Q720.127,629.126 720.127,630.65 Q720.127,632.085 721.27,632.818 Q722.412,633.55 725.371,634.224 Q728.359,634.898 730.205,635.835 Q732.051,636.744 732.93,638.033 Q733.838,639.322 733.838,641.197 Q733.838,644.302 731.348,646.206 Q728.857,648.081 724.873,648.081 Q722.09,648.081 719.922,647.085 Q717.783,646.089 716.582,644.331 Q715.381,642.544 715.381,640.494 L719.336,640.494 Q719.453,642.486 720.947,643.658 Q722.441,644.829 724.873,644.829 Q727.129,644.829 728.477,643.921 Q729.854,643.013 729.854,641.49 z M737.967,635.806 Q737.967,632.408 739.286,629.683 Q740.633,626.929 743.036,625.464 Q745.438,623.97 748.514,623.97 Q753.26,623.97 756.19,627.281 Q759.12,630.562 759.12,636.011 L759.12,636.275 Q759.12,639.673 757.801,642.369 Q756.512,645.064 754.081,646.587 Q751.678,648.081 748.544,648.081 Q743.827,648.081 740.897,644.8 Q737.967,641.49 737.967,636.099 L737.967,635.806 z M741.952,636.275 Q741.952,640.142 743.739,642.486 Q745.526,644.829 748.544,644.829 Q751.561,644.829 753.348,642.456 Q755.135,640.083 755.135,635.806 Q755.135,631.997 753.319,629.624 Q751.503,627.251 748.514,627.251 Q745.555,627.251 743.739,629.595 Q741.952,631.939 741.952,636.275 z M775.322,627.984 Q774.414,627.837 773.359,627.837 Q769.463,627.837 768.056,631.148 L768.056,647.642 L764.101,647.642 L764.101,624.41 L767.969,624.41 L768.027,627.105 Q769.961,623.97 773.564,623.97 Q774.707,623.97 775.322,624.292 L775.322,627.984 z" fill="#7891CD"/>
      <path d="M383.697,689.882 L383.697,658.622 L392.515,658.622 Q396.587,658.622 399.722,660.439 Q402.857,662.226 404.556,665.566 Q406.285,668.876 406.314,673.212 L406.314,675.204 Q406.314,679.628 404.585,682.968 Q402.886,686.278 399.722,688.066 Q396.558,689.853 392.339,689.882 L383.697,689.882 z M387.828,662.021 L387.828,686.513 L392.164,686.513 Q396.91,686.513 399.546,683.554 Q402.212,680.595 402.212,675.116 L402.212,673.271 Q402.212,667.968 399.722,665.009 Q397.232,662.05 392.632,662.021 L387.828,662.021 z M421.557,690.321 Q416.811,690.321 413.852,687.216 Q410.893,684.11 410.893,678.896 L410.893,678.193 Q410.893,674.735 412.211,672.011 Q413.53,669.286 415.903,667.763 Q418.276,666.21 421.059,666.21 Q425.571,666.21 428.09,669.198 Q430.61,672.187 430.61,677.753 L430.61,679.394 L414.877,679.394 Q414.965,682.851 416.87,684.96 Q418.803,687.069 421.762,687.069 Q423.872,687.069 425.336,686.22 Q426.801,685.341 427.885,683.935 L430.317,685.81 Q427.387,690.321 421.557,690.321 z M421.059,669.491 Q418.657,669.491 417.016,671.249 Q415.375,672.978 414.995,676.142 L426.625,676.142 L426.625,675.849 Q426.479,672.802 425.014,671.161 Q423.549,669.491 421.059,669.491 z M454.815,678.515 Q454.815,683.818 452.384,687.069 Q449.981,690.321 445.821,690.321 Q441.602,690.321 439.171,687.626 L439.171,698.818 L435.216,698.818 L435.216,666.65 L438.819,666.65 L439.024,669.228 Q441.456,666.21 445.762,666.21 Q449.952,666.21 452.384,669.374 Q454.815,672.538 454.815,678.163 L454.815,678.515 z M450.86,678.075 Q450.86,674.15 449.19,671.864 Q447.52,669.579 444.591,669.579 Q440.987,669.579 439.171,672.802 L439.171,683.905 Q440.958,687.069 444.62,687.069 Q447.491,687.069 449.161,684.814 Q450.86,682.528 450.86,678.075 z M474.213,689.882 Q473.861,689.208 473.656,687.421 Q470.902,690.321 467.035,690.321 Q463.608,690.321 461.41,688.388 Q459.213,686.425 459.213,683.437 Q459.213,679.804 461.967,677.812 Q464.721,675.79 469.731,675.79 L473.598,675.79 L473.598,673.974 Q473.598,671.894 472.338,670.663 Q471.108,669.433 468.676,669.433 Q466.567,669.433 465.102,670.517 Q463.666,671.571 463.666,673.095 L459.682,673.095 Q459.682,671.337 460.912,669.726 Q462.143,668.114 464.252,667.177 Q466.391,666.21 468.91,666.21 Q472.924,666.21 475.209,668.232 Q477.494,670.224 477.582,673.769 L477.582,684.462 Q477.582,687.655 478.373,689.53 L478.373,689.882 L474.213,689.882 z M467.621,686.864 Q469.496,686.864 471.166,685.898 Q472.836,684.931 473.598,683.378 L473.598,678.603 L470.492,678.603 Q463.168,678.603 463.168,682.88 Q463.168,684.755 464.399,685.81 Q465.658,686.864 467.621,686.864 z M495.027,670.224 Q494.119,670.077 493.064,670.077 Q489.168,670.077 487.762,673.388 L487.762,689.882 L483.807,689.882 L483.807,666.65 L487.674,666.65 L487.732,669.345 Q489.666,666.21 493.27,666.21 Q494.412,666.21 495.027,666.532 L495.027,670.224 z M505.152,661.025 L505.152,666.65 L509.488,666.65 L509.488,669.726 L505.152,669.726 L505.152,684.14 Q505.152,685.517 505.708,686.22 Q506.294,686.923 507.7,686.923 Q508.374,686.923 509.575,686.659 L509.575,689.882 Q508.023,690.321 506.529,690.321 Q503.863,690.321 502.515,688.71 Q501.167,687.099 501.167,684.14 L501.167,669.726 L496.948,669.726 L496.948,666.65 L501.167,666.65 L501.167,661.025 L505.152,661.025 z M517.846,666.65 L517.964,669.228 Q520.512,666.21 524.848,666.21 Q529.712,666.21 531.499,669.96 Q532.641,668.29 534.487,667.265 Q536.362,666.21 538.882,666.21 Q546.528,666.21 546.674,674.325 L546.674,689.882 L542.69,689.882 L542.69,674.56 Q542.69,672.069 541.548,670.839 Q540.405,669.579 537.739,669.579 Q535.512,669.579 534.048,670.927 Q532.612,672.245 532.378,674.472 L532.378,689.882 L528.364,689.882 L528.364,674.648 Q528.364,669.579 523.413,669.579 Q519.516,669.579 518.051,672.919 L518.051,689.882 L514.096,689.882 L514.096,666.65 L517.846,666.65 z M562.307,690.321 Q557.56,690.321 554.602,687.216 Q551.643,684.11 551.643,678.896 L551.643,678.193 Q551.643,674.735 552.961,672.011 Q554.279,669.286 556.652,667.763 Q559.025,666.21 561.809,666.21 Q566.32,666.21 568.84,669.198 Q571.359,672.187 571.359,677.753 L571.359,679.394 L555.627,679.394 Q555.715,682.851 557.619,684.96 Q559.553,687.069 562.512,687.069 Q564.621,687.069 566.086,686.22 Q567.551,685.341 568.635,683.935 L571.066,685.81 Q568.137,690.321 562.307,690.321 z M561.809,669.491 Q559.406,669.491 557.766,671.249 Q556.125,672.978 555.744,676.142 L567.375,676.142 L567.375,675.849 Q567.228,672.802 565.764,671.161 Q564.299,669.491 561.809,669.491 z M579.715,666.65 L579.832,669.579 Q582.498,666.21 586.805,666.21 Q594.158,666.21 594.217,674.53 L594.217,689.882 L590.262,689.882 L590.262,674.501 Q590.233,671.982 589.09,670.78 Q587.977,669.579 585.604,669.579 Q583.67,669.579 582.205,670.634 Q580.74,671.659 579.92,673.329 L579.92,689.882 L575.965,689.882 L575.965,666.65 L579.715,666.65 z M605.619,661.025 L605.619,666.65 L609.955,666.65 L609.955,669.726 L605.619,669.726 L605.619,684.14 Q605.619,685.517 606.176,686.22 Q606.762,686.923 608.168,686.923 Q608.842,686.923 610.043,686.659 L610.043,689.882 Q608.49,690.321 606.996,690.321 Q604.33,690.321 602.982,688.71 Q601.635,687.099 601.635,684.14 L601.635,669.726 L597.416,669.726 L597.416,666.65 L601.635,666.65 L601.635,661.025 L605.619,661.025 z M624.425,678.046 Q624.425,674.648 625.743,671.923 Q627.091,669.169 629.493,667.704 Q631.895,666.21 634.972,666.21 Q639.718,666.21 642.647,669.521 Q645.577,672.802 645.577,678.251 L645.577,678.515 Q645.577,681.913 644.259,684.609 Q642.97,687.304 640.538,688.827 Q638.136,690.321 635.001,690.321 Q630.284,690.321 627.354,687.04 Q624.425,683.73 624.425,678.339 L624.425,678.046 z M628.409,678.515 Q628.409,682.382 630.196,684.726 Q631.983,687.069 635.001,687.069 Q638.018,687.069 639.806,684.696 Q641.593,682.323 641.593,678.046 Q641.593,674.237 639.776,671.864 Q637.96,669.491 634.972,669.491 Q632.013,669.491 630.196,671.835 Q628.409,674.179 628.409,678.515 z M652.492,689.882 L652.492,669.726 L648.83,669.726 L648.83,666.65 L652.492,666.65 L652.492,664.276 Q652.492,660.526 654.484,658.505 Q656.506,656.454 660.139,656.454 Q661.516,656.454 662.863,656.806 L662.658,660.028 Q661.662,659.853 660.52,659.853 Q658.586,659.853 657.531,660.995 Q656.477,662.109 656.477,664.189 L656.477,666.65 L661.428,666.65 L661.428,669.726 L656.477,669.726 L656.477,689.882 L652.492,689.882 z M700.325,679.95 Q699.739,684.931 696.663,687.626 Q693.587,690.321 688.46,690.321 Q682.923,690.321 679.583,686.337 Q676.243,682.353 676.243,675.702 L676.243,672.714 Q676.243,668.349 677.796,665.038 Q679.348,661.728 682.19,659.97 Q685.061,658.183 688.841,658.183 Q693.821,658.183 696.809,660.966 Q699.827,663.749 700.325,668.671 L696.165,668.671 Q695.637,664.921 693.85,663.251 Q692.063,661.581 688.841,661.581 Q684.885,661.581 682.63,664.511 Q680.403,667.411 680.403,672.802 L680.403,675.849 Q680.403,680.917 682.512,683.935 Q684.651,686.952 688.46,686.952 Q691.917,686.952 693.733,685.4 Q695.579,683.818 696.165,679.95 L700.325,679.95 z M704.279,678.046 Q704.279,674.648 705.597,671.923 Q706.945,669.169 709.347,667.704 Q711.75,666.21 714.826,666.21 Q719.572,666.21 722.502,669.521 Q725.431,672.802 725.431,678.251 L725.431,678.515 Q725.431,681.913 724.113,684.609 Q722.824,687.304 720.392,688.827 Q717.99,690.321 714.855,690.321 Q710.138,690.321 707.209,687.04 Q704.279,683.73 704.279,678.339 L704.279,678.046 z M708.263,678.515 Q708.263,682.382 710.051,684.726 Q711.838,687.069 714.855,687.069 Q717.873,687.069 719.66,684.696 Q721.447,682.323 721.447,678.046 Q721.447,674.237 719.631,671.864 Q717.814,669.491 714.826,669.491 Q711.867,669.491 710.051,671.835 Q708.263,674.179 708.263,678.515 z M734.134,666.65 L734.251,669.228 Q736.8,666.21 741.136,666.21 Q745.999,666.21 747.786,669.96 Q748.929,668.29 750.774,667.265 Q752.649,666.21 755.169,666.21 Q762.815,666.21 762.962,674.325 L762.962,689.882 L758.977,689.882 L758.977,674.56 Q758.977,672.069 757.835,670.839 Q756.692,669.579 754.026,669.579 Q751.8,669.579 750.335,670.927 Q748.899,672.245 748.665,674.472 L748.665,689.882 L744.651,689.882 L744.651,674.648 Q744.651,669.579 739.7,669.579 Q735.804,669.579 734.339,672.919 L734.339,689.882 L730.384,689.882 L730.384,666.65 L734.134,666.65 z M788.555,678.515 Q788.555,683.818 786.123,687.069 Q783.721,690.321 779.561,690.321 Q775.342,690.321 772.91,687.626 L772.91,698.818 L768.955,698.818 L768.955,666.65 L772.559,666.65 L772.764,669.228 Q775.195,666.21 779.502,666.21 Q783.692,666.21 786.123,669.374 Q788.555,672.538 788.555,678.163 L788.555,678.515 z M784.6,678.075 Q784.6,674.15 782.93,671.864 Q781.26,669.579 778.33,669.579 Q774.727,669.579 772.91,672.802 L772.91,683.905 Q774.697,687.069 778.36,687.069 Q781.231,687.069 782.901,684.814 Q784.6,682.528 784.6,678.075 z M807.953,687.597 Q805.638,690.321 801.156,690.321 Q797.435,690.321 795.472,688.153 Q793.539,685.985 793.539,681.767 L793.539,666.65 L797.494,666.65 L797.494,681.65 Q797.494,686.952 801.8,686.952 Q806.341,686.952 807.865,683.554 L807.865,666.65 L811.82,666.65 L811.82,689.882 L808.041,689.882 L807.953,687.597 z M823.259,661.025 L823.259,666.65 L827.595,666.65 L827.595,669.726 L823.259,669.726 L823.259,684.14 Q823.259,685.517 823.816,686.22 Q824.402,686.923 825.808,686.923 Q826.482,686.923 827.683,686.659 L827.683,689.882 Q826.13,690.321 824.636,690.321 Q821.97,690.321 820.622,688.71 Q819.275,687.099 819.275,684.14 L819.275,669.726 L815.056,669.726 L815.056,666.65 L819.275,666.65 L819.275,661.025 L823.259,661.025 z M841.872,690.321 Q837.126,690.321 834.167,687.216 Q831.208,684.11 831.208,678.896 L831.208,678.193 Q831.208,674.735 832.526,672.011 Q833.845,669.286 836.218,667.763 Q838.591,666.21 841.374,666.21 Q845.885,666.21 848.405,669.198 Q850.925,672.187 850.925,677.753 L850.925,679.394 L835.192,679.394 Q835.28,682.851 837.184,684.96 Q839.118,687.069 842.077,687.069 Q844.186,687.069 845.651,686.22 Q847.116,685.341 848.2,683.935 L850.632,685.81 Q847.702,690.321 841.872,690.321 z M841.374,669.491 Q838.971,669.491 837.331,671.249 Q835.69,672.978 835.309,676.142 L846.94,676.142 L846.94,675.849 Q846.794,672.802 845.329,671.161 Q843.864,669.491 841.374,669.491 z M866.751,670.224 Q865.843,670.077 864.788,670.077 Q860.892,670.077 859.485,673.388 L859.485,689.882 L855.53,689.882 L855.53,666.65 L859.398,666.65 L859.456,669.345 Q861.39,666.21 864.993,666.21 Q866.136,666.21 866.751,666.532 L866.751,670.224 z M891.111,675.937 Q885.808,674.413 883.377,672.216 Q880.974,669.989 880.974,666.708 Q880.974,663.017 883.933,660.614 Q886.892,658.183 891.609,658.183 Q894.832,658.183 897.351,659.443 Q899.871,660.673 901.248,662.87 Q902.654,665.068 902.654,667.646 L898.494,667.646 Q898.494,664.833 896.678,663.222 Q894.891,661.581 891.609,661.581 Q888.562,661.581 886.863,662.929 Q885.164,664.276 885.164,666.65 Q885.164,668.554 886.775,669.872 Q888.387,671.191 892.283,672.304 Q896.18,673.388 898.377,674.706 Q900.574,676.025 901.629,677.782 Q902.713,679.54 902.713,681.943 Q902.713,685.751 899.754,688.036 Q896.795,690.321 891.814,690.321 Q888.621,690.321 885.808,689.091 Q883.025,687.831 881.502,685.693 Q880.008,683.554 880.008,680.829 L884.139,680.829 Q884.139,683.642 886.219,685.312 Q888.328,686.952 891.814,686.952 Q895.096,686.952 896.824,685.634 Q898.582,684.286 898.582,682.001 Q898.582,679.687 896.971,678.427 Q895.359,677.167 891.111,675.937 z M916.702,687.069 Q918.811,687.069 920.393,685.78 Q922.004,684.491 922.18,682.558 L925.93,682.558 Q925.813,684.55 924.553,686.366 Q923.293,688.153 921.155,689.237 Q919.045,690.321 916.702,690.321 Q911.956,690.321 909.143,687.157 Q906.331,683.964 906.331,678.485 L906.331,677.812 Q906.331,674.413 907.561,671.776 Q908.821,669.14 911.135,667.675 Q913.479,666.21 916.672,666.21 Q920.569,666.21 923.147,668.554 Q925.754,670.898 925.93,674.648 L922.18,674.648 Q922.004,672.392 920.452,670.956 Q918.928,669.491 916.672,669.491 Q913.655,669.491 911.985,671.689 Q910.315,673.857 910.315,677.958 L910.315,678.72 Q910.315,682.734 911.956,684.901 Q913.625,687.069 916.702,687.069 z M934.71,689.882 L930.725,689.882 L930.725,666.65 L934.71,666.65 L934.71,689.882 z M930.403,660.497 Q930.403,659.53 930.989,658.857 Q931.604,658.183 932.747,658.183 Q933.919,658.183 934.505,658.857 Q935.12,659.53 935.12,660.497 Q935.12,661.464 934.505,662.109 Q933.919,662.753 932.747,662.753 Q931.604,662.753 930.989,662.109 Q930.403,661.464 930.403,660.497 z M950.713,690.321 Q945.967,690.321 943.008,687.216 Q940.049,684.11 940.049,678.896 L940.049,678.193 Q940.049,674.735 941.368,672.011 Q942.686,669.286 945.059,667.763 Q947.432,666.21 950.215,666.21 Q954.727,666.21 957.247,669.198 Q959.766,672.187 959.766,677.753 L959.766,679.394 L944.034,679.394 Q944.122,682.851 946.026,684.96 Q947.959,687.069 950.918,687.069 Q953.028,687.069 954.493,686.22 Q955.958,685.341 957.042,683.935 L959.473,685.81 Q956.543,690.321 950.713,690.321 z M950.215,669.491 Q947.813,669.491 946.172,671.249 Q944.532,672.978 944.151,676.142 L955.782,676.142 L955.782,675.849 Q955.635,672.802 954.17,671.161 Q952.706,669.491 950.215,669.491 z M968.122,666.65 L968.239,669.579 Q970.905,666.21 975.212,666.21 Q982.565,666.21 982.624,674.53 L982.624,689.882 L978.669,689.882 L978.669,674.501 Q978.639,671.982 977.497,670.78 Q976.384,669.579 974.011,669.579 Q972.077,669.579 970.612,670.634 Q969.147,671.659 968.327,673.329 L968.327,689.882 L964.372,689.882 L964.372,666.65 L968.122,666.65 z M997.952,687.069 Q1000.061,687.069 1001.643,685.78 Q1003.254,684.491 1003.43,682.558 L1007.18,682.558 Q1007.063,684.55 1005.803,686.366 Q1004.543,688.153 1002.405,689.237 Q1000.295,690.321 997.952,690.321 Q993.206,690.321 990.393,687.157 Q987.581,683.964 987.581,678.485 L987.581,677.812 Q987.581,674.413 988.811,671.776 Q990.071,669.14 992.385,667.675 Q994.729,666.21 997.922,666.21 Q1001.819,666.21 1004.397,668.554 Q1007.004,670.898 1007.18,674.648 L1003.43,674.648 Q1003.254,672.392 1001.702,670.956 Q1000.178,669.491 997.922,669.491 Q994.905,669.491 993.235,671.689 Q991.565,673.857 991.565,677.958 L991.565,678.72 Q991.565,682.734 993.206,684.901 Q994.875,687.069 997.952,687.069 z M1021.292,690.321 Q1016.546,690.321 1013.587,687.216 Q1010.628,684.11 1010.628,678.896 L1010.628,678.193 Q1010.628,674.735 1011.946,672.011 Q1013.264,669.286 1015.638,667.763 Q1018.011,666.21 1020.794,666.21 Q1025.305,666.21 1027.825,669.198 Q1030.344,672.187 1030.344,677.753 L1030.344,679.394 L1014.612,679.394 Q1014.7,682.851 1016.604,684.96 Q1018.538,687.069 1021.497,687.069 Q1023.606,687.069 1025.071,686.22 Q1026.536,685.341 1027.62,683.935 L1030.052,685.81 Q1027.122,690.321 1021.292,690.321 z M1020.794,669.491 Q1018.391,669.491 1016.751,671.249 Q1015.11,672.978 1014.729,676.142 L1026.36,676.142 L1026.36,675.849 Q1026.214,672.802 1024.749,671.161 Q1023.284,669.491 1020.794,669.491 z M1034.804,696.122 L1032.548,694.569 Q1034.569,691.757 1034.657,688.769 L1034.657,685.165 L1038.554,685.165 L1038.554,688.3 Q1038.554,690.468 1037.47,692.636 Q1036.415,694.804 1034.804,696.122 z" fill="#7891CD"/>
      <path d="M400.953,723.948 L387.857,723.948 L384.927,732.122 L380.679,732.122 L392.603,700.862 L396.207,700.862 L408.16,732.122 L403.941,732.122 L400.953,723.948 z M389.117,720.579 L399.722,720.579 L394.419,705.96 L389.117,720.579 z M422.989,712.464 Q422.081,712.317 421.026,712.317 Q417.129,712.317 415.723,715.628 L415.723,732.122 L411.768,732.122 L411.768,708.89 L415.635,708.89 L415.694,711.585 Q417.628,708.45 421.231,708.45 Q422.374,708.45 422.989,708.772 L422.989,712.464 z M433.123,721.37 L430.633,723.948 L430.633,732.122 L426.648,732.122 L426.648,699.134 L430.633,699.134 L430.633,719.085 L432.742,716.536 L439.978,708.89 L444.812,708.89 L435.789,718.587 L445.867,732.122 L441.209,732.122 L433.123,721.37 z M463.262,732.122 Q462.911,731.448 462.706,729.661 Q459.952,732.561 456.085,732.561 Q452.657,732.561 450.46,730.628 Q448.262,728.665 448.262,725.677 Q448.262,722.044 451.016,720.052 Q453.77,718.03 458.78,718.03 L462.647,718.03 L462.647,716.214 Q462.647,714.134 461.387,712.903 Q460.157,711.673 457.725,711.673 Q455.616,711.673 454.151,712.757 Q452.715,713.811 452.715,715.335 L448.731,715.335 Q448.731,713.577 449.962,711.966 Q451.192,710.354 453.301,709.417 Q455.44,708.45 457.96,708.45 Q461.973,708.45 464.258,710.472 Q466.544,712.464 466.631,716.009 L466.631,726.702 Q466.631,729.895 467.422,731.77 L467.422,732.122 L463.262,732.122 z M456.671,729.104 Q458.546,729.104 460.215,728.138 Q461.885,727.171 462.647,725.618 L462.647,720.843 L459.542,720.843 Q452.217,720.843 452.217,725.12 Q452.217,726.995 453.448,728.05 Q454.708,729.104 456.671,729.104 z M476.606,708.89 L476.723,711.819 Q479.389,708.45 483.696,708.45 Q491.049,708.45 491.108,716.77 L491.108,732.122 L487.153,732.122 L487.153,716.741 Q487.124,714.222 485.981,713.02 Q484.868,711.819 482.495,711.819 Q480.561,711.819 479.096,712.874 Q477.631,713.899 476.811,715.569 L476.811,732.122 L472.856,732.122 L472.856,708.89 L476.606,708.89 z M510.625,725.97 Q510.625,724.358 509.424,723.479 Q508.223,722.571 505.205,721.927 Q502.188,721.282 500.401,720.374 Q498.643,719.466 497.793,718.235 Q496.943,716.976 496.943,715.276 Q496.943,712.405 499.346,710.442 Q501.777,708.45 505.527,708.45 Q509.483,708.45 511.943,710.501 Q514.404,712.552 514.404,715.716 L510.391,715.716 Q510.391,714.075 509.014,712.903 Q507.637,711.731 505.527,711.731 Q503.359,711.731 502.129,712.669 Q500.899,713.606 500.899,715.13 Q500.899,716.565 502.041,717.298 Q503.184,718.03 506.143,718.704 Q509.131,719.378 510.977,720.315 Q512.822,721.224 513.701,722.513 Q514.609,723.802 514.609,725.677 Q514.609,728.782 512.119,730.686 Q509.629,732.561 505.645,732.561 Q502.861,732.561 500.693,731.565 Q498.555,730.569 497.354,728.811 Q496.152,727.024 496.152,724.974 L500.108,724.974 Q500.225,726.966 501.719,728.138 Q503.213,729.31 505.645,729.31 Q507.901,729.31 509.248,728.401 Q510.625,727.493 510.625,725.97 z M534.12,732.122 Q533.768,731.448 533.563,729.661 Q530.809,732.561 526.942,732.561 Q523.514,732.561 521.317,730.628 Q519.12,728.665 519.12,725.677 Q519.12,722.044 521.874,720.052 Q524.628,718.03 529.637,718.03 L533.505,718.03 L533.505,716.214 Q533.505,714.134 532.245,712.903 Q531.014,711.673 528.583,711.673 Q526.473,711.673 525.008,712.757 Q523.573,713.811 523.573,715.335 L519.589,715.335 Q519.589,713.577 520.819,711.966 Q522.049,710.354 524.159,709.417 Q526.298,708.45 528.817,708.45 Q532.831,708.45 535.116,710.472 Q537.401,712.464 537.489,716.009 L537.489,726.702 Q537.489,729.895 538.28,731.77 L538.28,732.122 L534.12,732.122 z M527.528,729.104 Q529.403,729.104 531.073,728.138 Q532.743,727.171 533.505,725.618 L533.505,720.843 L530.399,720.843 Q523.075,720.843 523.075,725.12 Q523.075,726.995 524.305,728.05 Q525.565,729.104 527.528,729.104 z M557.219,725.97 Q557.219,724.358 556.018,723.479 Q554.817,722.571 551.799,721.927 Q548.782,721.282 546.995,720.374 Q545.237,719.466 544.387,718.235 Q543.538,716.976 543.538,715.276 Q543.538,712.405 545.94,710.442 Q548.372,708.45 552.122,708.45 Q556.077,708.45 558.538,710.501 Q560.999,712.552 560.999,715.716 L556.985,715.716 Q556.985,714.075 555.608,712.903 Q554.231,711.731 552.122,711.731 Q549.954,711.731 548.723,712.669 Q547.493,713.606 547.493,715.13 Q547.493,716.565 548.635,717.298 Q549.778,718.03 552.737,718.704 Q555.725,719.378 557.571,720.315 Q559.417,721.224 560.296,722.513 Q561.204,723.802 561.204,725.677 Q561.204,728.782 558.714,730.686 Q556.223,732.561 552.239,732.561 Q549.456,732.561 547.288,731.565 Q545.149,730.569 543.948,728.811 Q542.747,727.024 542.747,724.974 L546.702,724.974 Q546.819,726.966 548.313,728.138 Q549.807,729.31 552.239,729.31 Q554.495,729.31 555.842,728.401 Q557.219,727.493 557.219,725.97 z M587.089,718.177 Q581.786,716.653 579.354,714.456 Q576.952,712.229 576.952,708.948 Q576.952,705.257 579.911,702.854 Q582.87,700.423 587.587,700.423 Q590.809,700.423 593.329,701.683 Q595.848,702.913 597.225,705.11 Q598.632,707.308 598.632,709.886 L594.471,709.886 Q594.471,707.073 592.655,705.462 Q590.868,703.821 587.587,703.821 Q584.54,703.821 582.841,705.169 Q581.141,706.517 581.141,708.89 Q581.141,710.794 582.753,712.112 Q584.364,713.431 588.26,714.544 Q592.157,715.628 594.354,716.946 Q596.552,718.265 597.606,720.022 Q598.69,721.78 598.69,724.183 Q598.69,727.991 595.731,730.276 Q592.772,732.561 587.792,732.561 Q584.598,732.561 581.786,731.331 Q579.003,730.071 577.479,727.933 Q575.985,725.794 575.985,723.069 L580.116,723.069 Q580.116,725.882 582.196,727.552 Q584.305,729.192 587.792,729.192 Q591.073,729.192 592.802,727.874 Q594.559,726.526 594.559,724.241 Q594.559,721.927 592.948,720.667 Q591.337,719.407 587.089,718.177 z M608.753,703.265 L608.753,708.89 L613.089,708.89 L613.089,711.966 L608.753,711.966 L608.753,726.38 Q608.753,727.757 609.31,728.46 Q609.896,729.163 611.302,729.163 Q611.976,729.163 613.177,728.899 L613.177,732.122 Q611.624,732.561 610.13,732.561 Q607.464,732.561 606.117,730.95 Q604.769,729.339 604.769,726.38 L604.769,711.966 L600.55,711.966 L600.55,708.89 L604.769,708.89 L604.769,703.265 L608.753,703.265 z M632.054,732.122 Q631.702,731.448 631.497,729.661 Q628.743,732.561 624.876,732.561 Q621.448,732.561 619.251,730.628 Q617.054,728.665 617.054,725.677 Q617.054,722.044 619.807,720.052 Q622.561,718.03 627.571,718.03 L631.438,718.03 L631.438,716.214 Q631.438,714.134 630.179,712.903 Q628.948,711.673 626.516,711.673 Q624.407,711.673 622.942,712.757 Q621.507,713.811 621.507,715.335 L617.522,715.335 Q617.522,713.577 618.753,711.966 Q619.983,710.354 622.093,709.417 Q624.231,708.45 626.751,708.45 Q630.765,708.45 633.05,710.472 Q635.335,712.464 635.423,716.009 L635.423,726.702 Q635.423,729.895 636.214,731.77 L636.214,732.122 L632.054,732.122 z M625.462,729.104 Q627.337,729.104 629.007,728.138 Q630.677,727.171 631.438,725.618 L631.438,720.843 L628.333,720.843 Q621.009,720.843 621.009,725.12 Q621.009,726.995 622.239,728.05 Q623.499,729.104 625.462,729.104 z M647.038,703.265 L647.038,708.89 L651.374,708.89 L651.374,711.966 L647.038,711.966 L647.038,726.38 Q647.038,727.757 647.594,728.46 Q648.18,729.163 649.587,729.163 Q650.26,729.163 651.462,728.899 L651.462,732.122 Q649.909,732.561 648.415,732.561 Q645.749,732.561 644.401,730.95 Q643.053,729.339 643.053,726.38 L643.053,711.966 L638.835,711.966 L638.835,708.89 L643.053,708.89 L643.053,703.265 L647.038,703.265 z M665.651,732.561 Q660.905,732.561 657.946,729.456 Q654.987,726.351 654.987,721.136 L654.987,720.433 Q654.987,716.976 656.305,714.251 Q657.623,711.526 659.996,710.003 Q662.369,708.45 665.153,708.45 Q669.664,708.45 672.184,711.438 Q674.703,714.427 674.703,719.993 L674.703,721.634 L658.971,721.634 Q659.059,725.091 660.963,727.2 Q662.897,729.31 665.856,729.31 Q667.965,729.31 669.43,728.46 Q670.895,727.581 671.979,726.175 L674.41,728.05 Q671.481,732.561 665.651,732.561 z M665.153,711.731 Q662.75,711.731 661.11,713.489 Q659.469,715.218 659.088,718.382 L670.719,718.382 L670.719,718.089 Q670.573,715.042 669.108,713.401 Q667.643,711.731 665.153,711.731 z M712.813,700.862 L712.813,722.102 Q712.783,726.526 710.029,729.339 Q707.275,732.151 702.559,732.503 L701.445,732.561 Q696.318,732.561 693.272,729.808 Q690.225,727.024 690.195,722.161 L690.195,700.862 L694.268,700.862 L694.268,722.044 Q694.268,725.413 696.113,727.317 Q697.988,729.192 701.445,729.192 Q704.961,729.192 706.807,727.317 Q708.682,725.442 708.682,722.044 L708.682,700.862 L712.813,700.862 z M722.46,708.89 L722.577,711.819 Q725.243,708.45 729.55,708.45 Q736.904,708.45 736.962,716.77 L736.962,732.122 L733.007,732.122 L733.007,716.741 Q732.978,714.222 731.835,713.02 Q730.722,711.819 728.349,711.819 Q726.415,711.819 724.95,712.874 Q723.486,713.899 722.665,715.569 L722.665,732.122 L718.71,732.122 L718.71,708.89 L722.46,708.89 z M747.28,732.122 L743.296,732.122 L743.296,708.89 L747.28,708.89 L747.28,732.122 z M742.974,702.737 Q742.974,701.77 743.559,701.097 Q744.175,700.423 745.317,700.423 Q746.489,700.423 747.075,701.097 Q747.69,701.77 747.69,702.737 Q747.69,703.704 747.075,704.349 Q746.489,704.993 745.317,704.993 Q744.175,704.993 743.559,704.349 Q742.974,703.704 742.974,702.737 z M761.292,726.731 L767.063,708.89 L771.106,708.89 L762.786,732.122 L759.739,732.122 L751.331,708.89 L755.403,708.89 L761.292,726.731 z M784.305,732.561 Q779.559,732.561 776.6,729.456 Q773.641,726.351 773.641,721.136 L773.641,720.433 Q773.641,716.976 774.959,714.251 Q776.277,711.526 778.65,710.003 Q781.023,708.45 783.807,708.45 Q788.318,708.45 790.838,711.438 Q793.357,714.427 793.357,719.993 L793.357,721.634 L777.625,721.634 Q777.713,725.091 779.617,727.2 Q781.551,729.31 784.51,729.31 Q786.619,729.31 788.084,728.46 Q789.549,727.581 790.633,726.175 L793.064,728.05 Q790.135,732.561 784.305,732.561 z M783.807,711.731 Q781.404,711.731 779.764,713.489 Q778.123,715.218 777.742,718.382 L789.373,718.382 L789.373,718.089 Q789.227,715.042 787.762,713.401 Q786.297,711.731 783.807,711.731 z M809.184,712.464 Q808.276,712.317 807.221,712.317 Q803.324,712.317 801.918,715.628 L801.918,732.122 L797.963,732.122 L797.963,708.89 L801.83,708.89 L801.889,711.585 Q803.822,708.45 807.426,708.45 Q808.569,708.45 809.184,708.772 L809.184,712.464 z M826.349,725.97 Q826.349,724.358 825.148,723.479 Q823.947,722.571 820.929,721.927 Q817.912,721.282 816.124,720.374 Q814.367,719.466 813.517,718.235 Q812.667,716.976 812.667,715.276 Q812.667,712.405 815.07,710.442 Q817.501,708.45 821.251,708.45 Q825.206,708.45 827.667,710.501 Q830.128,712.552 830.128,715.716 L826.115,715.716 Q826.115,714.075 824.738,712.903 Q823.361,711.731 821.251,711.731 Q819.083,711.731 817.853,712.669 Q816.622,713.606 816.622,715.13 Q816.622,716.565 817.765,717.298 Q818.908,718.03 821.867,718.704 Q824.855,719.378 826.701,720.315 Q828.546,721.224 829.425,722.513 Q830.333,723.802 830.333,725.677 Q830.333,728.782 827.843,730.686 Q825.353,732.561 821.369,732.561 Q818.585,732.561 816.417,731.565 Q814.279,730.569 813.078,728.811 Q811.876,727.024 811.876,724.974 L815.831,724.974 Q815.949,726.966 817.443,728.138 Q818.937,729.31 821.369,729.31 Q823.624,729.31 824.972,728.401 Q826.349,727.493 826.349,725.97 z M839.824,732.122 L835.84,732.122 L835.84,708.89 L839.824,708.89 L839.824,732.122 z M835.518,702.737 Q835.518,701.77 836.104,701.097 Q836.719,700.423 837.861,700.423 Q839.033,700.423 839.619,701.097 Q840.234,701.77 840.234,702.737 Q840.234,703.704 839.619,704.349 Q839.033,704.993 837.861,704.993 Q836.719,704.993 836.104,704.349 Q835.518,703.704 835.518,702.737 z M851.58,703.265 L851.58,708.89 L855.916,708.89 L855.916,711.966 L851.58,711.966 L851.58,726.38 Q851.58,727.757 852.136,728.46 Q852.722,729.163 854.129,729.163 Q854.802,729.163 856.004,728.899 L856.004,732.122 Q854.451,732.561 852.957,732.561 Q850.291,732.561 848.943,730.95 Q847.595,729.339 847.595,726.38 L847.595,711.966 L843.377,711.966 L843.377,708.89 L847.595,708.89 L847.595,703.265 L851.58,703.265 z M868.142,726.292 L873.562,708.89 L877.81,708.89 L868.464,735.696 Q866.296,741.497 861.579,741.497 L860.818,741.438 L859.353,741.175 L859.353,737.952 L860.407,738.04 Q862.429,738.04 863.542,737.22 Q864.685,736.399 865.417,734.231 L866.296,731.858 L858.005,708.89 L862.341,708.89 L868.142,726.292 z" fill="#7891CD"/>
      <path d="M415.689,872.287 L393.365,872.287 L388.355,886.203 L381.089,886.203 L401.451,832.882 L407.603,832.882 L427.994,886.203 L420.787,886.203 L415.689,872.287 z M395.474,866.486 L413.609,866.486 L404.527,841.554 L395.474,866.486 z M450.904,862.443 Q441.851,859.836 437.72,856.056 Q433.619,852.248 433.619,846.681 Q433.619,840.382 438.628,836.281 Q443.668,832.15 451.724,832.15 Q457.232,832.15 461.539,834.289 Q465.845,836.398 468.189,840.148 Q470.562,843.869 470.562,848.293 L463.501,848.293 Q463.501,843.459 460.425,840.705 Q457.349,837.922 451.724,837.922 Q446.539,837.922 443.609,840.236 Q440.709,842.521 440.709,846.564 Q440.709,849.845 443.462,852.101 Q446.246,854.328 452.896,856.203 Q459.546,858.078 463.296,860.334 Q467.046,862.589 468.863,865.607 Q470.679,868.595 470.679,872.638 Q470.679,879.142 465.611,883.039 Q460.572,886.935 452.105,886.935 Q446.597,886.935 441.822,884.826 Q437.076,882.716 434.498,879.054 Q431.919,875.392 431.919,870.734 L438.98,870.734 Q438.98,875.568 442.554,878.38 Q446.128,881.193 452.105,881.193 Q457.671,881.193 460.63,878.937 Q463.589,876.652 463.589,872.726 Q463.589,868.8 460.835,866.662 Q458.111,864.523 450.904,862.443 z M499.236,864.64 L486.697,864.64 L486.697,886.203 L479.637,886.203 L479.637,832.882 L497.303,832.882 Q506.297,832.882 511.131,836.984 Q515.994,841.086 515.994,848.908 Q515.994,853.888 513.299,857.609 Q510.633,861.3 505.828,863.117 L518.338,885.763 L518.338,886.203 L510.809,886.203 L499.236,864.64 z M486.697,858.869 L497.508,858.869 Q502.752,858.869 505.828,856.173 Q508.934,853.449 508.934,848.908 Q508.934,843.986 505.975,841.349 Q503.045,838.713 497.479,838.654 L486.697,838.654 L486.697,858.869 z M533.404,886.203 L526.373,886.203 L526.373,832.882 L533.404,832.882 L533.404,886.203 z M580.542,862.443 Q571.49,859.836 567.359,856.056 Q563.257,852.248 563.257,846.681 Q563.257,840.382 568.267,836.281 Q573.306,832.15 581.363,832.15 Q586.871,832.15 591.177,834.289 Q595.484,836.398 597.828,840.148 Q600.201,843.869 600.201,848.293 L593.14,848.293 Q593.14,843.459 590.064,840.705 Q586.988,837.922 581.363,837.922 Q576.177,837.922 573.248,840.236 Q570.347,842.521 570.347,846.564 Q570.347,849.845 573.101,852.101 Q575.884,854.328 582.535,856.203 Q589.185,858.078 592.935,860.334 Q596.685,862.589 598.501,865.607 Q600.318,868.595 600.318,872.638 Q600.318,879.142 595.25,883.039 Q590.21,886.935 581.744,886.935 Q576.236,886.935 571.46,884.826 Q566.714,882.716 564.136,879.054 Q561.558,875.392 561.558,870.734 L568.619,870.734 Q568.619,875.568 572.193,878.38 Q575.767,881.193 581.744,881.193 Q587.31,881.193 590.269,878.937 Q593.228,876.652 593.228,872.726 Q593.228,868.8 590.474,866.662 Q587.75,864.523 580.542,862.443 z M632.713,882.277 Q628.758,886.935 621.111,886.935 Q614.783,886.935 611.443,883.273 Q608.133,879.582 608.104,872.345 L608.104,846.564 L614.871,846.564 L614.871,872.17 Q614.871,881.193 622.195,881.193 Q629.959,881.193 632.537,875.392 L632.537,846.564 L639.305,846.564 L639.305,886.203 L632.859,886.203 L632.713,882.277 z M655.982,846.564 L656.158,850.959 Q660.523,845.832 667.906,845.832 Q676.226,845.832 679.214,852.218 Q681.207,849.347 684.371,847.589 Q687.535,845.832 691.871,845.832 Q704.908,845.832 705.113,859.66 L705.113,886.203 L698.345,886.203 L698.345,860.041 Q698.345,855.793 696.382,853.713 Q694.449,851.603 689.878,851.603 Q686.099,851.603 683.609,853.859 Q681.119,856.086 680.738,859.894 L680.738,886.203 L673.912,886.203 L673.912,860.246 Q673.912,851.603 665.445,851.603 Q658.794,851.603 656.333,857.257 L656.333,886.203 L649.566,886.203 L649.566,846.564 L655.982,846.564 z M721.717,846.564 L721.893,850.959 Q726.258,845.832 733.641,845.832 Q741.961,845.832 744.949,852.218 Q746.941,849.347 750.105,847.589 Q753.27,845.832 757.605,845.832 Q770.643,845.832 770.848,859.66 L770.848,886.203 L764.08,886.203 L764.08,860.041 Q764.08,855.793 762.117,853.713 Q760.184,851.603 755.613,851.603 Q751.834,851.603 749.344,853.859 Q746.854,856.086 746.473,859.894 L746.473,886.203 L739.646,886.203 L739.646,860.246 Q739.646,851.603 731.18,851.603 Q724.529,851.603 722.068,857.257 L722.068,886.203 L715.301,886.203 L715.301,846.564 L721.717,846.564 z M797.5,886.935 Q789.444,886.935 784.375,881.662 Q779.336,876.359 779.336,867.482 L779.336,866.252 Q779.336,860.334 781.592,855.705 Q783.848,851.076 787.891,848.468 Q791.934,845.832 796.68,845.832 Q804.385,845.832 808.663,850.929 Q812.969,856.027 812.969,865.519 L812.969,868.332 L786.133,868.332 Q786.28,874.191 789.532,877.795 Q792.813,881.398 797.881,881.398 Q801.456,881.398 803.946,879.933 Q806.436,878.468 808.311,876.066 L812.442,879.289 Q807.461,886.935 797.5,886.935 z M796.68,851.398 Q792.579,851.398 789.795,854.386 Q787.012,857.375 786.338,862.765 L806.202,862.765 L806.202,862.238 Q805.909,857.082 803.418,854.24 Q800.928,851.398 796.68,851.398 z M839.959,852.658 Q838.406,852.394 836.619,852.394 Q829.969,852.394 827.566,858.078 L827.566,886.203 L820.799,886.203 L820.799,846.564 L827.391,846.564 L827.508,851.164 Q830.848,845.832 836.941,845.832 Q838.934,845.832 839.959,846.359 L839.959,852.658 z M898.992,886.203 L864.041,886.203 L864.041,881.339 L882.498,860.832 Q886.6,856.173 888.152,853.273 Q889.734,850.343 889.734,847.238 Q889.734,843.048 887.186,840.382 Q884.666,837.716 880.447,837.716 Q875.408,837.716 872.596,840.588 Q869.812,843.459 869.812,848.586 L863.016,848.586 Q863.016,841.232 867.762,836.691 Q872.508,832.15 880.447,832.15 Q887.889,832.15 892.195,836.047 Q896.531,839.943 896.531,846.418 Q896.531,854.298 886.512,865.168 L872.215,880.666 L898.992,880.666 L898.992,886.203 z M939.612,863.468 Q939.612,875.363 935.54,881.164 Q931.468,886.935 922.825,886.935 Q914.3,886.935 910.198,881.281 Q906.097,875.627 905.95,864.377 L905.95,855.324 Q905.95,843.576 909.993,837.863 Q914.065,832.15 922.767,832.15 Q931.351,832.15 935.423,837.658 Q939.495,843.166 939.612,854.679 L939.612,863.468 z M932.815,854.181 Q932.815,845.597 930.384,841.672 Q927.981,837.716 922.767,837.716 Q917.552,837.716 915.179,841.642 Q912.806,845.539 912.718,853.683 L912.718,864.523 Q912.718,873.166 915.208,877.297 Q917.728,881.398 922.825,881.398 Q927.835,881.398 930.267,877.531 Q932.728,873.634 932.815,865.285 L932.815,854.181 z M983.221,886.203 L948.27,886.203 L948.27,881.339 L966.727,860.832 Q970.828,856.173 972.381,853.273 Q973.963,850.343 973.963,847.238 Q973.963,843.048 971.414,840.382 Q968.895,837.716 964.676,837.716 Q959.637,837.716 956.824,840.588 Q954.041,843.459 954.041,848.586 L947.244,848.586 Q947.244,841.232 951.99,836.691 Q956.736,832.15 964.676,832.15 Q972.117,832.15 976.424,836.047 Q980.76,839.943 980.76,846.418 Q980.76,854.298 970.74,865.168 L956.443,880.666 L983.221,880.666 L983.221,886.203 z M1019.007,868.302 L1026.39,868.302 L1026.39,873.81 L1019.007,873.81 L1019.007,886.203 L1012.181,886.203 L1012.181,873.81 L987.894,873.81 L987.894,869.826 L1011.771,832.882 L1019.007,832.882 L1019.007,868.302 z M995.599,868.302 L1012.181,868.302 L1012.181,842.14 L1011.39,843.605 L995.599,868.302 z" fill="#FFFFFF"/>
    </g>
  </g>
</svg>
