<?xml version="1.0" encoding="UTF-8"?>
<!DOCTYPE svg PUBLIC "-//W3C//DTD SVG 1.1//EN" "http://www.w3.org/Graphics/SVG/1.1/DTD/svg11.dtd">
<svg version="1.1" xmlns="http://www.w3.org/2000/svg" xmlns:xlink="http://www.w3.org/1999/xlink" x="0" y="0" width="1800" height="1012.5" viewBox="0, 0, 1800, 1012.5">
  <defs>
    <clipPath id="Clip_1">
      <path d="M0,0 L1800,0 L1800,1012.5 L0,1012.5 L0,0 z"/>
    </clipPath>
  </defs>
  <g id="Layer_1">
    <g clip-path="url(#Clip_1)">
      <path d="M0,0 L1800,0 L1800,1012.5 L0,1012.5 z" fill="#2A3990"/>
      <path d="M1600.158,0.003 L1800,0.003 L1800,199.846 L1600.158,199.846 z" fill="#212D74"/>
      <path d="M1600.13,199.843 L1600.13,0.001 L1400.288,199.843 z" fill="#3949AB"/>
      <path d="M1400.313,0.021 L1400.313,199.864 L1600.155,0.021 z" fill="#7890CD"/>
      <path d="M1400.311,0.019 L1400.311,199.862 L1200.468,0.019 z" fill="#212D74"/>
      <path d="M1799.998,199.877 L1799.998,399.72 L1600.155,199.877 z" fill="#7890CD"/>
      <path d="M443.638,296.036 Q442.261,307.901 434.908,314.346 Q427.554,320.762 415.337,320.762 Q402.125,320.762 394.126,311.27 Q386.158,301.778 386.158,285.899 L386.158,278.721 Q386.158,268.321 389.878,260.44 Q393.599,252.53 400.425,248.311 Q407.251,244.063 416.216,244.063 Q428.111,244.063 435.289,250.714 Q442.466,257.335 443.638,269.083 L433.736,269.083 Q432.476,260.147 428.169,256.163 Q423.892,252.149 416.216,252.149 Q406.783,252.149 401.421,259.122 Q396.06,266.094 396.06,278.985 L396.06,286.192 Q396.06,298.35 401.128,305.528 Q406.226,312.706 415.337,312.706 Q423.541,312.706 427.906,308.985 Q432.3,305.264 433.736,296.036 L443.638,296.036 z M465.897,319.737 L456.404,319.737 L456.404,240.987 L465.897,240.987 L465.897,319.737 z M515.313,314.258 Q509.776,320.762 499.053,320.762 Q490.206,320.762 485.547,315.606 Q480.918,310.45 480.86,300.342 L480.86,264.249 L490.352,264.249 L490.352,300.108 Q490.352,312.706 500.606,312.706 Q511.475,312.706 515.049,304.62 L515.049,264.249 L524.542,264.249 L524.542,319.737 L515.518,319.737 L515.313,314.258 z M571.263,305.03 Q571.263,301.163 568.362,299.053 Q565.462,296.915 558.255,295.391 Q551.048,293.839 546.8,291.7 Q542.581,289.532 540.56,286.573 Q538.538,283.585 538.538,279.483 Q538.538,272.657 544.31,267.94 Q550.081,263.223 559.046,263.223 Q568.479,263.223 574.339,268.116 Q580.228,272.979 580.228,280.567 L570.677,280.567 Q570.677,276.671 567.366,273.858 Q564.085,271.016 559.046,271.016 Q553.86,271.016 550.931,273.272 Q548.03,275.528 548.03,279.19 Q548.03,282.618 550.726,284.376 Q553.45,286.104 560.54,287.686 Q567.659,289.268 572.054,291.495 Q576.478,293.692 578.587,296.798 Q580.726,299.903 580.726,304.356 Q580.726,311.798 574.778,316.28 Q568.831,320.762 559.368,320.762 Q552.688,320.762 547.562,318.419 Q542.435,316.046 539.534,311.827 Q536.634,307.579 536.634,302.657 L546.126,302.657 Q546.39,307.432 549.935,310.245 Q553.509,313.028 559.368,313.028 Q564.729,313.028 567.981,310.86 Q571.263,308.663 571.263,305.03 z M605.95,250.831 L605.95,264.249 L616.321,264.249 L616.321,271.602 L605.95,271.602 L605.95,305.997 Q605.95,309.337 607.327,311.007 Q608.733,312.647 612.073,312.647 Q613.714,312.647 616.585,312.032 L616.585,319.737 Q612.835,320.762 609.29,320.762 Q602.933,320.762 599.71,316.924 Q596.487,313.057 596.487,305.997 L596.487,271.602 L586.38,271.602 L586.38,264.249 L596.487,264.249 L596.487,250.831 L605.95,250.831 z M650.416,320.762 Q639.136,320.762 632.046,313.35 Q624.986,305.938 624.986,293.546 L624.986,291.788 Q624.986,283.526 628.121,277.051 Q631.285,270.577 636.939,266.915 Q642.623,263.223 649.244,263.223 Q660.054,263.223 666.031,270.372 Q672.037,277.491 672.037,290.762 L672.037,294.717 L634.478,294.717 Q634.683,302.921 639.253,307.989 Q643.853,313.028 650.914,313.028 Q655.953,313.028 659.439,310.977 Q662.925,308.926 665.533,305.528 L671.333,310.04 Q664.361,320.762 650.416,320.762 z M649.244,271.016 Q643.501,271.016 639.605,275.206 Q635.708,279.395 634.771,286.924 L662.574,286.924 L662.574,286.192 Q662.164,278.985 658.677,275.001 Q655.191,271.016 649.244,271.016 z M709.822,272.774 Q707.684,272.423 705.164,272.423 Q695.848,272.423 692.508,280.362 L692.508,319.737 L683.016,319.737 L683.016,264.249 L692.244,264.249 L692.391,270.665 Q697.078,263.223 705.633,263.223 Q708.387,263.223 709.822,263.956 L709.822,272.774 z M728.858,319.737 L719.366,319.737 L719.366,264.249 L728.858,264.249 L728.858,319.737 z M718.604,249.542 Q718.604,247.227 720.01,245.645 Q721.417,244.063 724.17,244.063 Q726.954,244.063 728.389,245.645 Q729.825,247.227 729.825,249.542 Q729.825,251.856 728.389,253.409 Q726.954,254.932 724.17,254.932 Q721.417,254.932 720.01,253.409 Q718.604,251.856 718.604,249.542 z M752.991,264.249 L753.313,271.221 Q759.671,263.223 769.925,263.223 Q787.503,263.223 787.649,283.087 L787.649,319.737 L778.187,319.737 L778.187,283.028 Q778.128,277.022 775.433,274.151 Q772.737,271.28 767.054,271.28 Q762.425,271.28 758.938,273.741 Q755.452,276.202 753.519,280.215 L753.519,319.737 L744.026,319.737 L744.026,264.249 L752.991,264.249 z M799.705,291.524 Q799.705,278.575 805.711,270.899 Q811.717,263.223 821.59,263.223 Q831.756,263.223 837.439,270.401 L837.908,264.249 L846.58,264.249 L846.58,318.389 Q846.58,329.171 840.193,335.382 Q833.807,341.592 823.025,341.592 Q817.049,341.592 811.307,339.014 Q805.564,336.465 802.518,331.983 L807.439,326.299 Q813.562,333.829 822.381,333.829 Q829.295,333.829 833.162,329.932 Q837.029,326.036 837.029,318.975 L837.029,314.2 Q831.346,320.762 821.502,320.762 Q811.746,320.762 805.711,312.911 Q799.705,305.059 799.705,291.524 z M809.256,292.608 Q809.256,301.983 813.094,307.344 Q816.932,312.706 823.846,312.706 Q832.84,312.706 837.029,304.561 L837.029,279.219 Q832.664,271.28 823.963,271.28 Q817.049,271.28 813.152,276.671 Q809.256,282.061 809.256,292.608 z M897.176,319.737 L887.684,319.737 L887.684,264.249 L897.176,264.249 L897.176,319.737 z M886.922,249.542 Q886.922,247.227 888.328,245.645 Q889.734,244.063 892.488,244.063 Q895.271,244.063 896.707,245.645 Q898.143,247.227 898.143,249.542 Q898.143,251.856 896.707,253.409 Q895.271,254.932 892.488,254.932 Q889.734,254.932 888.328,253.409 Q886.922,251.856 886.922,249.542 z M921.309,264.249 L921.631,271.221 Q927.989,263.223 938.243,263.223 Q955.821,263.223 955.967,283.087 L955.967,319.737 L946.504,319.737 L946.504,283.028 Q946.446,277.022 943.75,274.151 Q941.055,271.28 935.372,271.28 Q930.743,271.28 927.256,273.741 Q923.77,276.202 921.836,280.215 L921.836,319.737 L912.344,319.737 L912.344,264.249 L921.309,264.249 z M1007.61,290.499 L1007.61,319.737 L997.767,319.737 L997.767,245.089 L1025.306,245.089 Q1037.552,245.089 1044.495,251.358 Q1051.438,257.598 1051.438,267.911 Q1051.438,278.78 1044.642,284.639 Q1037.845,290.499 1025.188,290.499 L1007.61,290.499 z M1007.61,282.471 L1025.306,282.471 Q1033.187,282.471 1037.376,278.751 Q1041.595,275.03 1041.595,267.999 Q1041.595,261.348 1037.376,257.364 Q1033.187,253.35 1025.862,253.174 L1007.61,253.174 L1007.61,282.471 z M1081.446,305.85 L1094.366,264.249 L1104.502,264.249 L1082.208,328.292 Q1077.022,342.149 1065.743,342.149 L1063.956,342.003 L1060.411,341.329 L1060.411,333.624 L1062.989,333.829 Q1067.793,333.829 1070.489,331.866 Q1073.184,329.932 1074.913,324.776 L1077.022,319.122 L1057.247,264.249 L1067.588,264.249 L1081.446,305.85 z M1125.823,250.831 L1125.823,264.249 L1136.194,264.249 L1136.194,271.602 L1125.823,271.602 L1125.823,305.997 Q1125.823,309.337 1127.2,311.007 Q1128.606,312.647 1131.946,312.647 Q1133.587,312.647 1136.458,312.032 L1136.458,319.737 Q1132.708,320.762 1129.163,320.762 Q1122.806,320.762 1119.583,316.924 Q1116.36,313.057 1116.36,305.997 L1116.36,271.602 L1106.253,271.602 L1106.253,264.249 L1116.36,264.249 L1116.36,250.831 L1125.823,250.831 z M1156.753,270.987 Q1163.052,263.223 1173.16,263.223 Q1190.738,263.223 1190.884,283.087 L1190.884,319.737 L1181.421,319.737 L1181.421,283.028 Q1181.363,277.022 1178.667,274.151 Q1175.972,271.28 1170.289,271.28 Q1165.66,271.28 1162.173,273.741 Q1158.687,276.202 1156.753,280.215 L1156.753,319.737 L1147.261,319.737 L1147.261,240.987 L1156.753,240.987 L1156.753,270.987 z M1202.574,291.495 Q1202.574,283.321 1205.767,276.817 Q1208.99,270.313 1214.703,266.768 Q1220.416,263.223 1227.769,263.223 Q1239.078,263.223 1246.08,271.075 Q1253.082,278.926 1253.082,291.934 L1253.082,292.608 Q1253.082,300.723 1249.976,307.169 Q1246.871,313.585 1241.099,317.188 Q1235.357,320.762 1227.857,320.762 Q1216.578,320.762 1209.576,312.911 Q1202.574,305.059 1202.574,292.139 L1202.574,291.495 z M1212.125,292.608 Q1212.125,301.837 1216.402,307.432 Q1220.679,313.028 1227.857,313.028 Q1235.093,313.028 1239.341,307.374 Q1243.589,301.69 1243.589,291.495 Q1243.589,282.354 1239.253,276.7 Q1234.947,271.016 1227.769,271.016 Q1220.738,271.016 1216.431,276.612 Q1212.125,282.208 1212.125,292.608 z M1273.941,264.249 L1274.263,271.221 Q1280.621,263.223 1290.875,263.223 Q1308.453,263.223 1308.599,283.087 L1308.599,319.737 L1299.136,319.737 L1299.136,283.028 Q1299.078,277.022 1296.382,274.151 Q1293.687,271.28 1288.003,271.28 Q1283.375,271.28 1279.888,273.741 Q1276.402,276.202 1274.468,280.215 L1274.468,319.737 L1264.976,319.737 L1264.976,264.249 L1273.941,264.249 z" fill="#FFFFFF"/>
      <path d="M384.898,394.929 Q384.898,386.697 387.095,379.138 Q389.292,371.579 393.658,365.398 Q398.023,359.216 402.71,356.667 L404.087,361.121 Q398.785,365.193 395.386,373.572 Q391.988,381.921 391.666,392.263 L391.636,395.369 Q391.636,409.402 396.734,419.714 Q399.839,425.896 404.087,429.382 L402.71,433.484 Q397.876,430.788 393.482,424.46 Q384.898,412.126 384.898,394.929 z M419.132,416.404 L412.159,416.404 L412.159,363.494 L419.132,363.494 L419.132,416.404 z M437.21,377.087 L437.415,382.009 Q441.927,376.355 449.193,376.355 Q461.673,376.355 461.79,390.417 L461.79,416.404 L455.052,416.404 L455.052,390.388 Q455.023,386.111 453.118,384.089 Q451.214,382.068 447.171,382.068 Q443.89,382.068 441.4,383.826 Q438.939,385.554 437.562,388.367 L437.562,416.404 L430.853,416.404 L430.853,377.087 L437.21,377.087 z M481.039,367.537 L481.039,377.087 L488.392,377.087 L488.392,382.273 L481.039,382.273 L481.039,406.648 Q481.039,409.021 482.005,410.222 Q483.002,411.394 485.375,411.394 Q486.517,411.394 488.568,410.954 L488.568,416.404 Q485.902,417.136 483.412,417.136 Q478.9,417.136 476.615,414.412 Q474.33,411.687 474.33,406.648 L474.33,382.273 L467.152,382.273 L467.152,377.087 L474.33,377.087 L474.33,367.537 L481.039,367.537 z M512.563,417.136 Q504.565,417.136 499.526,411.892 Q494.517,406.619 494.517,397.829 L494.517,396.599 Q494.517,390.74 496.743,386.14 Q498.999,381.54 503.013,378.962 Q507.026,376.355 511.714,376.355 Q519.39,376.355 523.638,381.423 Q527.886,386.462 527.886,395.867 L527.886,398.679 L501.255,398.679 Q501.401,404.48 504.653,408.054 Q507.905,411.628 512.915,411.628 Q516.489,411.628 518.95,410.193 Q521.44,408.728 523.286,406.326 L527.388,409.548 Q522.437,417.136 512.563,417.136 z M511.714,381.863 Q507.642,381.863 504.888,384.851 Q502.134,387.81 501.46,393.142 L521.177,393.142 L521.177,392.644 Q520.884,387.517 518.394,384.704 Q515.933,381.863 511.714,381.863 z M554.698,383.093 Q553.145,382.859 551.387,382.859 Q544.766,382.859 542.393,388.484 L542.393,416.404 L535.684,416.404 L535.684,377.087 L542.217,377.087 L542.334,381.628 Q545.645,376.355 551.709,376.355 Q553.672,376.355 554.698,376.853 L554.698,383.093 z M567.202,377.087 L567.378,381.423 Q571.685,376.355 579.038,376.355 Q587.3,376.355 590.259,382.683 Q592.222,379.841 595.357,378.113 Q598.521,376.355 602.798,376.355 Q615.747,376.355 615.982,390.037 L615.982,416.404 L609.243,416.404 L609.243,390.447 Q609.243,386.228 607.31,384.148 Q605.405,382.068 600.835,382.068 Q597.114,382.068 594.624,384.294 Q592.163,386.521 591.753,390.3 L591.753,416.404 L585.015,416.404 L585.015,390.622 Q585.015,382.068 576.607,382.068 Q569.985,382.068 567.554,387.693 L567.554,416.404 L560.816,416.404 L560.816,377.087 L567.202,377.087 z M642.44,417.136 Q634.441,417.136 629.402,411.892 Q624.393,406.619 624.393,397.829 L624.393,396.599 Q624.393,390.74 626.619,386.14 Q628.875,381.54 632.889,378.962 Q636.902,376.355 641.59,376.355 Q649.266,376.355 653.514,381.423 Q657.762,386.462 657.762,395.867 L657.762,398.679 L631.131,398.679 Q631.277,404.48 634.529,408.054 Q637.781,411.628 642.791,411.628 Q646.365,411.628 648.826,410.193 Q651.316,408.728 653.162,406.326 L657.264,409.548 Q652.313,417.136 642.44,417.136 z M641.59,381.863 Q637.518,381.863 634.764,384.851 Q632.01,387.81 631.336,393.142 L651.053,393.142 L651.053,392.644 Q650.76,387.517 648.27,384.704 Q645.809,381.863 641.59,381.863 z M663.919,396.423 Q663.919,387.371 668.197,381.863 Q672.503,376.355 679.447,376.355 Q686.332,376.355 690.375,381.072 L690.375,360.564 L697.113,360.564 L697.113,416.404 L690.931,416.404 L690.609,412.185 Q686.566,417.136 679.359,417.136 Q672.533,417.136 668.226,411.54 Q663.919,405.945 663.919,396.921 L663.919,396.423 z M670.628,397.185 Q670.628,403.865 673.382,407.644 Q676.166,411.423 681.029,411.423 Q687.445,411.423 690.375,405.681 L690.375,387.605 Q687.357,382.068 681.117,382.068 Q676.166,382.068 673.382,385.876 Q670.628,389.685 670.628,397.185 z M714.839,416.404 L708.13,416.404 L708.13,377.087 L714.839,377.087 L714.839,416.404 z M707.573,366.628 Q707.573,365.017 708.569,363.904 Q709.565,362.761 711.528,362.761 Q713.491,362.761 714.516,363.904 Q715.542,365.017 715.542,366.658 Q715.542,368.269 714.516,369.382 Q713.491,370.466 711.528,370.466 Q709.565,370.466 708.569,369.382 Q707.573,368.269 707.573,366.628 z M749.896,416.404 Q749.31,415.232 748.93,412.273 Q744.242,417.136 737.738,417.136 Q731.937,417.136 728.187,413.855 Q724.467,410.544 724.467,405.505 Q724.467,399.353 729.125,395.954 Q733.812,392.556 742.279,392.556 L748.842,392.556 L748.842,389.48 Q748.842,385.935 746.732,383.855 Q744.623,381.775 740.492,381.775 Q736.918,381.775 734.457,383.591 Q732.025,385.408 732.025,387.986 L725.287,387.986 Q725.287,385.027 727.367,382.302 Q729.447,379.548 733.021,377.966 Q736.625,376.355 740.902,376.355 Q747.699,376.355 751.537,379.753 Q755.404,383.152 755.551,389.099 L755.551,407.204 Q755.551,412.624 756.928,415.818 L756.928,416.404 L749.896,416.404 z M738.734,411.277 Q741.898,411.277 744.711,409.636 Q747.553,407.996 748.842,405.388 L748.842,397.331 L743.568,397.331 Q731.205,397.331 731.205,404.568 Q731.205,407.703 733.314,409.49 Q735.424,411.277 738.734,411.277 z M775.214,367.537 L775.214,377.087 L782.567,377.087 L782.567,382.273 L775.214,382.273 L775.214,406.648 Q775.214,409.021 776.18,410.222 Q777.177,411.394 779.55,411.394 Q780.692,411.394 782.743,410.954 L782.743,416.404 Q780.077,417.136 777.587,417.136 Q773.075,417.136 770.79,414.412 Q768.505,411.687 768.505,406.648 L768.505,382.273 L761.327,382.273 L761.327,377.087 L768.505,377.087 L768.505,367.537 L775.214,367.537 z M806.738,417.136 Q798.74,417.136 793.701,411.892 Q788.692,406.619 788.692,397.829 L788.692,396.599 Q788.692,390.74 790.918,386.14 Q793.174,381.54 797.188,378.962 Q801.201,376.355 805.889,376.355 Q813.565,376.355 817.813,381.423 Q822.061,386.462 822.061,395.867 L822.061,398.679 L795.43,398.679 Q795.576,404.48 798.828,408.054 Q802.08,411.628 807.09,411.628 Q810.664,411.628 813.125,410.193 Q815.615,408.728 817.461,406.326 L821.563,409.548 Q816.611,417.136 806.738,417.136 z M805.889,381.863 Q801.817,381.863 799.063,384.851 Q796.309,387.81 795.635,393.142 L815.352,393.142 L815.352,392.644 Q815.059,387.517 812.568,384.704 Q810.108,381.863 805.889,381.863 z M845.357,395.281 Q845.357,403.396 843.218,410.837 Q841.109,418.249 836.714,424.548 Q832.349,430.847 827.574,433.484 L826.138,429.382 Q831.734,425.105 835.132,416.081 Q838.531,407.029 838.619,396.013 L838.619,394.841 Q838.619,387.224 837.007,380.662 Q835.425,374.099 832.554,368.913 Q829.713,363.699 826.138,360.798 L827.574,356.667 Q832.349,359.333 836.685,365.544 Q841.05,371.755 843.189,379.255 Q845.357,386.755 845.357,395.281 z" fill="#7891CD"/>
      <path d="M406.46,527.413 L413.023,527.413 L413.023,562.364 Q413.023,569.454 408.746,573.467 Q404.498,577.452 397.437,577.452 Q390.054,577.452 385.953,573.702 Q381.851,569.922 381.851,563.155 L388.384,563.155 Q388.384,567.373 390.699,569.747 Q393.013,572.12 397.437,572.12 Q401.451,572.12 403.941,569.6 Q406.431,567.051 406.46,562.481 L406.46,527.413 z M445.767,576.778 Q445.24,575.694 444.888,572.911 Q440.523,577.452 434.458,577.452 Q429.009,577.452 425.523,574.405 Q422.066,571.329 422.066,566.612 Q422.066,560.87 426.431,557.706 Q430.796,554.541 438.677,554.541 L444.771,554.541 L444.771,551.641 Q444.771,548.36 442.808,546.426 Q440.845,544.463 437.007,544.463 Q433.667,544.463 431.382,546.163 Q429.126,547.862 429.126,550.264 L422.828,550.264 Q422.828,547.51 424.761,544.961 Q426.724,542.413 430.064,540.918 Q433.404,539.424 437.388,539.424 Q443.746,539.424 447.32,542.588 Q450.923,545.752 451.07,551.319 L451.07,568.194 Q451.07,573.262 452.359,576.221 L452.359,576.778 L445.767,576.778 z M435.367,572.002 Q438.296,572.002 440.933,570.479 Q443.599,568.956 444.771,566.495 L444.771,558.965 L439.878,558.965 Q428.335,558.965 428.335,565.733 Q428.335,568.663 430.298,570.332 Q432.261,572.002 435.367,572.002 z M482.246,567.051 Q482.246,564.502 480.312,563.096 Q478.408,561.69 473.633,560.694 Q468.887,559.668 466.074,558.233 Q463.291,556.797 461.943,554.834 Q460.625,552.872 460.625,550.176 Q460.625,545.664 464.434,542.559 Q468.242,539.424 474.189,539.424 Q480.43,539.424 484.297,542.647 Q488.193,545.87 488.193,550.879 L481.865,550.879 Q481.865,548.301 479.668,546.456 Q477.5,544.581 474.189,544.581 Q470.762,544.581 468.828,546.075 Q466.895,547.539 466.895,549.971 Q466.895,552.227 468.682,553.399 Q470.498,554.541 475.186,555.596 Q479.873,556.651 482.773,558.116 Q485.703,559.551 487.109,561.602 Q488.516,563.653 488.516,566.612 Q488.516,571.534 484.59,574.493 Q480.664,577.452 474.395,577.452 Q469.971,577.452 466.572,575.899 Q463.203,574.346 461.27,571.563 Q459.365,568.75 459.365,565.498 L465.635,565.498 Q465.811,568.633 468.154,570.479 Q470.527,572.325 474.395,572.325 Q477.939,572.325 480.078,570.889 Q482.246,569.454 482.246,567.051 z M495.02,558.086 Q495.02,552.696 497.13,548.389 Q499.268,544.082 503.048,541.768 Q506.827,539.424 511.69,539.424 Q519.161,539.424 523.79,544.61 Q528.419,549.795 528.419,558.409 L528.419,558.848 Q528.419,564.209 526.368,568.457 Q524.317,572.706 520.509,575.079 Q516.7,577.452 511.749,577.452 Q504.278,577.452 499.649,572.266 Q495.02,567.081 495.02,558.526 L495.02,558.086 z M501.349,558.848 Q501.349,564.942 504.161,568.633 Q507.003,572.325 511.749,572.325 Q516.524,572.325 519.337,568.604 Q522.149,564.854 522.149,558.086 Q522.149,552.051 519.278,548.331 Q516.436,544.581 511.69,544.581 Q507.032,544.581 504.19,548.272 Q501.349,551.963 501.349,558.848 z M542.236,540.098 L542.412,544.698 Q546.631,539.424 553.399,539.424 Q565.029,539.424 565.147,552.549 L565.147,576.778 L558.877,576.778 L558.877,552.491 Q558.848,548.536 557.061,546.631 Q555.274,544.727 551.524,544.727 Q548.447,544.727 546.133,546.368 Q543.848,548.008 542.559,550.645 L542.559,576.778 L536.289,576.778 L536.289,540.098 L542.236,540.098 z M599.318,571.446 L622.697,571.446 L622.697,576.778 L592.785,576.778 L592.785,527.413 L599.318,527.413 L599.318,571.446 z M629.296,573.497 Q629.296,571.856 630.263,570.772 Q631.23,569.688 633.164,569.688 Q635.097,569.688 636.093,570.772 Q637.089,571.856 637.089,573.497 Q637.089,575.049 636.093,576.104 Q635.097,577.159 633.164,577.159 Q631.23,577.159 630.263,576.104 Q629.296,575.049 629.296,573.497 z M701.907,561.104 Q700.999,568.956 696.136,573.204 Q691.273,577.452 683.187,577.452 Q674.456,577.452 669.183,571.182 Q663.909,564.913 663.909,554.395 L663.909,549.649 Q663.909,542.764 666.37,537.549 Q668.831,532.334 673.314,529.551 Q677.825,526.739 683.773,526.739 Q691.624,526.739 696.37,531.133 Q701.116,535.528 701.907,543.291 L695.374,543.291 Q694.525,537.373 691.683,534.737 Q688.841,532.1 683.773,532.1 Q677.532,532.1 673.988,536.729 Q670.443,541.329 670.443,549.825 L670.443,554.6 Q670.443,562.627 673.782,567.373 Q677.152,572.12 683.187,572.12 Q688.607,572.12 691.507,569.688 Q694.407,567.227 695.374,561.104 L701.907,561.104 z M732.452,576.778 Q731.924,575.694 731.573,572.911 Q727.208,577.452 721.143,577.452 Q715.694,577.452 712.208,574.405 Q708.751,571.329 708.751,566.612 Q708.751,560.87 713.116,557.706 Q717.481,554.541 725.362,554.541 L731.456,554.541 L731.456,551.641 Q731.456,548.36 729.493,546.426 Q727.53,544.463 723.692,544.463 Q720.352,544.463 718.067,546.163 Q715.811,547.862 715.811,550.264 L709.512,550.264 Q709.512,547.51 711.446,544.961 Q713.409,542.413 716.749,540.918 Q720.089,539.424 724.073,539.424 Q730.43,539.424 734.005,542.588 Q737.608,545.752 737.755,551.319 L737.755,568.194 Q737.755,573.262 739.044,576.221 L739.044,576.778 L732.452,576.778 z M722.051,572.002 Q724.981,572.002 727.618,570.479 Q730.284,568.956 731.456,566.495 L731.456,558.965 L726.563,558.965 Q715.02,558.965 715.02,565.733 Q715.02,568.663 716.983,570.332 Q718.946,572.002 722.051,572.002 z M770.22,573.145 Q766.558,577.452 759.468,577.452 Q753.609,577.452 750.532,574.053 Q747.486,570.655 747.427,563.975 L747.427,540.098 L753.696,540.098 L753.696,563.799 Q753.696,572.12 760.493,572.12 Q767.671,572.12 770.044,566.788 L770.044,540.098 L776.314,540.098 L776.314,576.778 L770.366,576.778 L770.22,573.145 z M807.208,567.051 Q807.208,564.502 805.274,563.096 Q803.37,561.69 798.594,560.694 Q793.848,559.668 791.036,558.233 Q788.252,556.797 786.905,554.834 Q785.586,552.872 785.586,550.176 Q785.586,545.664 789.395,542.559 Q793.204,539.424 799.151,539.424 Q805.391,539.424 809.258,542.647 Q813.155,545.87 813.155,550.879 L806.827,550.879 Q806.827,548.301 804.629,546.456 Q802.461,544.581 799.151,544.581 Q795.723,544.581 793.79,546.075 Q791.856,547.539 791.856,549.971 Q791.856,552.227 793.643,553.399 Q795.459,554.541 800.147,555.596 Q804.834,556.651 807.735,558.116 Q810.665,559.551 812.071,561.602 Q813.477,563.653 813.477,566.612 Q813.477,571.534 809.551,574.493 Q805.625,577.452 799.356,577.452 Q794.932,577.452 791.534,575.899 Q788.165,574.346 786.231,571.563 Q784.327,568.75 784.327,565.498 L790.596,565.498 Q790.772,568.633 793.116,570.479 Q795.489,572.325 799.356,572.325 Q802.901,572.325 805.04,570.889 Q807.208,569.454 807.208,567.051 z M836.886,577.452 Q829.415,577.452 824.728,572.559 Q820.07,567.666 820.07,559.463 L820.07,558.291 Q820.07,552.842 822.15,548.565 Q824.23,544.258 827.98,541.856 Q831.73,539.424 836.095,539.424 Q843.244,539.424 847.199,544.141 Q851.183,548.829 851.183,557.618 L851.183,560.225 L826.339,560.225 Q826.456,565.645 829.474,568.985 Q832.521,572.325 837.208,572.325 Q840.548,572.325 842.833,570.977 Q845.148,569.629 846.876,567.373 L850.714,570.362 Q846.085,577.452 836.886,577.452 z M836.095,544.581 Q832.287,544.581 829.708,547.334 Q827.13,550.088 826.544,555.069 L844.913,555.069 L844.913,554.6 Q844.65,549.825 842.335,547.217 Q840.021,544.581 836.095,544.581 z M870.008,567.579 L878.533,540.098 L885.242,540.098 L870.506,582.432 Q867.078,591.602 859.637,591.602 L858.435,591.485 L856.092,591.045 L856.092,585.977 L857.791,586.094 Q860.984,586.094 862.742,584.805 Q864.529,583.516 865.701,580.088 L867.078,576.368 L853.982,540.098 L860.838,540.098 L870.008,567.579 z M887.015,586.622 L883.47,584.161 Q886.634,579.737 886.781,575.02 L886.781,569.366 L892.904,569.366 L892.904,574.258 Q892.904,577.686 891.234,581.114 Q889.564,584.541 887.015,586.622 z M925.538,557.442 L925.538,576.778 L919.034,576.778 L919.034,527.413 L937.228,527.413 Q945.343,527.413 949.913,531.543 Q954.513,535.674 954.513,542.5 Q954.513,549.678 950.03,553.575 Q945.548,557.442 937.169,557.442 L925.538,557.442 z M925.538,552.139 L937.228,552.139 Q942.442,552.139 945.226,549.678 Q948.009,547.217 948.009,542.559 Q948.009,538.164 945.226,535.528 Q942.442,532.862 937.608,532.774 L925.538,532.774 L925.538,552.139 z M968.111,544.522 Q972.271,539.424 978.95,539.424 Q990.581,539.424 990.698,552.549 L990.698,576.778 L984.429,576.778 L984.429,552.491 Q984.4,548.536 982.612,546.631 Q980.825,544.727 977.075,544.727 Q973.999,544.727 971.685,546.368 Q969.4,548.008 968.111,550.645 L968.111,576.778 L961.841,576.778 L961.841,524.688 L968.111,524.688 L968.111,544.522 z M1001.08,576.778 L1001.08,527.413 L1014.996,527.413 Q1021.441,527.413 1026.392,530.254 Q1031.344,533.096 1034.039,538.37 Q1036.734,543.614 1036.763,550.44 L1036.763,553.575 Q1036.763,560.577 1034.068,565.85 Q1031.373,571.094 1026.363,573.907 Q1021.383,576.719 1014.732,576.778 L1001.08,576.778 z M1007.584,532.774 L1007.584,571.446 L1014.439,571.446 Q1021.939,571.446 1026.129,566.788 Q1030.318,562.1 1030.318,553.457 L1030.318,550.557 Q1030.318,542.149 1026.363,537.491 Q1022.437,532.832 1015.172,532.774 L1007.584,532.774 z" fill="#FFFFFF"/>
      <path d="M400.953,615.728 L387.857,615.728 L384.927,623.902 L380.679,623.902 L392.603,592.642 L396.207,592.642 L408.16,623.902 L403.941,623.902 L400.953,615.728 z M389.117,612.359 L399.722,612.359 L394.419,597.74 L389.117,612.359 z M425.274,617.749 Q425.274,616.138 424.073,615.259 Q422.872,614.351 419.854,613.706 Q416.837,613.062 415.049,612.154 Q413.292,611.245 412.442,610.015 Q411.592,608.755 411.592,607.056 Q411.592,604.185 413.995,602.222 Q416.426,600.23 420.176,600.23 Q424.131,600.23 426.592,602.281 Q429.053,604.331 429.053,607.495 L425.04,607.495 Q425.04,605.855 423.663,604.683 Q422.286,603.511 420.176,603.511 Q418.008,603.511 416.778,604.449 Q415.547,605.386 415.547,606.91 Q415.547,608.345 416.69,609.078 Q417.833,609.81 420.792,610.484 Q423.78,611.158 425.626,612.095 Q427.471,613.003 428.35,614.292 Q429.258,615.581 429.258,617.456 Q429.258,620.562 426.768,622.466 Q424.278,624.341 420.294,624.341 Q417.51,624.341 415.342,623.345 Q413.204,622.349 412.003,620.591 Q410.801,618.804 410.801,616.753 L414.756,616.753 Q414.874,618.745 416.368,619.917 Q417.862,621.089 420.294,621.089 Q422.549,621.089 423.897,620.181 Q425.274,619.273 425.274,617.749 z M447.948,617.749 Q447.948,616.138 446.747,615.259 Q445.546,614.351 442.529,613.706 Q439.511,613.062 437.724,612.154 Q435.966,611.245 435.116,610.015 Q434.267,608.755 434.267,607.056 Q434.267,604.185 436.669,602.222 Q439.101,600.23 442.851,600.23 Q446.806,600.23 449.267,602.281 Q451.728,604.331 451.728,607.495 L447.714,607.495 Q447.714,605.855 446.337,604.683 Q444.96,603.511 442.851,603.511 Q440.683,603.511 439.452,604.449 Q438.222,605.386 438.222,606.91 Q438.222,608.345 439.364,609.078 Q440.507,609.81 443.466,610.484 Q446.454,611.158 448.3,612.095 Q450.146,613.003 451.025,614.292 Q451.933,615.581 451.933,617.456 Q451.933,620.562 449.443,622.466 Q446.952,624.341 442.968,624.341 Q440.185,624.341 438.017,623.345 Q435.878,622.349 434.677,620.591 Q433.476,618.804 433.476,616.753 L437.431,616.753 Q437.548,618.745 439.042,619.917 Q440.536,621.089 442.968,621.089 Q445.224,621.089 446.571,620.181 Q447.948,619.273 447.948,617.749 z M456.062,612.066 Q456.062,608.667 457.381,605.943 Q458.728,603.189 461.131,601.724 Q463.533,600.23 466.609,600.23 Q471.355,600.23 474.285,603.54 Q477.215,606.822 477.215,612.271 L477.215,612.535 Q477.215,615.933 475.896,618.628 Q474.607,621.324 472.176,622.847 Q469.773,624.341 466.638,624.341 Q461.922,624.341 458.992,621.06 Q456.062,617.749 456.062,612.359 L456.062,612.066 z M460.047,612.535 Q460.047,616.402 461.834,618.745 Q463.621,621.089 466.638,621.089 Q469.656,621.089 471.443,618.716 Q473.23,616.343 473.23,612.066 Q473.23,608.257 471.414,605.884 Q469.597,603.511 466.609,603.511 Q463.65,603.511 461.834,605.855 Q460.047,608.199 460.047,612.535 z M491.513,621.089 Q493.622,621.089 495.204,619.8 Q496.815,618.511 496.991,616.578 L500.741,616.578 Q500.624,618.57 499.364,620.386 Q498.104,622.173 495.966,623.257 Q493.856,624.341 491.513,624.341 Q486.767,624.341 483.954,621.177 Q481.142,617.984 481.142,612.505 L481.142,611.831 Q481.142,608.433 482.372,605.796 Q483.632,603.16 485.946,601.695 Q488.29,600.23 491.483,600.23 Q495.38,600.23 497.958,602.574 Q500.565,604.917 500.741,608.667 L496.991,608.667 Q496.815,606.411 495.263,604.976 Q493.739,603.511 491.483,603.511 Q488.466,603.511 486.796,605.708 Q485.126,607.876 485.126,611.978 L485.126,612.74 Q485.126,616.753 486.767,618.921 Q488.436,621.089 491.513,621.089 z M509.521,623.902 L505.536,623.902 L505.536,600.669 L509.521,600.669 L509.521,623.902 z M505.214,594.517 Q505.214,593.55 505.8,592.876 Q506.415,592.203 507.558,592.203 Q508.73,592.203 509.316,592.876 Q509.931,593.55 509.931,594.517 Q509.931,595.484 509.316,596.128 Q508.73,596.773 507.558,596.773 Q506.415,596.773 505.8,596.128 Q505.214,595.484 505.214,594.517 z M530.212,623.902 Q529.86,623.228 529.655,621.441 Q526.901,624.341 523.034,624.341 Q519.607,624.341 517.409,622.408 Q515.212,620.445 515.212,617.456 Q515.212,613.824 517.966,611.831 Q520.72,609.81 525.73,609.81 L529.597,609.81 L529.597,607.994 Q529.597,605.913 528.337,604.683 Q527.107,603.453 524.675,603.453 Q522.565,603.453 521.101,604.536 Q519.665,605.591 519.665,607.115 L515.681,607.115 Q515.681,605.357 516.911,603.745 Q518.142,602.134 520.251,601.197 Q522.39,600.23 524.909,600.23 Q528.923,600.23 531.208,602.251 Q533.493,604.244 533.581,607.788 L533.581,618.482 Q533.581,621.675 534.372,623.55 L534.372,623.902 L530.212,623.902 z M523.62,620.884 Q525.495,620.884 527.165,619.917 Q528.835,618.951 529.597,617.398 L529.597,612.622 L526.491,612.622 Q519.167,612.622 519.167,616.9 Q519.167,618.775 520.398,619.829 Q521.657,620.884 523.62,620.884 z M545.196,595.044 L545.196,600.669 L549.532,600.669 L549.532,603.745 L545.196,603.745 L545.196,618.16 Q545.196,619.536 545.753,620.24 Q546.339,620.943 547.745,620.943 Q548.419,620.943 549.62,620.679 L549.62,623.902 Q548.067,624.341 546.573,624.341 Q543.907,624.341 542.559,622.73 Q541.212,621.119 541.212,618.16 L541.212,603.745 L536.993,603.745 L536.993,600.669 L541.212,600.669 L541.212,595.044 L545.196,595.044 z M563.809,624.341 Q559.063,624.341 556.104,621.236 Q553.145,618.13 553.145,612.915 L553.145,612.212 Q553.145,608.755 554.463,606.031 Q555.782,603.306 558.155,601.783 Q560.528,600.23 563.311,600.23 Q567.823,600.23 570.342,603.218 Q572.862,606.206 572.862,611.773 L572.862,613.413 L557.129,613.413 Q557.217,616.87 559.122,618.98 Q561.055,621.089 564.014,621.089 Q566.123,621.089 567.588,620.24 Q569.053,619.361 570.137,617.954 L572.569,619.829 Q569.639,624.341 563.809,624.341 z M563.311,603.511 Q560.909,603.511 559.268,605.269 Q557.627,606.997 557.247,610.161 L568.877,610.161 L568.877,609.869 Q568.731,606.822 567.266,605.181 Q565.801,603.511 563.311,603.511 z M593.1,611.656 L593.1,623.902 L588.969,623.902 L588.969,592.642 L600.483,592.642 Q605.639,592.642 608.539,595.279 Q611.44,597.886 611.44,602.193 Q611.44,606.734 608.598,609.195 Q605.756,611.656 600.453,611.656 L593.1,611.656 z M593.1,608.286 L600.483,608.286 Q603.793,608.286 605.551,606.734 Q607.338,605.181 607.338,602.222 Q607.338,599.439 605.551,597.769 Q603.793,596.099 600.717,596.04 L593.1,596.04 L593.1,608.286 z M627.316,604.244 Q626.408,604.097 625.353,604.097 Q621.457,604.097 620.051,607.408 L620.051,623.902 L616.096,623.902 L616.096,600.669 L619.963,600.669 L620.021,603.365 Q621.955,600.23 625.558,600.23 Q626.701,600.23 627.316,600.552 L627.316,604.244 z M629.491,612.066 Q629.491,608.667 630.81,605.943 Q632.157,603.189 634.56,601.724 Q636.962,600.23 640.038,600.23 Q644.784,600.23 647.714,603.54 Q650.644,606.822 650.644,612.271 L650.644,612.535 Q650.644,615.933 649.325,618.628 Q648.036,621.324 645.604,622.847 Q643.202,624.341 640.067,624.341 Q635.351,624.341 632.421,621.06 Q629.491,617.749 629.491,612.359 L629.491,612.066 z M633.476,612.535 Q633.476,616.402 635.263,618.745 Q637.05,621.089 640.067,621.089 Q643.085,621.089 644.872,618.716 Q646.659,616.343 646.659,612.066 Q646.659,608.257 644.843,605.884 Q643.026,603.511 640.038,603.511 Q637.079,603.511 635.263,605.855 Q633.476,608.199 633.476,612.535 z M657.559,623.902 L657.559,603.745 L653.897,603.745 L653.897,600.669 L657.559,600.669 L657.559,598.296 Q657.559,594.546 659.551,592.525 Q661.572,590.474 665.205,590.474 Q666.582,590.474 667.93,590.826 L667.725,594.048 Q666.729,593.872 665.586,593.872 Q663.653,593.872 662.598,595.015 Q661.543,596.128 661.543,598.208 L661.543,600.669 L666.494,600.669 L666.494,603.745 L661.543,603.745 L661.543,623.902 L657.559,623.902 z M680.015,624.341 Q675.269,624.341 672.31,621.236 Q669.351,618.13 669.351,612.915 L669.351,612.212 Q669.351,608.755 670.669,606.031 Q671.987,603.306 674.361,601.783 Q676.734,600.23 679.517,600.23 Q684.029,600.23 686.548,603.218 Q689.068,606.206 689.068,611.773 L689.068,613.413 L673.335,613.413 Q673.423,616.87 675.327,618.98 Q677.261,621.089 680.22,621.089 Q682.329,621.089 683.794,620.24 Q685.259,619.361 686.343,617.954 L688.775,619.829 Q685.845,624.341 680.015,624.341 z M679.517,603.511 Q677.114,603.511 675.474,605.269 Q673.833,606.997 673.452,610.161 L685.083,610.161 L685.083,609.869 Q684.937,606.822 683.472,605.181 Q682.007,603.511 679.517,603.511 z M707.179,617.749 Q707.179,616.138 705.978,615.259 Q704.777,614.351 701.759,613.706 Q698.742,613.062 696.955,612.154 Q695.197,611.245 694.347,610.015 Q693.497,608.755 693.497,607.056 Q693.497,604.185 695.9,602.222 Q698.331,600.23 702.081,600.23 Q706.037,600.23 708.497,602.281 Q710.958,604.331 710.958,607.495 L706.945,607.495 Q706.945,605.855 705.568,604.683 Q704.191,603.511 702.081,603.511 Q699.914,603.511 698.683,604.449 Q697.453,605.386 697.453,606.91 Q697.453,608.345 698.595,609.078 Q699.738,609.81 702.697,610.484 Q705.685,611.158 707.531,612.095 Q709.376,613.003 710.255,614.292 Q711.164,615.581 711.164,617.456 Q711.164,620.562 708.673,622.466 Q706.183,624.341 702.199,624.341 Q699.415,624.341 697.247,623.345 Q695.109,622.349 693.908,620.591 Q692.706,618.804 692.706,616.753 L696.662,616.753 Q696.779,618.745 698.273,619.917 Q699.767,621.089 702.199,621.089 Q704.455,621.089 705.802,620.181 Q707.179,619.273 707.179,617.749 z M729.854,617.749 Q729.854,616.138 728.652,615.259 Q727.451,614.351 724.434,613.706 Q721.416,613.062 719.629,612.154 Q717.871,611.245 717.022,610.015 Q716.172,608.755 716.172,607.056 Q716.172,604.185 718.574,602.222 Q721.006,600.23 724.756,600.23 Q728.711,600.23 731.172,602.281 Q733.633,604.331 733.633,607.495 L729.619,607.495 Q729.619,605.855 728.242,604.683 Q726.865,603.511 724.756,603.511 Q722.588,603.511 721.357,604.449 Q720.127,605.386 720.127,606.91 Q720.127,608.345 721.27,609.078 Q722.412,609.81 725.371,610.484 Q728.359,611.158 730.205,612.095 Q732.051,613.003 732.93,614.292 Q733.838,615.581 733.838,617.456 Q733.838,620.562 731.348,622.466 Q728.857,624.341 724.873,624.341 Q722.09,624.341 719.922,623.345 Q717.783,622.349 716.582,620.591 Q715.381,618.804 715.381,616.753 L719.336,616.753 Q719.453,618.745 720.947,619.917 Q722.441,621.089 724.873,621.089 Q727.129,621.089 728.477,620.181 Q729.854,619.273 729.854,617.749 z M737.967,612.066 Q737.967,608.667 739.286,605.943 Q740.633,603.189 743.036,601.724 Q745.438,600.23 748.514,600.23 Q753.26,600.23 756.19,603.54 Q759.12,606.822 759.12,612.271 L759.12,612.535 Q759.12,615.933 757.801,618.628 Q756.512,621.324 754.081,622.847 Q751.678,624.341 748.544,624.341 Q743.827,624.341 740.897,621.06 Q737.967,617.749 737.967,612.359 L737.967,612.066 z M741.952,612.535 Q741.952,616.402 743.739,618.745 Q745.526,621.089 748.544,621.089 Q751.561,621.089 753.348,618.716 Q755.135,616.343 755.135,612.066 Q755.135,608.257 753.319,605.884 Q751.503,603.511 748.514,603.511 Q745.555,603.511 743.739,605.855 Q741.952,608.199 741.952,612.535 z M775.322,604.244 Q774.414,604.097 773.359,604.097 Q769.463,604.097 768.056,607.408 L768.056,623.902 L764.101,623.902 L764.101,600.669 L767.969,600.669 L768.027,603.365 Q769.961,600.23 773.564,600.23 Q774.707,600.23 775.322,600.552 L775.322,604.244 z" fill="#7891CD"/>
      <path d="M383.697,666.142 L383.697,634.882 L392.515,634.882 Q396.587,634.882 399.722,636.698 Q402.857,638.486 404.556,641.825 Q406.285,645.136 406.314,649.472 L406.314,651.464 Q406.314,655.888 404.585,659.228 Q402.886,662.538 399.722,664.325 Q396.558,666.112 392.339,666.142 L383.697,666.142 z M387.828,638.28 L387.828,662.773 L392.164,662.773 Q396.91,662.773 399.546,659.814 Q402.212,656.855 402.212,651.376 L402.212,649.53 Q402.212,644.228 399.722,641.269 Q397.232,638.31 392.632,638.28 L387.828,638.28 z M421.557,666.581 Q416.811,666.581 413.852,663.476 Q410.893,660.37 410.893,655.155 L410.893,654.452 Q410.893,650.995 412.211,648.271 Q413.53,645.546 415.903,644.023 Q418.276,642.47 421.059,642.47 Q425.571,642.47 428.09,645.458 Q430.61,648.446 430.61,654.013 L430.61,655.654 L414.877,655.654 Q414.965,659.111 416.87,661.22 Q418.803,663.329 421.762,663.329 Q423.872,663.329 425.336,662.48 Q426.801,661.601 427.885,660.195 L430.317,662.07 Q427.387,666.581 421.557,666.581 z M421.059,645.751 Q418.657,645.751 417.016,647.509 Q415.375,649.237 414.995,652.402 L426.625,652.402 L426.625,652.109 Q426.479,649.062 425.014,647.421 Q423.549,645.751 421.059,645.751 z M454.815,654.775 Q454.815,660.077 452.384,663.329 Q449.981,666.581 445.821,666.581 Q441.602,666.581 439.171,663.886 L439.171,675.077 L435.216,675.077 L435.216,642.909 L438.819,642.909 L439.024,645.487 Q441.456,642.47 445.762,642.47 Q449.952,642.47 452.384,645.634 Q454.815,648.798 454.815,654.423 L454.815,654.775 z M450.86,654.335 Q450.86,650.409 449.19,648.124 Q447.52,645.839 444.591,645.839 Q440.987,645.839 439.171,649.062 L439.171,660.165 Q440.958,663.329 444.62,663.329 Q447.491,663.329 449.161,661.073 Q450.86,658.788 450.86,654.335 z M474.213,666.142 Q473.861,665.468 473.656,663.681 Q470.902,666.581 467.035,666.581 Q463.608,666.581 461.41,664.648 Q459.213,662.685 459.213,659.696 Q459.213,656.064 461.967,654.071 Q464.721,652.05 469.731,652.05 L473.598,652.05 L473.598,650.234 Q473.598,648.154 472.338,646.923 Q471.108,645.693 468.676,645.693 Q466.567,645.693 465.102,646.777 Q463.666,647.831 463.666,649.355 L459.682,649.355 Q459.682,647.597 460.912,645.986 Q462.143,644.374 464.252,643.437 Q466.391,642.47 468.91,642.47 Q472.924,642.47 475.209,644.491 Q477.494,646.484 477.582,650.029 L477.582,660.722 Q477.582,663.915 478.373,665.79 L478.373,666.142 L474.213,666.142 z M467.621,663.124 Q469.496,663.124 471.166,662.157 Q472.836,661.191 473.598,659.638 L473.598,654.862 L470.492,654.862 Q463.168,654.862 463.168,659.14 Q463.168,661.015 464.399,662.07 Q465.658,663.124 467.621,663.124 z M495.027,646.484 Q494.119,646.337 493.064,646.337 Q489.168,646.337 487.762,649.648 L487.762,666.142 L483.807,666.142 L483.807,642.909 L487.674,642.909 L487.732,645.605 Q489.666,642.47 493.27,642.47 Q494.412,642.47 495.027,642.792 L495.027,646.484 z M505.152,637.284 L505.152,642.909 L509.488,642.909 L509.488,645.986 L505.152,645.986 L505.152,660.4 Q505.152,661.777 505.708,662.48 Q506.294,663.183 507.7,663.183 Q508.374,663.183 509.575,662.919 L509.575,666.142 Q508.023,666.581 506.529,666.581 Q503.863,666.581 502.515,664.97 Q501.167,663.359 501.167,660.4 L501.167,645.986 L496.948,645.986 L496.948,642.909 L501.167,642.909 L501.167,637.284 L505.152,637.284 z M517.846,642.909 L517.964,645.487 Q520.512,642.47 524.848,642.47 Q529.712,642.47 531.499,646.22 Q532.641,644.55 534.487,643.525 Q536.362,642.47 538.882,642.47 Q546.528,642.47 546.674,650.585 L546.674,666.142 L542.69,666.142 L542.69,650.82 Q542.69,648.329 541.548,647.099 Q540.405,645.839 537.739,645.839 Q535.512,645.839 534.048,647.187 Q532.612,648.505 532.378,650.732 L532.378,666.142 L528.364,666.142 L528.364,650.907 Q528.364,645.839 523.413,645.839 Q519.516,645.839 518.051,649.179 L518.051,666.142 L514.096,666.142 L514.096,642.909 L517.846,642.909 z M562.307,666.581 Q557.56,666.581 554.602,663.476 Q551.643,660.37 551.643,655.155 L551.643,654.452 Q551.643,650.995 552.961,648.271 Q554.279,645.546 556.652,644.023 Q559.025,642.47 561.809,642.47 Q566.32,642.47 568.84,645.458 Q571.359,648.446 571.359,654.013 L571.359,655.654 L555.627,655.654 Q555.715,659.111 557.619,661.22 Q559.553,663.329 562.512,663.329 Q564.621,663.329 566.086,662.48 Q567.551,661.601 568.635,660.195 L571.066,662.07 Q568.137,666.581 562.307,666.581 z M561.809,645.751 Q559.406,645.751 557.766,647.509 Q556.125,649.237 555.744,652.402 L567.375,652.402 L567.375,652.109 Q567.228,649.062 565.764,647.421 Q564.299,645.751 561.809,645.751 z M579.715,642.909 L579.832,645.839 Q582.498,642.47 586.805,642.47 Q594.158,642.47 594.217,650.79 L594.217,666.142 L590.262,666.142 L590.262,650.761 Q590.233,648.241 589.09,647.04 Q587.977,645.839 585.604,645.839 Q583.67,645.839 582.205,646.894 Q580.74,647.919 579.92,649.589 L579.92,666.142 L575.965,666.142 L575.965,642.909 L579.715,642.909 z M605.619,637.284 L605.619,642.909 L609.955,642.909 L609.955,645.986 L605.619,645.986 L605.619,660.4 Q605.619,661.777 606.176,662.48 Q606.762,663.183 608.168,663.183 Q608.842,663.183 610.043,662.919 L610.043,666.142 Q608.49,666.581 606.996,666.581 Q604.33,666.581 602.982,664.97 Q601.635,663.359 601.635,660.4 L601.635,645.986 L597.416,645.986 L597.416,642.909 L601.635,642.909 L601.635,637.284 L605.619,637.284 z M624.425,654.306 Q624.425,650.907 625.743,648.183 Q627.091,645.429 629.493,643.964 Q631.895,642.47 634.972,642.47 Q639.718,642.47 642.647,645.78 Q645.577,649.062 645.577,654.511 L645.577,654.775 Q645.577,658.173 644.259,660.868 Q642.97,663.564 640.538,665.087 Q638.136,666.581 635.001,666.581 Q630.284,666.581 627.354,663.3 Q624.425,659.989 624.425,654.599 L624.425,654.306 z M628.409,654.775 Q628.409,658.642 630.196,660.986 Q631.983,663.329 635.001,663.329 Q638.018,663.329 639.806,660.956 Q641.593,658.583 641.593,654.306 Q641.593,650.497 639.776,648.124 Q637.96,645.751 634.972,645.751 Q632.013,645.751 630.196,648.095 Q628.409,650.439 628.409,654.775 z M652.492,666.142 L652.492,645.986 L648.83,645.986 L648.83,642.909 L652.492,642.909 L652.492,640.536 Q652.492,636.786 654.484,634.765 Q656.506,632.714 660.139,632.714 Q661.516,632.714 662.863,633.066 L662.658,636.288 Q661.662,636.112 660.52,636.112 Q658.586,636.112 657.531,637.255 Q656.477,638.368 656.477,640.448 L656.477,642.909 L661.428,642.909 L661.428,645.986 L656.477,645.986 L656.477,666.142 L652.492,666.142 z M700.325,656.21 Q699.739,661.191 696.663,663.886 Q693.587,666.581 688.46,666.581 Q682.923,666.581 679.583,662.597 Q676.243,658.612 676.243,651.962 L676.243,648.974 Q676.243,644.609 677.796,641.298 Q679.348,637.987 682.19,636.23 Q685.061,634.443 688.841,634.443 Q693.821,634.443 696.809,637.226 Q699.827,640.009 700.325,644.931 L696.165,644.931 Q695.637,641.181 693.85,639.511 Q692.063,637.841 688.841,637.841 Q684.885,637.841 682.63,640.771 Q680.403,643.671 680.403,649.062 L680.403,652.109 Q680.403,657.177 682.512,660.195 Q684.651,663.212 688.46,663.212 Q691.917,663.212 693.733,661.659 Q695.579,660.077 696.165,656.21 L700.325,656.21 z M704.279,654.306 Q704.279,650.907 705.597,648.183 Q706.945,645.429 709.347,643.964 Q711.75,642.47 714.826,642.47 Q719.572,642.47 722.502,645.78 Q725.431,649.062 725.431,654.511 L725.431,654.775 Q725.431,658.173 724.113,660.868 Q722.824,663.564 720.392,665.087 Q717.99,666.581 714.855,666.581 Q710.138,666.581 707.209,663.3 Q704.279,659.989 704.279,654.599 L704.279,654.306 z M708.263,654.775 Q708.263,658.642 710.051,660.986 Q711.838,663.329 714.855,663.329 Q717.873,663.329 719.66,660.956 Q721.447,658.583 721.447,654.306 Q721.447,650.497 719.631,648.124 Q717.814,645.751 714.826,645.751 Q711.867,645.751 710.051,648.095 Q708.263,650.439 708.263,654.775 z M734.134,642.909 L734.251,645.487 Q736.8,642.47 741.136,642.47 Q745.999,642.47 747.786,646.22 Q748.929,644.55 750.774,643.525 Q752.649,642.47 755.169,642.47 Q762.815,642.47 762.962,650.585 L762.962,666.142 L758.977,666.142 L758.977,650.82 Q758.977,648.329 757.835,647.099 Q756.692,645.839 754.026,645.839 Q751.8,645.839 750.335,647.187 Q748.899,648.505 748.665,650.732 L748.665,666.142 L744.651,666.142 L744.651,650.907 Q744.651,645.839 739.7,645.839 Q735.804,645.839 734.339,649.179 L734.339,666.142 L730.384,666.142 L730.384,642.909 L734.134,642.909 z M788.555,654.775 Q788.555,660.077 786.123,663.329 Q783.721,666.581 779.561,666.581 Q775.342,666.581 772.91,663.886 L772.91,675.077 L768.955,675.077 L768.955,642.909 L772.559,642.909 L772.764,645.487 Q775.195,642.47 779.502,642.47 Q783.692,642.47 786.123,645.634 Q788.555,648.798 788.555,654.423 L788.555,654.775 z M784.6,654.335 Q784.6,650.409 782.93,648.124 Q781.26,645.839 778.33,645.839 Q774.727,645.839 772.91,649.062 L772.91,660.165 Q774.697,663.329 778.36,663.329 Q781.231,663.329 782.901,661.073 Q784.6,658.788 784.6,654.335 z M807.953,663.857 Q805.638,666.581 801.156,666.581 Q797.435,666.581 795.472,664.413 Q793.539,662.245 793.539,658.027 L793.539,642.909 L797.494,642.909 L797.494,657.909 Q797.494,663.212 801.8,663.212 Q806.341,663.212 807.865,659.814 L807.865,642.909 L811.82,642.909 L811.82,666.142 L808.041,666.142 L807.953,663.857 z M823.259,637.284 L823.259,642.909 L827.595,642.909 L827.595,645.986 L823.259,645.986 L823.259,660.4 Q823.259,661.777 823.816,662.48 Q824.402,663.183 825.808,663.183 Q826.482,663.183 827.683,662.919 L827.683,666.142 Q826.13,666.581 824.636,666.581 Q821.97,666.581 820.622,664.97 Q819.275,663.359 819.275,660.4 L819.275,645.986 L815.056,645.986 L815.056,642.909 L819.275,642.909 L819.275,637.284 L823.259,637.284 z M841.872,666.581 Q837.126,666.581 834.167,663.476 Q831.208,660.37 831.208,655.155 L831.208,654.452 Q831.208,650.995 832.526,648.271 Q833.845,645.546 836.218,644.023 Q838.591,642.47 841.374,642.47 Q845.885,642.47 848.405,645.458 Q850.925,648.446 850.925,654.013 L850.925,655.654 L835.192,655.654 Q835.28,659.111 837.184,661.22 Q839.118,663.329 842.077,663.329 Q844.186,663.329 845.651,662.48 Q847.116,661.601 848.2,660.195 L850.632,662.07 Q847.702,666.581 841.872,666.581 z M841.374,645.751 Q838.971,645.751 837.331,647.509 Q835.69,649.237 835.309,652.402 L846.94,652.402 L846.94,652.109 Q846.794,649.062 845.329,647.421 Q843.864,645.751 841.374,645.751 z M866.751,646.484 Q865.843,646.337 864.788,646.337 Q860.892,646.337 859.485,649.648 L859.485,666.142 L855.53,666.142 L855.53,642.909 L859.398,642.909 L859.456,645.605 Q861.39,642.47 864.993,642.47 Q866.136,642.47 866.751,642.792 L866.751,646.484 z M891.111,652.196 Q885.808,650.673 883.377,648.476 Q880.974,646.249 880.974,642.968 Q880.974,639.277 883.933,636.874 Q886.892,634.443 891.609,634.443 Q894.832,634.443 897.351,635.702 Q899.871,636.933 901.248,639.13 Q902.654,641.327 902.654,643.905 L898.494,643.905 Q898.494,641.093 896.678,639.482 Q894.891,637.841 891.609,637.841 Q888.562,637.841 886.863,639.189 Q885.164,640.536 885.164,642.909 Q885.164,644.814 886.775,646.132 Q888.387,647.45 892.283,648.564 Q896.18,649.648 898.377,650.966 Q900.574,652.284 901.629,654.042 Q902.713,655.8 902.713,658.202 Q902.713,662.011 899.754,664.296 Q896.795,666.581 891.814,666.581 Q888.621,666.581 885.808,665.351 Q883.025,664.091 881.502,661.952 Q880.008,659.814 880.008,657.089 L884.139,657.089 Q884.139,659.902 886.219,661.571 Q888.328,663.212 891.814,663.212 Q895.096,663.212 896.824,661.894 Q898.582,660.546 898.582,658.261 Q898.582,655.946 896.971,654.687 Q895.359,653.427 891.111,652.196 z M916.702,663.329 Q918.811,663.329 920.393,662.04 Q922.004,660.751 922.18,658.818 L925.93,658.818 Q925.813,660.81 924.553,662.626 Q923.293,664.413 921.155,665.497 Q919.045,666.581 916.702,666.581 Q911.956,666.581 909.143,663.417 Q906.331,660.224 906.331,654.745 L906.331,654.071 Q906.331,650.673 907.561,648.036 Q908.821,645.4 911.135,643.935 Q913.479,642.47 916.672,642.47 Q920.569,642.47 923.147,644.814 Q925.754,647.157 925.93,650.907 L922.18,650.907 Q922.004,648.652 920.452,647.216 Q918.928,645.751 916.672,645.751 Q913.655,645.751 911.985,647.948 Q910.315,650.116 910.315,654.218 L910.315,654.98 Q910.315,658.993 911.956,661.161 Q913.625,663.329 916.702,663.329 z M934.71,666.142 L930.725,666.142 L930.725,642.909 L934.71,642.909 L934.71,666.142 z M930.403,636.757 Q930.403,635.79 930.989,635.116 Q931.604,634.443 932.747,634.443 Q933.919,634.443 934.505,635.116 Q935.12,635.79 935.12,636.757 Q935.12,637.724 934.505,638.368 Q933.919,639.013 932.747,639.013 Q931.604,639.013 930.989,638.368 Q930.403,637.724 930.403,636.757 z M950.713,666.581 Q945.967,666.581 943.008,663.476 Q940.049,660.37 940.049,655.155 L940.049,654.452 Q940.049,650.995 941.368,648.271 Q942.686,645.546 945.059,644.023 Q947.432,642.47 950.215,642.47 Q954.727,642.47 957.247,645.458 Q959.766,648.446 959.766,654.013 L959.766,655.654 L944.034,655.654 Q944.122,659.111 946.026,661.22 Q947.959,663.329 950.918,663.329 Q953.028,663.329 954.493,662.48 Q955.958,661.601 957.042,660.195 L959.473,662.07 Q956.543,666.581 950.713,666.581 z M950.215,645.751 Q947.813,645.751 946.172,647.509 Q944.532,649.237 944.151,652.402 L955.782,652.402 L955.782,652.109 Q955.635,649.062 954.17,647.421 Q952.706,645.751 950.215,645.751 z M968.122,642.909 L968.239,645.839 Q970.905,642.47 975.212,642.47 Q982.565,642.47 982.624,650.79 L982.624,666.142 L978.669,666.142 L978.669,650.761 Q978.639,648.241 977.497,647.04 Q976.384,645.839 974.011,645.839 Q972.077,645.839 970.612,646.894 Q969.147,647.919 968.327,649.589 L968.327,666.142 L964.372,666.142 L964.372,642.909 L968.122,642.909 z M997.952,663.329 Q1000.061,663.329 1001.643,662.04 Q1003.254,660.751 1003.43,658.818 L1007.18,658.818 Q1007.063,660.81 1005.803,662.626 Q1004.543,664.413 1002.405,665.497 Q1000.295,666.581 997.952,666.581 Q993.206,666.581 990.393,663.417 Q987.581,660.224 987.581,654.745 L987.581,654.071 Q987.581,650.673 988.811,648.036 Q990.071,645.4 992.385,643.935 Q994.729,642.47 997.922,642.47 Q1001.819,642.47 1004.397,644.814 Q1007.004,647.157 1007.18,650.907 L1003.43,650.907 Q1003.254,648.652 1001.702,647.216 Q1000.178,645.751 997.922,645.751 Q994.905,645.751 993.235,647.948 Q991.565,650.116 991.565,654.218 L991.565,654.98 Q991.565,658.993 993.206,661.161 Q994.875,663.329 997.952,663.329 z M1021.292,666.581 Q1016.546,666.581 1013.587,663.476 Q1010.628,660.37 1010.628,655.155 L1010.628,654.452 Q1010.628,650.995 1011.946,648.271 Q1013.264,645.546 1015.638,644.023 Q1018.011,642.47 1020.794,642.47 Q1025.305,642.47 1027.825,645.458 Q1030.344,648.446 1030.344,654.013 L1030.344,655.654 L1014.612,655.654 Q1014.7,659.111 1016.604,661.22 Q1018.538,663.329 1021.497,663.329 Q1023.606,663.329 1025.071,662.48 Q1026.536,661.601 1027.62,660.195 L1030.052,662.07 Q1027.122,666.581 1021.292,666.581 z M1020.794,645.751 Q1018.391,645.751 1016.751,647.509 Q1015.11,649.237 1014.729,652.402 L1026.36,652.402 L1026.36,652.109 Q1026.214,649.062 1024.749,647.421 Q1023.284,645.751 1020.794,645.751 z M1034.804,672.382 L1032.548,670.829 Q1034.569,668.017 1034.657,665.029 L1034.657,661.425 L1038.554,661.425 L1038.554,664.56 Q1038.554,666.728 1037.47,668.896 Q1036.415,671.064 1034.804,672.382 z" fill="#7891CD"/>
      <path d="M400.953,700.208 L387.857,700.208 L384.927,708.382 L380.679,708.382 L392.603,677.122 L396.207,677.122 L408.16,708.382 L403.941,708.382 L400.953,700.208 z M389.117,696.839 L399.722,696.839 L394.419,682.22 L389.117,696.839 z M422.989,688.724 Q422.081,688.577 421.026,688.577 Q417.129,688.577 415.723,691.888 L415.723,708.382 L411.768,708.382 L411.768,685.149 L415.635,685.149 L415.694,687.845 Q417.628,684.71 421.231,684.71 Q422.374,684.71 422.989,685.032 L422.989,688.724 z M433.123,697.63 L430.633,700.208 L430.633,708.382 L426.648,708.382 L426.648,675.393 L430.633,675.393 L430.633,695.345 L432.742,692.796 L439.978,685.149 L444.812,685.149 L435.789,694.847 L445.867,708.382 L441.209,708.382 L433.123,697.63 z M463.262,708.382 Q462.911,707.708 462.706,705.921 Q459.952,708.821 456.085,708.821 Q452.657,708.821 450.46,706.888 Q448.262,704.925 448.262,701.936 Q448.262,698.304 451.016,696.311 Q453.77,694.29 458.78,694.29 L462.647,694.29 L462.647,692.474 Q462.647,690.393 461.387,689.163 Q460.157,687.933 457.725,687.933 Q455.616,687.933 454.151,689.017 Q452.715,690.071 452.715,691.595 L448.731,691.595 Q448.731,689.837 449.962,688.226 Q451.192,686.614 453.301,685.677 Q455.44,684.71 457.96,684.71 Q461.973,684.71 464.258,686.731 Q466.544,688.724 466.631,692.268 L466.631,702.962 Q466.631,706.155 467.422,708.03 L467.422,708.382 L463.262,708.382 z M456.671,705.364 Q458.546,705.364 460.215,704.397 Q461.885,703.431 462.647,701.878 L462.647,697.102 L459.542,697.102 Q452.217,697.102 452.217,701.38 Q452.217,703.255 453.448,704.31 Q454.708,705.364 456.671,705.364 z M476.606,685.149 L476.723,688.079 Q479.389,684.71 483.696,684.71 Q491.049,684.71 491.108,693.03 L491.108,708.382 L487.153,708.382 L487.153,693.001 Q487.124,690.481 485.981,689.28 Q484.868,688.079 482.495,688.079 Q480.561,688.079 479.096,689.134 Q477.631,690.159 476.811,691.829 L476.811,708.382 L472.856,708.382 L472.856,685.149 L476.606,685.149 z M510.625,702.229 Q510.625,700.618 509.424,699.739 Q508.223,698.831 505.205,698.186 Q502.188,697.542 500.401,696.634 Q498.643,695.726 497.793,694.495 Q496.943,693.235 496.943,691.536 Q496.943,688.665 499.346,686.702 Q501.777,684.71 505.527,684.71 Q509.483,684.71 511.943,686.761 Q514.404,688.811 514.404,691.976 L510.391,691.976 Q510.391,690.335 509.014,689.163 Q507.637,687.991 505.527,687.991 Q503.359,687.991 502.129,688.929 Q500.899,689.866 500.899,691.39 Q500.899,692.825 502.041,693.558 Q503.184,694.29 506.143,694.964 Q509.131,695.638 510.977,696.575 Q512.822,697.483 513.701,698.772 Q514.609,700.061 514.609,701.936 Q514.609,705.042 512.119,706.946 Q509.629,708.821 505.645,708.821 Q502.861,708.821 500.693,707.825 Q498.555,706.829 497.354,705.071 Q496.152,703.284 496.152,701.233 L500.108,701.233 Q500.225,703.226 501.719,704.397 Q503.213,705.569 505.645,705.569 Q507.901,705.569 509.248,704.661 Q510.625,703.753 510.625,702.229 z M534.12,708.382 Q533.768,707.708 533.563,705.921 Q530.809,708.821 526.942,708.821 Q523.514,708.821 521.317,706.888 Q519.12,704.925 519.12,701.936 Q519.12,698.304 521.874,696.311 Q524.628,694.29 529.637,694.29 L533.505,694.29 L533.505,692.474 Q533.505,690.393 532.245,689.163 Q531.014,687.933 528.583,687.933 Q526.473,687.933 525.008,689.017 Q523.573,690.071 523.573,691.595 L519.589,691.595 Q519.589,689.837 520.819,688.226 Q522.049,686.614 524.159,685.677 Q526.298,684.71 528.817,684.71 Q532.831,684.71 535.116,686.731 Q537.401,688.724 537.489,692.268 L537.489,702.962 Q537.489,706.155 538.28,708.03 L538.28,708.382 L534.12,708.382 z M527.528,705.364 Q529.403,705.364 531.073,704.397 Q532.743,703.431 533.505,701.878 L533.505,697.102 L530.399,697.102 Q523.075,697.102 523.075,701.38 Q523.075,703.255 524.305,704.31 Q525.565,705.364 527.528,705.364 z M557.219,702.229 Q557.219,700.618 556.018,699.739 Q554.817,698.831 551.799,698.186 Q548.782,697.542 546.995,696.634 Q545.237,695.726 544.387,694.495 Q543.538,693.235 543.538,691.536 Q543.538,688.665 545.94,686.702 Q548.372,684.71 552.122,684.71 Q556.077,684.71 558.538,686.761 Q560.999,688.811 560.999,691.976 L556.985,691.976 Q556.985,690.335 555.608,689.163 Q554.231,687.991 552.122,687.991 Q549.954,687.991 548.723,688.929 Q547.493,689.866 547.493,691.39 Q547.493,692.825 548.635,693.558 Q549.778,694.29 552.737,694.964 Q555.725,695.638 557.571,696.575 Q559.417,697.483 560.296,698.772 Q561.204,700.061 561.204,701.936 Q561.204,705.042 558.714,706.946 Q556.223,708.821 552.239,708.821 Q549.456,708.821 547.288,707.825 Q545.149,706.829 543.948,705.071 Q542.747,703.284 542.747,701.233 L546.702,701.233 Q546.819,703.226 548.313,704.397 Q549.807,705.569 552.239,705.569 Q554.495,705.569 555.842,704.661 Q557.219,703.753 557.219,702.229 z M587.089,694.436 Q581.786,692.913 579.354,690.716 Q576.952,688.489 576.952,685.208 Q576.952,681.517 579.911,679.114 Q582.87,676.683 587.587,676.683 Q590.809,676.683 593.329,677.942 Q595.848,679.173 597.225,681.37 Q598.632,683.567 598.632,686.145 L594.471,686.145 Q594.471,683.333 592.655,681.722 Q590.868,680.081 587.587,680.081 Q584.54,680.081 582.841,681.429 Q581.141,682.776 581.141,685.149 Q581.141,687.054 582.753,688.372 Q584.364,689.69 588.26,690.804 Q592.157,691.888 594.354,693.206 Q596.552,694.524 597.606,696.282 Q598.69,698.04 598.69,700.442 Q598.69,704.251 595.731,706.536 Q592.772,708.821 587.792,708.821 Q584.598,708.821 581.786,707.591 Q579.003,706.331 577.479,704.192 Q575.985,702.054 575.985,699.329 L580.116,699.329 Q580.116,702.142 582.196,703.811 Q584.305,705.452 587.792,705.452 Q591.073,705.452 592.802,704.134 Q594.559,702.786 594.559,700.501 Q594.559,698.186 592.948,696.927 Q591.337,695.667 587.089,694.436 z M608.753,679.524 L608.753,685.149 L613.089,685.149 L613.089,688.226 L608.753,688.226 L608.753,702.64 Q608.753,704.017 609.31,704.72 Q609.896,705.423 611.302,705.423 Q611.976,705.423 613.177,705.159 L613.177,708.382 Q611.624,708.821 610.13,708.821 Q607.464,708.821 606.117,707.21 Q604.769,705.599 604.769,702.64 L604.769,688.226 L600.55,688.226 L600.55,685.149 L604.769,685.149 L604.769,679.524 L608.753,679.524 z M632.054,708.382 Q631.702,707.708 631.497,705.921 Q628.743,708.821 624.876,708.821 Q621.448,708.821 619.251,706.888 Q617.054,704.925 617.054,701.936 Q617.054,698.304 619.807,696.311 Q622.561,694.29 627.571,694.29 L631.438,694.29 L631.438,692.474 Q631.438,690.393 630.179,689.163 Q628.948,687.933 626.516,687.933 Q624.407,687.933 622.942,689.017 Q621.507,690.071 621.507,691.595 L617.522,691.595 Q617.522,689.837 618.753,688.226 Q619.983,686.614 622.093,685.677 Q624.231,684.71 626.751,684.71 Q630.765,684.71 633.05,686.731 Q635.335,688.724 635.423,692.268 L635.423,702.962 Q635.423,706.155 636.214,708.03 L636.214,708.382 L632.054,708.382 z M625.462,705.364 Q627.337,705.364 629.007,704.397 Q630.677,703.431 631.438,701.878 L631.438,697.102 L628.333,697.102 Q621.009,697.102 621.009,701.38 Q621.009,703.255 622.239,704.31 Q623.499,705.364 625.462,705.364 z M647.038,679.524 L647.038,685.149 L651.374,685.149 L651.374,688.226 L647.038,688.226 L647.038,702.64 Q647.038,704.017 647.594,704.72 Q648.18,705.423 649.587,705.423 Q650.26,705.423 651.462,705.159 L651.462,708.382 Q649.909,708.821 648.415,708.821 Q645.749,708.821 644.401,707.21 Q643.053,705.599 643.053,702.64 L643.053,688.226 L638.835,688.226 L638.835,685.149 L643.053,685.149 L643.053,679.524 L647.038,679.524 z M665.651,708.821 Q660.905,708.821 657.946,705.716 Q654.987,702.61 654.987,697.395 L654.987,696.692 Q654.987,693.235 656.305,690.511 Q657.623,687.786 659.996,686.263 Q662.369,684.71 665.153,684.71 Q669.664,684.71 672.184,687.698 Q674.703,690.686 674.703,696.253 L674.703,697.893 L658.971,697.893 Q659.059,701.351 660.963,703.46 Q662.897,705.569 665.856,705.569 Q667.965,705.569 669.43,704.72 Q670.895,703.841 671.979,702.435 L674.41,704.31 Q671.481,708.821 665.651,708.821 z M665.153,687.991 Q662.75,687.991 661.11,689.749 Q659.469,691.477 659.088,694.642 L670.719,694.642 L670.719,694.349 Q670.573,691.302 669.108,689.661 Q667.643,687.991 665.153,687.991 z M712.813,677.122 L712.813,698.362 Q712.783,702.786 710.029,705.599 Q707.275,708.411 702.559,708.763 L701.445,708.821 Q696.318,708.821 693.272,706.067 Q690.225,703.284 690.195,698.421 L690.195,677.122 L694.268,677.122 L694.268,698.304 Q694.268,701.673 696.113,703.577 Q697.988,705.452 701.445,705.452 Q704.961,705.452 706.807,703.577 Q708.682,701.702 708.682,698.304 L708.682,677.122 L712.813,677.122 z M722.46,685.149 L722.577,688.079 Q725.243,684.71 729.55,684.71 Q736.904,684.71 736.962,693.03 L736.962,708.382 L733.007,708.382 L733.007,693.001 Q732.978,690.481 731.835,689.28 Q730.722,688.079 728.349,688.079 Q726.415,688.079 724.95,689.134 Q723.486,690.159 722.665,691.829 L722.665,708.382 L718.71,708.382 L718.71,685.149 L722.46,685.149 z M747.28,708.382 L743.296,708.382 L743.296,685.149 L747.28,685.149 L747.28,708.382 z M742.974,678.997 Q742.974,678.03 743.559,677.356 Q744.175,676.683 745.317,676.683 Q746.489,676.683 747.075,677.356 Q747.69,678.03 747.69,678.997 Q747.69,679.964 747.075,680.608 Q746.489,681.253 745.317,681.253 Q744.175,681.253 743.559,680.608 Q742.974,679.964 742.974,678.997 z M761.292,702.991 L767.063,685.149 L771.106,685.149 L762.786,708.382 L759.739,708.382 L751.331,685.149 L755.403,685.149 L761.292,702.991 z M784.305,708.821 Q779.559,708.821 776.6,705.716 Q773.641,702.61 773.641,697.395 L773.641,696.692 Q773.641,693.235 774.959,690.511 Q776.277,687.786 778.65,686.263 Q781.023,684.71 783.807,684.71 Q788.318,684.71 790.838,687.698 Q793.357,690.686 793.357,696.253 L793.357,697.893 L777.625,697.893 Q777.713,701.351 779.617,703.46 Q781.551,705.569 784.51,705.569 Q786.619,705.569 788.084,704.72 Q789.549,703.841 790.633,702.435 L793.064,704.31 Q790.135,708.821 784.305,708.821 z M783.807,687.991 Q781.404,687.991 779.764,689.749 Q778.123,691.477 777.742,694.642 L789.373,694.642 L789.373,694.349 Q789.227,691.302 787.762,689.661 Q786.297,687.991 783.807,687.991 z M809.184,688.724 Q808.276,688.577 807.221,688.577 Q803.324,688.577 801.918,691.888 L801.918,708.382 L797.963,708.382 L797.963,685.149 L801.83,685.149 L801.889,687.845 Q803.822,684.71 807.426,684.71 Q808.569,684.71 809.184,685.032 L809.184,688.724 z M826.349,702.229 Q826.349,700.618 825.148,699.739 Q823.947,698.831 820.929,698.186 Q817.912,697.542 816.124,696.634 Q814.367,695.726 813.517,694.495 Q812.667,693.235 812.667,691.536 Q812.667,688.665 815.07,686.702 Q817.501,684.71 821.251,684.71 Q825.206,684.71 827.667,686.761 Q830.128,688.811 830.128,691.976 L826.115,691.976 Q826.115,690.335 824.738,689.163 Q823.361,687.991 821.251,687.991 Q819.083,687.991 817.853,688.929 Q816.622,689.866 816.622,691.39 Q816.622,692.825 817.765,693.558 Q818.908,694.29 821.867,694.964 Q824.855,695.638 826.701,696.575 Q828.546,697.483 829.425,698.772 Q830.333,700.061 830.333,701.936 Q830.333,705.042 827.843,706.946 Q825.353,708.821 821.369,708.821 Q818.585,708.821 816.417,707.825 Q814.279,706.829 813.078,705.071 Q811.876,703.284 811.876,701.233 L815.831,701.233 Q815.949,703.226 817.443,704.397 Q818.937,705.569 821.369,705.569 Q823.624,705.569 824.972,704.661 Q826.349,703.753 826.349,702.229 z M839.824,708.382 L835.84,708.382 L835.84,685.149 L839.824,685.149 L839.824,708.382 z M835.518,678.997 Q835.518,678.03 836.104,677.356 Q836.719,676.683 837.861,676.683 Q839.033,676.683 839.619,677.356 Q840.234,678.03 840.234,678.997 Q840.234,679.964 839.619,680.608 Q839.033,681.253 837.861,681.253 Q836.719,681.253 836.104,680.608 Q835.518,679.964 835.518,678.997 z M851.58,679.524 L851.58,685.149 L855.916,685.149 L855.916,688.226 L851.58,688.226 L851.58,702.64 Q851.58,704.017 852.136,704.72 Q852.722,705.423 854.129,705.423 Q854.802,705.423 856.004,705.159 L856.004,708.382 Q854.451,708.821 852.957,708.821 Q850.291,708.821 848.943,707.21 Q847.595,705.599 847.595,702.64 L847.595,688.226 L843.377,688.226 L843.377,685.149 L847.595,685.149 L847.595,679.524 L851.58,679.524 z M868.142,702.552 L873.562,685.149 L877.81,685.149 L868.464,711.956 Q866.296,717.757 861.579,717.757 L860.818,717.698 L859.353,717.435 L859.353,714.212 L860.407,714.3 Q862.429,714.3 863.542,713.479 Q864.685,712.659 865.417,710.491 L866.296,708.118 L858.005,685.149 L862.341,685.149 L868.142,702.552 z" fill="#7891CD"/>
      <path d="M415.689,872.287 L393.365,872.287 L388.355,886.203 L381.089,886.203 L401.451,832.882 L407.603,832.882 L427.994,886.203 L420.787,886.203 L415.689,872.287 z M395.474,866.486 L413.609,866.486 L404.527,841.554 L395.474,866.486 z M450.904,862.443 Q441.851,859.836 437.72,856.056 Q433.619,852.248 433.619,846.681 Q433.619,840.382 438.628,836.281 Q443.668,832.15 451.724,832.15 Q457.232,832.15 461.539,834.289 Q465.845,836.398 468.189,840.148 Q470.562,843.869 470.562,848.293 L463.501,848.293 Q463.501,843.459 460.425,840.705 Q457.349,837.922 451.724,837.922 Q446.539,837.922 443.609,840.236 Q440.709,842.521 440.709,846.564 Q440.709,849.845 443.462,852.101 Q446.246,854.328 452.896,856.203 Q459.546,858.078 463.296,860.334 Q467.046,862.589 468.863,865.607 Q470.679,868.595 470.679,872.638 Q470.679,879.142 465.611,883.039 Q460.572,886.935 452.105,886.935 Q446.597,886.935 441.822,884.826 Q437.076,882.716 434.498,879.054 Q431.919,875.392 431.919,870.734 L438.98,870.734 Q438.98,875.568 442.554,878.38 Q446.128,881.193 452.105,881.193 Q457.671,881.193 460.63,878.937 Q463.589,876.652 463.589,872.726 Q463.589,868.8 460.835,866.662 Q458.111,864.523 450.904,862.443 z M499.236,864.64 L486.697,864.64 L486.697,886.203 L479.637,886.203 L479.637,832.882 L497.303,832.882 Q506.297,832.882 511.131,836.984 Q515.994,841.086 515.994,848.908 Q515.994,853.888 513.299,857.609 Q510.633,861.3 505.828,863.117 L518.338,885.763 L518.338,886.203 L510.809,886.203 L499.236,864.64 z M486.697,858.869 L497.508,858.869 Q502.752,858.869 505.828,856.173 Q508.934,853.449 508.934,848.908 Q508.934,843.986 505.975,841.349 Q503.045,838.713 497.479,838.654 L486.697,838.654 L486.697,858.869 z M533.404,886.203 L526.373,886.203 L526.373,832.882 L533.404,832.882 L533.404,886.203 z M580.542,862.443 Q571.49,859.836 567.359,856.056 Q563.257,852.248 563.257,846.681 Q563.257,840.382 568.267,836.281 Q573.306,832.15 581.363,832.15 Q586.871,832.15 591.177,834.289 Q595.484,836.398 597.828,840.148 Q600.201,843.869 600.201,848.293 L593.14,848.293 Q593.14,843.459 590.064,840.705 Q586.988,837.922 581.363,837.922 Q576.177,837.922 573.248,840.236 Q570.347,842.521 570.347,846.564 Q570.347,849.845 573.101,852.101 Q575.884,854.328 582.535,856.203 Q589.185,858.078 592.935,860.334 Q596.685,862.589 598.501,865.607 Q600.318,868.595 600.318,872.638 Q600.318,879.142 595.25,883.039 Q590.21,886.935 581.744,886.935 Q576.236,886.935 571.46,884.826 Q566.714,882.716 564.136,879.054 Q561.558,875.392 561.558,870.734 L568.619,870.734 Q568.619,875.568 572.193,878.38 Q575.767,881.193 581.744,881.193 Q587.31,881.193 590.269,878.937 Q593.228,876.652 593.228,872.726 Q593.228,868.8 590.474,866.662 Q587.75,864.523 580.542,862.443 z M632.713,882.277 Q628.758,886.935 621.111,886.935 Q614.783,886.935 611.443,883.273 Q608.133,879.582 608.104,872.345 L608.104,846.564 L614.871,846.564 L614.871,872.17 Q614.871,881.193 622.195,881.193 Q629.959,881.193 632.537,875.392 L632.537,846.564 L639.305,846.564 L639.305,886.203 L632.859,886.203 L632.713,882.277 z M655.982,846.564 L656.158,850.959 Q660.523,845.832 667.906,845.832 Q676.226,845.832 679.214,852.218 Q681.207,849.347 684.371,847.589 Q687.535,845.832 691.871,845.832 Q704.908,845.832 705.113,859.66 L705.113,886.203 L698.345,886.203 L698.345,860.041 Q698.345,855.793 696.382,853.713 Q694.449,851.603 689.878,851.603 Q686.099,851.603 683.609,853.859 Q681.119,856.086 680.738,859.894 L680.738,886.203 L673.912,886.203 L673.912,860.246 Q673.912,851.603 665.445,851.603 Q658.794,851.603 656.333,857.257 L656.333,886.203 L649.566,886.203 L649.566,846.564 L655.982,846.564 z M721.717,846.564 L721.893,850.959 Q726.258,845.832 733.641,845.832 Q741.961,845.832 744.949,852.218 Q746.941,849.347 750.105,847.589 Q753.27,845.832 757.605,845.832 Q770.643,845.832 770.848,859.66 L770.848,886.203 L764.08,886.203 L764.08,860.041 Q764.08,855.793 762.117,853.713 Q760.184,851.603 755.613,851.603 Q751.834,851.603 749.344,853.859 Q746.854,856.086 746.473,859.894 L746.473,886.203 L739.646,886.203 L739.646,860.246 Q739.646,851.603 731.18,851.603 Q724.529,851.603 722.068,857.257 L722.068,886.203 L715.301,886.203 L715.301,846.564 L721.717,846.564 z M797.5,886.935 Q789.444,886.935 784.375,881.662 Q779.336,876.359 779.336,867.482 L779.336,866.252 Q779.336,860.334 781.592,855.705 Q783.848,851.076 787.891,848.468 Q791.934,845.832 796.68,845.832 Q804.385,845.832 808.663,850.929 Q812.969,856.027 812.969,865.519 L812.969,868.332 L786.133,868.332 Q786.28,874.191 789.532,877.795 Q792.813,881.398 797.881,881.398 Q801.456,881.398 803.946,879.933 Q806.436,878.468 808.311,876.066 L812.442,879.289 Q807.461,886.935 797.5,886.935 z M796.68,851.398 Q792.579,851.398 789.795,854.386 Q787.012,857.375 786.338,862.765 L806.202,862.765 L806.202,862.238 Q805.909,857.082 803.418,854.24 Q800.928,851.398 796.68,851.398 z M839.959,852.658 Q838.406,852.394 836.619,852.394 Q829.969,852.394 827.566,858.078 L827.566,886.203 L820.799,886.203 L820.799,846.564 L827.391,846.564 L827.508,851.164 Q830.848,845.832 836.941,845.832 Q838.934,845.832 839.959,846.359 L839.959,852.658 z M898.992,886.203 L864.041,886.203 L864.041,881.339 L882.498,860.832 Q886.6,856.173 888.152,853.273 Q889.734,850.343 889.734,847.238 Q889.734,843.048 887.186,840.382 Q884.666,837.716 880.447,837.716 Q875.408,837.716 872.596,840.588 Q869.812,843.459 869.812,848.586 L863.016,848.586 Q863.016,841.232 867.762,836.691 Q872.508,832.15 880.447,832.15 Q887.889,832.15 892.195,836.047 Q896.531,839.943 896.531,846.418 Q896.531,854.298 886.512,865.168 L872.215,880.666 L898.992,880.666 L898.992,886.203 z M939.612,863.468 Q939.612,875.363 935.54,881.164 Q931.468,886.935 922.825,886.935 Q914.3,886.935 910.198,881.281 Q906.097,875.627 905.95,864.377 L905.95,855.324 Q905.95,843.576 909.993,837.863 Q914.065,832.15 922.767,832.15 Q931.351,832.15 935.423,837.658 Q939.495,843.166 939.612,854.679 L939.612,863.468 z M932.815,854.181 Q932.815,845.597 930.384,841.672 Q927.981,837.716 922.767,837.716 Q917.552,837.716 915.179,841.642 Q912.806,845.539 912.718,853.683 L912.718,864.523 Q912.718,873.166 915.208,877.297 Q917.728,881.398 922.825,881.398 Q927.835,881.398 930.267,877.531 Q932.728,873.634 932.815,865.285 L932.815,854.181 z M983.221,886.203 L948.27,886.203 L948.27,881.339 L966.727,860.832 Q970.828,856.173 972.381,853.273 Q973.963,850.343 973.963,847.238 Q973.963,843.048 971.414,840.382 Q968.895,837.716 964.676,837.716 Q959.637,837.716 956.824,840.588 Q954.041,843.459 954.041,848.586 L947.244,848.586 Q947.244,841.232 951.99,836.691 Q956.736,832.15 964.676,832.15 Q972.117,832.15 976.424,836.047 Q980.76,839.943 980.76,846.418 Q980.76,854.298 970.74,865.168 L956.443,880.666 L983.221,880.666 L983.221,886.203 z M1019.007,868.302 L1026.39,868.302 L1026.39,873.81 L1019.007,873.81 L1019.007,886.203 L1012.181,886.203 L1012.181,873.81 L987.894,873.81 L987.894,869.826 L1011.771,832.882 L1019.007,832.882 L1019.007,868.302 z M995.599,868.302 L1012.181,868.302 L1012.181,842.14 L1011.39,843.605 L995.599,868.302 z" fill="#FFFFFF"/>
    </g>
  </g>
</svg>
